<svg width="150" height="39" viewBox="0 0 150 39" fill="none" xmlns="http://www.w3.org/2000/svg">
<g clip-path="url(#clip0_59346_17302)">
<path d="M59.4766 9.10172C60.0292 8.98382 60.5156 8.91906 60.9361 8.9072C61.3567 8.89558 61.7471 8.8894 62.1074 8.8894C62.588 8.8894 63.0806 8.90151 63.5851 8.92499C64.0899 8.94848 64.5463 9.00755 64.9548 9.10172L68.8474 25.0444L73.2442 9.10172C74.0373 8.96034 74.8543 8.8894 75.6952 8.8894C76.0558 8.8894 76.4401 8.89558 76.8486 8.9072C77.2571 8.91906 77.7616 8.98382 78.3623 9.10172L71.4064 31.6903C71.1179 32.5857 70.7757 33.328 70.379 33.9172C69.9826 34.5064 69.5323 34.9659 69.0276 35.2959C68.5231 35.6258 67.9583 35.8554 67.3336 35.9852C66.7089 36.1149 66.0361 36.1797 65.3154 36.1797C64.6425 36.1797 64.0357 36.1384 63.4952 36.0559C62.9544 35.9733 62.4199 35.8614 61.8912 35.72C61.8673 35.6023 61.8552 35.502 61.8552 35.4194V35.1545C61.8552 34.5887 61.9215 34.0526 62.0535 33.546C62.1855 33.0395 62.3478 32.5504 62.5401 32.0791C62.7563 32.1497 63.0446 32.2145 63.405 32.2736C63.7656 32.3324 64.1257 32.3618 64.4863 32.3618C64.7746 32.3618 65.0631 32.344 65.3512 32.3089C65.6397 32.2736 65.9219 32.1675 66.1981 31.9906C66.4746 31.8138 66.7329 31.537 66.9733 31.1599C67.2134 30.7827 67.4296 30.2525 67.6219 29.5691L68.2345 27.3776C67.9704 27.401 67.6758 27.4188 67.3518 27.4304C67.0272 27.4423 66.6968 27.4482 66.3604 27.4482H65.6037C65.3632 27.4482 65.147 27.4248 64.9548 27.3776L59.4766 9.10172Z" fill="#101829"/>
<path d="M80.8516 9.10171C81.7167 8.96034 82.5694 8.8894 83.4106 8.8894C84.2515 8.8894 85.1045 8.96034 85.9697 9.10171V18.7875C85.9697 19.7536 86.0478 20.549 86.2038 21.1736C86.36 21.7981 86.6002 22.293 86.9247 22.6583C87.249 23.0236 87.6515 23.2828 88.1321 23.4361C88.6126 23.5891 89.1773 23.6657 89.826 23.6657C90.715 23.6657 91.4599 23.5834 92.0607 23.4183V9.10171C92.9256 8.96034 93.7665 8.88965 94.5835 8.88965C95.4244 8.88965 96.2774 8.96034 97.1423 9.10171V26.6704C96.3737 26.9297 95.3584 27.183 94.0969 27.4304C92.8354 27.6779 91.5199 27.8017 90.1503 27.8017C88.9248 27.8017 87.7475 27.7073 86.6183 27.5189C85.4891 27.3303 84.4977 26.9297 83.645 26.317C82.7917 25.7043 82.1131 24.8088 81.6086 23.6306C81.1038 22.4521 80.8516 20.8849 80.8516 18.9288V9.10171Z" fill="#101829"/>
<path d="M112.968 12.8844C112.488 12.7667 112.097 12.6901 111.797 12.6547C111.496 12.6192 111.118 12.6016 110.662 12.6016C109.869 12.6016 109.178 12.7605 108.589 13.0789C108 13.397 107.514 13.8211 107.129 14.3513C106.745 14.8817 106.463 15.5062 106.282 16.225C106.102 16.9437 106.012 17.6919 106.012 18.4697C106.012 19.4359 106.132 20.255 106.372 20.9265C106.613 21.598 106.943 22.1344 107.364 22.535C107.784 22.9354 108.283 23.2243 108.859 23.4008C109.436 23.5778 110.061 23.666 110.733 23.666C111.142 23.666 111.514 23.6485 111.851 23.6131C112.187 23.5778 112.56 23.5012 112.968 23.3833V12.8844ZM112.968 1.53719C113.401 1.46651 113.827 1.4193 114.248 1.39582C114.668 1.37209 115.083 1.36047 115.491 1.36047C115.9 1.36047 116.32 1.37209 116.752 1.39582C117.185 1.4193 117.618 1.46651 118.05 1.53719V26.7768C116.921 27.1068 115.773 27.3601 114.608 27.5368C113.443 27.7135 112.031 27.802 110.373 27.802C109.1 27.802 107.88 27.6312 106.715 27.2894C105.55 26.9478 104.522 26.4058 103.633 25.6633C102.744 24.9211 102.041 23.9606 101.525 22.7824C101.008 21.6042 100.75 20.1665 100.75 18.4697C100.75 17.1264 100.972 15.8597 101.417 14.6696C101.861 13.4795 102.498 12.4484 103.327 11.5764C104.156 10.7044 105.159 10.0151 106.337 9.50863C107.514 9.00171 108.823 8.74837 110.265 8.74837C110.698 8.74837 111.148 8.76616 111.617 8.80151C112.085 8.83685 112.536 8.91347 112.968 9.03137V1.53719Z" fill="#101829"/>
<path d="M123.241 6.0263C123.097 5.225 123.025 4.43557 123.025 3.658C123.025 2.90367 123.097 2.11423 123.241 1.28946C123.65 1.21877 124.088 1.16563 124.557 1.13029C125.025 1.09494 125.452 1.07739 125.836 1.07739C126.245 1.07739 126.689 1.09494 127.17 1.13029C127.651 1.16563 128.095 1.21877 128.503 1.28946C128.576 1.69011 128.623 2.08482 128.647 2.47361C128.672 2.86264 128.684 3.25711 128.684 3.658C128.684 4.03492 128.672 4.42371 128.647 4.82436C128.623 5.225 128.576 5.62565 128.503 6.0263C128.095 6.09699 127.657 6.14395 127.188 6.16768C126.719 6.19116 126.281 6.20302 125.872 6.20302C125.488 6.20302 125.055 6.19116 124.575 6.16768C124.094 6.14395 123.65 6.09699 123.241 6.0263ZM123.998 12.9194H121.583C121.511 12.6131 121.457 12.2891 121.421 11.9473C121.385 11.6057 121.367 11.2817 121.367 10.9752C121.367 10.339 121.439 9.71444 121.583 9.10173H129.008V27.3776C128.143 27.5189 127.302 27.5896 126.485 27.5896C125.692 27.5896 124.863 27.5189 123.998 27.3776V12.9194Z" fill="#101829"/>
<path d="M132.5 26.9534L140.898 12.9549H133.762C133.689 12.6015 133.641 12.2597 133.617 11.9297C133.593 11.5997 133.581 11.2698 133.581 10.9398C133.581 10.6336 133.593 10.333 133.617 10.0384C133.641 9.74406 133.689 9.43164 133.762 9.10168H148.43L148.611 9.52606L140.069 23.5245H147.998C148.07 23.878 148.118 24.2195 148.142 24.5495C148.166 24.8795 148.178 25.2094 148.178 25.5394C148.178 25.8459 148.166 26.1462 148.142 26.4408C148.118 26.7354 148.07 27.0476 147.998 27.3775H132.788L132.5 26.9534Z" fill="#101829"/>
<path fill-rule="evenodd" clip-rule="evenodd" d="M68.9277 20.0569L72.0379 8.77995C72.1644 8.32098 72.549 7.97446 73.0257 7.88943C73.8916 7.73521 74.7834 7.65735 75.7015 7.65735C76.0734 7.65735 76.4698 7.66353 76.8921 7.67564C77.3568 7.68923 77.9314 7.75943 78.6151 7.89364C78.9623 7.9616 79.264 8.17045 79.4461 8.46828C79.6281 8.76611 79.6737 9.12549 79.5711 9.45792C79.5711 9.45792 72.6152 32.0465 72.6107 32.0615C72.2818 33.0818 71.8857 33.9246 71.4339 34.5959C70.9362 35.3357 70.3644 35.9069 69.7309 36.3211C69.0961 36.7364 68.3862 37.0273 67.6002 37.1906C66.8949 37.3372 66.1353 37.4118 65.3216 37.4118C64.5772 37.4118 63.9062 37.3646 63.3082 37.2734C62.7213 37.1837 62.1409 37.0624 61.5671 36.9089C61.1077 36.786 60.7587 36.419 60.6655 35.9613C60.6224 35.7494 60.6052 35.568 60.6052 35.4195V35.1545C60.6052 34.4815 60.6856 33.8438 60.8426 33.2408C60.9885 32.6817 61.1677 32.1416 61.3799 31.6214C61.6271 31.0158 62.3128 30.7039 62.9435 30.9103C63.1121 30.9651 63.3376 31.0123 63.6174 31.0581C63.9092 31.1058 64.2007 31.1297 64.4926 31.1297C64.7292 31.1297 64.9661 31.1149 65.2017 31.0862C65.3103 31.0729 65.4134 31.0257 65.5184 30.9585C65.6646 30.8648 65.7871 30.7061 65.9141 30.5072C66.1043 30.2081 66.2646 29.7835 66.4166 29.2434L66.5743 28.6796L66.3667 28.6804H65.6099C65.2564 28.6804 64.9388 28.6423 64.6559 28.5729C64.2239 28.4668 63.8815 28.1443 63.7557 27.7251L58.2775 9.44927C58.1792 9.12104 58.2243 8.76735 58.4023 8.47323C58.5802 8.17886 58.875 7.9705 59.2157 7.89784C59.8558 7.76116 60.4193 7.68923 60.9071 7.67564C61.3403 7.66353 61.7425 7.65735 62.1137 7.65735C62.6137 7.65735 63.1262 7.66971 63.6509 7.69418C64.2398 7.72161 64.772 7.7923 65.2486 7.90228C65.7107 8.00881 66.0721 8.362 66.1827 8.8148L68.9277 20.0569ZM59.4828 9.10176C60.0355 8.98386 60.5218 8.91911 60.9424 8.90724C61.363 8.89563 61.7533 8.88945 62.1137 8.88945C62.5943 8.88945 63.0869 8.90156 63.5914 8.92504C64.0962 8.94852 64.5525 9.00759 64.961 9.10176L68.8536 25.0444L73.2505 9.10176C74.0436 8.96038 74.8605 8.88945 75.7015 8.88945C76.0621 8.88945 76.4464 8.89563 76.8548 8.90724C77.2633 8.91911 77.7678 8.98386 78.3686 9.10176L71.4127 31.6903C71.1242 32.5858 70.7819 33.328 70.3853 33.9172C69.9889 34.5065 69.5386 34.9659 69.0338 35.2959C68.5293 35.6259 67.9646 35.8555 67.3399 35.9852C66.7152 36.115 66.0423 36.1797 65.3216 36.1797C64.6488 36.1797 64.042 36.1385 63.5014 36.0559C62.9607 35.9734 62.4262 35.8614 61.8975 35.72C61.8735 35.6024 61.8614 35.502 61.8614 35.4195V35.1545C61.8614 34.5888 61.9277 34.0527 62.0598 33.546C62.1918 33.0396 62.3541 32.5504 62.5464 32.0791C62.7626 32.1498 63.0509 32.2145 63.4112 32.2736C63.7718 32.3324 64.1319 32.3618 64.4926 32.3618C64.7808 32.3618 65.0694 32.3441 65.3574 32.309C65.646 32.2736 65.9282 32.1676 66.2044 31.9906C66.4808 31.8139 66.7391 31.5371 66.9795 31.1599C67.2197 30.7827 67.4359 30.2526 67.6282 29.5692L68.2408 27.3776C67.9767 27.4011 67.6821 27.4189 67.358 27.4305C67.0335 27.4424 66.7031 27.4483 66.3667 27.4483H65.6099C65.3695 27.4483 65.1533 27.4248 64.961 27.3776L59.4828 9.10176Z" fill="white"/>
<path fill-rule="evenodd" clip-rule="evenodd" d="M90.8029 22.3911V9.10176C90.8029 8.49943 91.2469 7.98533 91.8525 7.88647C92.7881 7.73347 93.6981 7.6576 94.5819 7.6576C95.4906 7.6576 96.4126 7.73347 97.3473 7.88647C97.9528 7.98533 98.3969 8.49943 98.3969 9.10176V26.6705C98.3969 27.1964 98.0564 27.6645 97.5491 27.8356C96.7395 28.1087 95.6705 28.3781 94.3417 28.6389C93.0013 28.9016 91.6037 29.0338 90.1487 29.0338C88.8502 29.0338 87.6028 28.9332 86.4058 28.7338C85.074 28.5113 83.9067 28.0338 82.9012 27.3111C81.8801 26.578 81.0523 25.5177 80.4488 24.1079C79.8924 22.8091 79.5938 21.0849 79.5938 18.9289V9.10176C79.5938 8.49943 80.0378 7.98533 80.6436 7.88647C81.5785 7.73347 82.5 7.65735 83.409 7.65735C84.3177 7.65735 85.2395 7.73347 86.1744 7.88647C86.7802 7.98533 87.2243 8.49943 87.2243 9.10176V18.7875C87.2243 19.6348 87.2855 20.3328 87.4223 20.88C87.5234 21.2841 87.6602 21.6126 87.8706 21.8491C88.0445 22.0448 88.2612 22.1823 88.5183 22.2641C88.8885 22.382 89.3247 22.4336 89.8244 22.4336C90.1772 22.4336 90.5035 22.42 90.8029 22.3911ZM80.85 9.10176C81.7151 8.96038 82.5678 8.88945 83.409 8.88945C84.2499 8.88945 85.1029 8.96038 85.9681 9.10176V18.7875C85.9681 19.7537 86.0462 20.549 86.2022 21.1736C86.3584 21.7982 86.5986 22.293 86.9231 22.6583C87.2474 23.0236 87.6499 23.2829 88.1305 23.4361C88.611 23.5891 89.1757 23.6657 89.8244 23.6657C90.7134 23.6657 91.4583 23.5834 92.0591 23.4183V9.10176C92.924 8.96038 93.7649 8.88969 94.5819 8.88969C95.4228 8.88969 96.2758 8.96038 97.1407 9.10176V26.6705C96.3721 26.9297 95.3568 27.1831 94.0953 27.4305C92.8338 27.6779 91.5183 27.8017 90.1487 27.8017C88.9232 27.8017 87.7459 27.7073 86.6167 27.519C85.4875 27.3304 84.4961 26.9297 83.6434 26.317C82.7901 25.7043 82.1115 24.8088 81.607 23.6306C81.1022 22.4522 80.85 20.8849 80.85 18.9289V9.10176Z" fill="white"/>
<path fill-rule="evenodd" clip-rule="evenodd" d="M111.71 7.57279V1.53712C111.71 0.934784 112.154 0.420689 112.76 0.321824C113.238 0.243474 113.71 0.191569 114.174 0.165617C114.619 0.140407 115.057 0.128296 115.489 0.128296C115.921 0.128296 116.364 0.140407 116.82 0.16537C117.299 0.191322 117.777 0.243474 118.255 0.321824C118.861 0.420689 119.305 0.934784 119.305 1.53712V26.7767C119.305 27.3217 118.94 27.8019 118.407 27.9577C117.223 28.3034 116.02 28.5691 114.799 28.7545C113.58 28.9391 112.104 29.034 110.371 29.034C108.973 29.034 107.634 28.8452 106.353 28.47C105.016 28.0778 103.838 27.4537 102.818 26.6015C101.788 25.7419 100.968 24.6338 100.369 23.269C99.7941 21.9573 99.4922 20.3589 99.4922 18.4696C99.4922 16.9763 99.7414 15.5687 100.236 14.2456C100.74 12.8949 101.466 11.7258 102.407 10.736C103.35 9.74336 104.49 8.95665 105.83 8.38027C107.159 7.80809 108.636 7.51619 110.263 7.51619C110.727 7.51619 111.209 7.53497 111.71 7.57279ZM112.967 1.53712C113.399 1.46643 113.826 1.41922 114.246 1.39574C114.667 1.37201 115.081 1.3604 115.489 1.3604C115.898 1.3604 116.318 1.37201 116.751 1.39574C117.183 1.41922 117.616 1.46643 118.048 1.53712V26.7767C116.919 27.1067 115.772 27.36 114.607 27.5367C113.441 27.7135 112.029 27.8019 110.371 27.8019C109.098 27.8019 107.879 27.6312 106.713 27.2893C105.548 26.9478 104.521 26.4057 103.632 25.6633C102.743 24.921 102.04 23.9606 101.523 22.7823C101.007 21.6041 100.748 20.1664 100.748 18.4696C100.748 17.1263 100.971 15.8596 101.415 14.6695C101.86 13.4794 102.497 12.4483 103.325 11.5763C104.154 10.7043 105.158 10.015 106.335 9.50856C107.512 9.00163 108.822 8.74829 110.263 8.74829C110.696 8.74829 111.146 8.76608 111.615 8.80143C112.084 8.83677 112.534 8.91339 112.967 9.03129V1.53712ZM112.967 12.8843C112.486 12.7666 112.096 12.69 111.795 12.6547C111.495 12.6191 111.116 12.6015 110.66 12.6015C109.867 12.6015 109.176 12.7605 108.588 13.0788C107.999 13.3969 107.512 13.821 107.128 14.3512C106.743 14.8816 106.461 15.5062 106.281 16.2249C106.101 16.9437 106.01 17.6918 106.01 18.4696C106.01 19.4358 106.131 20.2549 106.371 20.9264C106.611 21.5979 106.942 22.1343 107.362 22.5349C107.783 22.9353 108.281 23.2243 108.858 23.4007C109.435 23.5777 110.059 23.6659 110.732 23.6659C111.141 23.6659 111.513 23.6484 111.849 23.6131C112.186 23.5777 112.558 23.5011 112.967 23.3832V12.8843ZM111.71 13.8865L111.644 13.8779C111.384 13.847 111.056 13.8336 110.66 13.8336C110.1 13.8336 109.61 13.933 109.194 14.1582C108.773 14.385 108.426 14.6871 108.152 15.065C107.854 15.476 107.64 15.9622 107.501 16.519C107.344 17.1436 107.267 17.7939 107.267 18.4696C107.267 19.2749 107.356 19.959 107.556 20.5181C107.724 20.9882 107.943 21.3708 108.237 21.6508C108.517 21.9168 108.849 22.1073 109.233 22.2248C109.694 22.3664 110.194 22.4338 110.732 22.4338C111.09 22.4338 111.415 22.4193 111.71 22.3884V13.8865Z" fill="white"/>
<path d="M123.241 6.0263C123.097 5.225 123.025 4.43557 123.025 3.658C123.025 2.90367 123.097 2.11423 123.241 1.28946C123.65 1.21877 124.088 1.16563 124.557 1.13029C125.025 1.09494 125.452 1.07739 125.836 1.07739C126.245 1.07739 126.689 1.09494 127.17 1.13029C127.651 1.16563 128.095 1.21877 128.503 1.28946C128.576 1.69011 128.623 2.08482 128.647 2.47361C128.672 2.86264 128.684 3.25711 128.684 3.658C128.684 4.03492 128.672 4.42371 128.647 4.82436C128.623 5.225 128.576 5.62565 128.503 6.0263C128.095 6.09699 127.657 6.14395 127.188 6.16768C126.719 6.19116 126.281 6.20302 125.872 6.20302C125.488 6.20302 125.055 6.19116 124.575 6.16768C124.094 6.14395 123.65 6.09699 123.241 6.0263ZM123.998 12.9194H121.583C121.511 12.6131 121.457 12.2891 121.421 11.9473C121.385 11.6057 121.367 11.2817 121.367 10.9752C121.367 10.339 121.439 9.71444 121.583 9.10173H129.008V27.3776C128.143 27.5189 127.302 27.5896 126.485 27.5896C125.692 27.5896 124.863 27.5189 123.998 27.3776V12.9194Z" stroke="white" stroke-width="1.25747" stroke-miterlimit="1.5" stroke-linecap="square" stroke-linejoin="round"/>
<path fill-rule="evenodd" clip-rule="evenodd" d="M138.699 14.1871H133.76C133.161 14.1871 132.646 13.7726 132.528 13.1967C132.445 12.7901 132.39 12.3969 132.363 12.0182C132.336 11.6586 132.324 11.2992 132.324 10.9399C132.324 10.6 132.337 10.2666 132.364 9.94059C132.392 9.5958 132.447 9.23 132.532 8.84369C132.656 8.27547 133.168 7.86963 133.76 7.86963H148.429C148.936 7.86963 149.393 8.16869 149.589 8.62817L149.769 9.05254C149.922 9.41315 149.891 9.82368 149.687 10.1588L142.283 22.2925H147.996C148.595 22.2925 149.111 22.707 149.228 23.2828C149.311 23.6892 149.366 24.0819 149.394 24.4621C149.42 24.8212 149.433 25.1803 149.433 25.5394C149.433 25.8793 149.419 26.2122 149.393 26.5397C149.364 26.8845 149.309 27.2498 149.225 27.6356C149.101 28.2038 148.589 28.6097 147.996 28.6097H132.787C132.367 28.6097 131.975 28.4038 131.741 28.061L131.453 27.6368C131.186 27.2438 131.171 26.7357 131.416 26.3286L138.699 14.1871ZM132.498 26.9534L140.896 12.955H133.76C133.688 12.6015 133.64 12.2597 133.616 11.9297C133.592 11.5998 133.58 11.2698 133.58 10.9399C133.58 10.6336 133.592 10.3331 133.616 10.0385C133.64 9.7441 133.688 9.43169 133.76 9.10173H148.429L148.609 9.5261L140.067 23.5246H147.996C148.068 23.878 148.116 24.2196 148.141 24.5495C148.164 24.8795 148.177 25.2095 148.177 25.5394C148.177 25.8459 148.164 26.1462 148.141 26.4408C148.116 26.7354 148.068 27.0476 147.996 27.3776H132.787L132.498 26.9534Z" fill="white"/>
<mask id="path-11-outside-1_59346_17302" maskUnits="userSpaceOnUse" x="104.281" y="29.2819" width="8" height="10" fill="black">
<rect fill="white" x="104.281" y="29.2819" width="8" height="10"/>
<path d="M107.776 37.3463C107.549 37.3463 107.345 37.2905 107.164 37.1787C106.984 37.067 106.844 36.9167 106.745 36.7276C106.646 36.5386 106.597 36.3323 106.597 36.1089C106.597 36.023 106.653 35.6556 106.765 35.0069C106.876 34.3581 107.005 33.6685 107.151 32.9381C107.302 32.2034 107.437 31.6191 107.557 31.1852C107.566 31.1551 107.583 31.1314 107.609 31.1143C107.639 31.0971 107.669 31.0885 107.699 31.0885C107.789 31.0885 107.834 31.125 107.834 31.198C107.684 31.7781 107.484 32.6975 107.235 33.9564C106.99 35.2153 106.868 35.9542 106.868 36.1734C106.868 36.4269 106.949 36.6374 107.113 36.805C107.276 36.9682 107.499 37.0499 107.783 37.0499C108.131 37.0499 108.41 36.9704 108.621 36.8114C108.831 36.6481 108.984 36.429 109.078 36.154C109.233 35.69 109.362 35.2432 109.465 34.8135C109.572 34.3839 109.693 33.8619 109.826 33.2475C109.843 33.1787 109.897 32.936 109.987 32.5192C110.081 32.0982 110.182 31.705 110.29 31.3398C110.311 31.2668 110.344 31.2066 110.387 31.1594C110.434 31.1121 110.477 31.0885 110.515 31.0885C110.593 31.0885 110.631 31.125 110.631 31.198C110.631 31.2023 110.612 31.2711 110.573 31.4043C110.475 31.6921 110.391 31.98 110.322 32.2679C110.279 32.4397 110.202 32.7877 110.09 33.3119C109.923 34.1025 109.77 34.7641 109.633 35.2969C109.495 35.8296 109.349 36.2378 109.194 36.5214C108.902 37.0713 108.429 37.3463 107.776 37.3463Z"/>
</mask>
<path d="M107.776 37.3463C107.549 37.3463 107.345 37.2905 107.164 37.1787C106.984 37.067 106.844 36.9167 106.745 36.7276C106.646 36.5386 106.597 36.3323 106.597 36.1089C106.597 36.023 106.653 35.6556 106.765 35.0069C106.876 34.3581 107.005 33.6685 107.151 32.9381C107.302 32.2034 107.437 31.6191 107.557 31.1852C107.566 31.1551 107.583 31.1314 107.609 31.1143C107.639 31.0971 107.669 31.0885 107.699 31.0885C107.789 31.0885 107.834 31.125 107.834 31.198C107.684 31.7781 107.484 32.6975 107.235 33.9564C106.99 35.2153 106.868 35.9542 106.868 36.1734C106.868 36.4269 106.949 36.6374 107.113 36.805C107.276 36.9682 107.499 37.0499 107.783 37.0499C108.131 37.0499 108.41 36.9704 108.621 36.8114C108.831 36.6481 108.984 36.429 109.078 36.154C109.233 35.69 109.362 35.2432 109.465 34.8135C109.572 34.3839 109.693 33.8619 109.826 33.2475C109.843 33.1787 109.897 32.936 109.987 32.5192C110.081 32.0982 110.182 31.705 110.29 31.3398C110.311 31.2668 110.344 31.2066 110.387 31.1594C110.434 31.1121 110.477 31.0885 110.515 31.0885C110.593 31.0885 110.631 31.125 110.631 31.198C110.631 31.2023 110.612 31.2711 110.573 31.4043C110.475 31.6921 110.391 31.98 110.322 32.2679C110.279 32.4397 110.202 32.7877 110.09 33.3119C109.923 34.1025 109.77 34.7641 109.633 35.2969C109.495 35.8296 109.349 36.2378 109.194 36.5214C108.902 37.0713 108.429 37.3463 107.776 37.3463Z" fill="white"/>
<path d="M107.164 37.1787L107.958 35.8969L107.958 35.8969L107.164 37.1787ZM106.745 36.7276L105.409 37.426L105.409 37.426L106.745 36.7276ZM106.765 35.0069L105.279 34.7511L105.279 34.7511L106.765 35.0069ZM107.151 32.9381L105.674 32.6358L105.673 32.6425L107.151 32.9381ZM107.557 31.1852L106.108 30.771L106.105 30.7824L107.557 31.1852ZM107.609 31.1143L106.861 29.8054L106.816 29.8311L106.773 29.8599L107.609 31.1143ZM107.834 31.198L109.294 31.5764L109.342 31.3903V31.198H107.834ZM107.235 33.9564L105.756 33.6636L105.755 33.6685L107.235 33.9564ZM107.113 36.805L106.033 37.857L106.04 37.864L106.047 37.8709L107.113 36.805ZM108.621 36.8114L109.529 38.0145L109.537 38.0086L109.545 38.0027L108.621 36.8114ZM109.078 36.154L110.504 36.6441L110.508 36.6308L109.078 36.154ZM109.465 34.8135L108.002 34.4479L108.001 34.4548L107.999 34.4617L109.465 34.8135ZM109.826 33.2475L108.363 32.8818L108.358 32.9049L108.353 32.9281L109.826 33.2475ZM109.987 32.5192L108.516 32.189L108.514 32.2002L109.987 32.5192ZM110.29 31.3398L111.736 31.7652L111.736 31.7652L110.29 31.3398ZM110.387 31.1594L109.321 30.0934L109.295 30.1187L109.271 30.1453L110.387 31.1594ZM110.573 31.4043L111.999 31.8937L112.011 31.8594L112.021 31.8246L110.573 31.4043ZM110.322 32.2679L111.785 32.6335L111.787 32.6258L111.788 32.618L110.322 32.2679ZM110.09 33.3119L108.616 32.9977L108.615 32.9993L110.09 33.3119ZM109.633 35.2969L108.173 34.9202L108.173 34.9202L109.633 35.2969ZM109.194 36.5214L107.871 35.7995L107.867 35.8068L107.863 35.8141L109.194 36.5214ZM107.776 37.3463V35.8388C107.787 35.8388 107.813 35.8402 107.851 35.8504C107.888 35.8607 107.925 35.8769 107.958 35.8969L107.164 37.1787L106.371 38.4606C106.807 38.7306 107.29 38.8538 107.776 38.8538V37.3463ZM107.164 37.1787L107.958 35.8969C107.978 35.9097 108.004 35.9293 108.029 35.9564C108.054 35.9834 108.071 36.0095 108.081 36.0292L106.745 36.7276L105.409 37.426C105.633 37.8533 105.959 38.2058 106.371 38.4606L107.164 37.1787ZM106.745 36.7276L108.081 36.0292C108.089 36.044 108.096 36.0617 108.1 36.0799C108.102 36.0885 108.103 36.0957 108.104 36.101C108.105 36.1064 108.105 36.1091 108.105 36.1089H106.597H105.09C105.09 36.5637 105.192 37.0111 105.409 37.426L106.745 36.7276ZM106.597 36.1089H108.105C108.105 36.1415 108.103 36.1657 108.103 36.1763C108.102 36.1883 108.101 36.196 108.101 36.1977C108.101 36.2005 108.101 36.1945 108.104 36.1761C108.108 36.1395 108.116 36.0809 108.129 35.9956C108.155 35.8263 108.195 35.5835 108.25 35.2627L106.765 35.0069L105.279 34.7511C105.222 35.079 105.179 35.3443 105.149 35.5423C105.128 35.6778 105.09 35.9247 105.09 36.1089H106.597ZM106.765 35.0069L108.25 35.2627C108.359 34.6288 108.486 33.9526 108.63 33.2338L107.151 32.9381L105.673 32.6425C105.525 33.3844 105.393 34.0874 105.279 34.7511L106.765 35.0069ZM107.151 32.9381L108.628 33.2404C108.776 32.5205 108.903 31.9741 109.01 31.5879L107.557 31.1852L106.105 30.7824C105.971 31.2641 105.828 31.8863 105.674 32.6358L107.151 32.9381ZM107.557 31.1852L109.007 31.5993C108.918 31.9096 108.72 32.1853 108.445 32.3686L107.609 31.1143L106.773 29.8599C106.446 30.0776 106.214 30.4006 106.108 30.771L107.557 31.1852ZM107.609 31.1143L108.357 32.4232C108.194 32.5161 107.969 32.596 107.699 32.596V31.0885V29.5809C107.369 29.5809 107.084 29.678 106.861 29.8054L107.609 31.1143ZM107.699 31.0885V32.596C107.58 32.596 107.211 32.5783 106.852 32.2876C106.432 31.9476 106.327 31.4881 106.327 31.198H107.834H109.342C109.342 30.8349 109.214 30.3206 108.749 29.9441C108.345 29.617 107.908 29.5809 107.699 29.5809V31.0885ZM107.834 31.198L106.375 30.8197C106.213 31.4449 106.006 32.4007 105.756 33.6636L107.235 33.9564L108.714 34.2491C108.962 32.9943 109.155 32.1112 109.294 31.5764L107.834 31.198ZM107.235 33.9564L105.755 33.6685C105.632 34.3035 105.537 34.8187 105.472 35.2083C105.416 35.5453 105.36 35.9153 105.36 36.1734H106.868H108.375C108.375 36.2216 108.372 36.2158 108.386 36.1027C108.398 36.0085 108.418 35.8764 108.447 35.7012C108.505 35.3519 108.594 34.8681 108.715 34.2443L107.235 33.9564ZM106.868 36.1734H105.36C105.36 36.7838 105.571 37.3831 106.033 37.857L107.113 36.805L108.192 35.7529C108.247 35.8091 108.299 35.8856 108.335 35.9764C108.369 36.0649 108.375 36.1364 108.375 36.1734H106.868ZM107.113 36.805L106.047 37.8709C106.554 38.3788 107.196 38.5574 107.783 38.5574V37.0499V35.5423C107.785 35.5423 107.838 35.5425 107.92 35.5726C108.008 35.6048 108.1 35.6606 108.179 35.739L107.113 36.805ZM107.783 37.0499V38.5574C108.354 38.5574 108.984 38.4258 109.529 38.0145L108.621 36.8114L107.712 35.6083C107.77 35.5648 107.819 35.5464 107.841 35.5403C107.859 35.5351 107.844 35.5423 107.783 35.5423V37.0499ZM108.621 36.8114L109.545 38.0027C110.008 37.6431 110.323 37.1703 110.504 36.6441L109.078 36.154L107.653 35.664C107.647 35.6813 107.646 35.6779 107.656 35.6633C107.66 35.6565 107.667 35.6486 107.674 35.6405C107.682 35.6324 107.69 35.6255 107.697 35.6201L108.621 36.8114ZM109.078 36.154L110.508 36.6308C110.675 36.1299 110.817 35.6413 110.931 35.1653L109.465 34.8135L107.999 34.4617C107.907 34.8451 107.79 35.2501 107.648 35.6773L109.078 36.154ZM109.465 34.8135L110.927 35.1792C111.04 34.7293 111.164 34.1909 111.299 33.5669L109.826 33.2475L108.353 32.9281C108.221 33.5328 108.105 34.0385 108.002 34.4479L109.465 34.8135ZM109.826 33.2475L111.288 33.6131C111.313 33.5146 111.373 33.2403 111.46 32.8382L109.987 32.5192L108.514 32.2002C108.469 32.4077 108.433 32.5701 108.407 32.6882C108.394 32.7473 108.384 32.7939 108.376 32.8287C108.372 32.8461 108.369 32.8595 108.366 32.8694C108.364 32.8801 108.363 32.8834 108.363 32.8818L109.826 33.2475ZM109.987 32.5192L111.458 32.8494C111.546 32.4562 111.639 32.0951 111.736 31.7652L110.29 31.3398L108.844 30.9144C108.726 31.3149 108.617 31.7401 108.516 32.189L109.987 32.5192ZM110.29 31.3398L111.736 31.7652C111.706 31.8693 111.639 32.0227 111.502 32.1735L110.387 31.1594L109.271 30.1453C109.048 30.3906 108.917 30.6642 108.844 30.9144L110.29 31.3398ZM110.387 31.1594L111.453 32.2254C111.409 32.2685 111.32 32.3507 111.181 32.4271C111.038 32.5056 110.809 32.596 110.515 32.596V31.0885V29.5809C109.87 29.5809 109.459 29.955 109.321 30.0934L110.387 31.1594ZM110.515 31.0885V32.596C110.343 32.596 109.933 32.5568 109.567 32.2119C109.186 31.8517 109.124 31.4166 109.124 31.198H110.631H112.139C112.139 30.9064 112.058 30.4166 111.638 30.0199C111.234 29.6384 110.766 29.5809 110.515 29.5809V31.0885ZM110.631 31.198H109.124C109.124 31.1334 109.128 31.0821 109.131 31.0546C109.134 31.024 109.137 30.9989 109.139 30.9821C109.144 30.9492 109.149 30.9234 109.152 30.9101C109.157 30.883 109.162 30.8624 109.164 30.8552C109.166 30.8458 109.168 30.8386 109.169 30.8351C109.169 30.8313 109.17 30.8286 109.17 30.8276C109.171 30.8253 109.17 30.8296 109.166 30.8447C109.158 30.8728 109.145 30.9184 109.126 30.984L110.573 31.4043L112.021 31.8246C112.041 31.757 112.057 31.7016 112.068 31.661C112.074 31.6416 112.08 31.6196 112.085 31.5991C112.088 31.5901 112.092 31.5718 112.097 31.5501C112.1 31.5404 112.105 31.5177 112.111 31.4891C112.113 31.4751 112.118 31.4486 112.123 31.4152C112.126 31.3974 112.139 31.3101 112.139 31.198H110.631ZM110.573 31.4043L109.148 30.9148C109.033 31.2471 108.936 31.5815 108.856 31.9177L110.322 32.2679L111.788 32.618C111.846 32.3785 111.916 32.1371 111.999 31.8937L110.573 31.4043ZM110.322 32.2679L108.86 31.9022C108.809 32.104 108.726 32.478 108.616 32.9977L110.09 33.3119L111.565 33.6261C111.677 33.0975 111.749 32.7754 111.785 32.6335L110.322 32.2679ZM110.09 33.3119L108.615 32.9993C108.45 33.7773 108.303 34.416 108.173 34.9202L109.633 35.2969L111.092 35.6736C111.237 35.1123 111.395 34.4276 111.565 33.6245L110.09 33.3119ZM109.633 35.2969L108.173 34.9202C108.048 35.4042 107.939 35.6748 107.871 35.7995L109.194 36.5214L110.518 37.2433C110.759 36.8008 110.942 36.2551 111.092 35.6736L109.633 35.2969ZM109.194 36.5214L107.863 35.8141C107.845 35.8486 107.834 35.8595 107.836 35.8574C107.839 35.8543 107.848 35.8454 107.863 35.837C107.877 35.8288 107.883 35.8282 107.875 35.8303C107.865 35.8327 107.834 35.8388 107.776 35.8388V37.3463V38.8538C108.317 38.8538 108.871 38.7384 109.379 38.4431C109.89 38.1455 110.266 37.7165 110.526 37.2287L109.194 36.5214Z" fill="white" mask="url(#path-11-outside-1_59346_17302)"/>
<mask id="path-13-outside-2_59346_17302" maskUnits="userSpaceOnUse" x="109.102" y="31.9122" width="7" height="7" fill="black">
<rect fill="white" x="109.102" y="31.9122" width="7" height="7"/>
<path d="M113.106 36.9509C113.037 36.9509 112.988 36.938 112.958 36.9122C112.928 36.8865 112.917 36.8413 112.925 36.7769L113.241 34.895C113.28 34.663 113.299 34.4847 113.299 34.3601C113.299 34.1539 113.241 34.0508 113.125 34.0508C112.983 34.0508 112.788 34.2978 112.539 34.7919C112.294 35.2817 112.04 35.836 111.778 36.4547L111.688 36.6609C111.611 36.8285 111.533 36.9122 111.456 36.9122C111.413 36.9122 111.385 36.9036 111.372 36.8865C111.364 36.865 111.359 36.822 111.359 36.7576C111.359 36.6931 111.443 36.1969 111.611 35.2688C111.783 34.3408 111.881 33.8531 111.907 33.8059C111.933 33.7543 111.954 33.7221 111.972 33.7092C111.993 33.6963 112.032 33.6899 112.088 33.6899C112.139 33.6899 112.18 33.7092 112.21 33.7479C112.244 33.7865 112.262 33.8252 112.262 33.8639C112.262 33.8897 112.24 33.9734 112.197 34.1152C112.068 34.5535 111.967 34.9788 111.894 35.3913L111.83 35.7715C111.903 35.6168 111.957 35.4965 111.991 35.4106C112.111 35.1313 112.221 34.8864 112.32 34.6759C112.423 34.4654 112.537 34.2699 112.661 34.0894C112.85 33.8188 113.026 33.6834 113.19 33.6834C113.478 33.6834 113.621 33.9154 113.621 34.3795C113.621 34.4783 113.609 34.605 113.583 34.7597C113.557 34.9144 113.529 35.0733 113.499 35.2366C113.439 35.5502 113.4 35.7651 113.383 35.8811L113.338 36.1775C113.299 36.4439 113.265 36.6394 113.235 36.764C113.205 36.8886 113.162 36.9509 113.106 36.9509Z"/>
</mask>
<path d="M113.106 36.9509C113.037 36.9509 112.988 36.938 112.958 36.9122C112.928 36.8865 112.917 36.8413 112.925 36.7769L113.241 34.895C113.28 34.663 113.299 34.4847 113.299 34.3601C113.299 34.1539 113.241 34.0508 113.125 34.0508C112.983 34.0508 112.788 34.2978 112.539 34.7919C112.294 35.2817 112.04 35.836 111.778 36.4547L111.688 36.6609C111.611 36.8285 111.533 36.9122 111.456 36.9122C111.413 36.9122 111.385 36.9036 111.372 36.8865C111.364 36.865 111.359 36.822 111.359 36.7576C111.359 36.6931 111.443 36.1969 111.611 35.2688C111.783 34.3408 111.881 33.8531 111.907 33.8059C111.933 33.7543 111.954 33.7221 111.972 33.7092C111.993 33.6963 112.032 33.6899 112.088 33.6899C112.139 33.6899 112.18 33.7092 112.21 33.7479C112.244 33.7865 112.262 33.8252 112.262 33.8639C112.262 33.8897 112.24 33.9734 112.197 34.1152C112.068 34.5535 111.967 34.9788 111.894 35.3913L111.83 35.7715C111.903 35.6168 111.957 35.4965 111.991 35.4106C112.111 35.1313 112.221 34.8864 112.32 34.6759C112.423 34.4654 112.537 34.2699 112.661 34.0894C112.85 33.8188 113.026 33.6834 113.19 33.6834C113.478 33.6834 113.621 33.9154 113.621 34.3795C113.621 34.4783 113.609 34.605 113.583 34.7597C113.557 34.9144 113.529 35.0733 113.499 35.2366C113.439 35.5502 113.4 35.7651 113.383 35.8811L113.338 36.1775C113.299 36.4439 113.265 36.6394 113.235 36.764C113.205 36.8886 113.162 36.9509 113.106 36.9509Z" fill="white"/>
<path d="M112.925 36.7769L111.439 36.5274L111.434 36.5525L111.431 36.5777L112.925 36.7769ZM113.241 34.895L114.728 35.1445L114.728 35.1429L113.241 34.895ZM112.539 34.7919L111.193 34.113L111.19 34.1177L112.539 34.7919ZM111.778 36.4547L113.159 37.0589L113.163 37.0508L113.166 37.0427L111.778 36.4547ZM111.688 36.6609L113.057 37.2926L113.063 37.2789L113.069 37.2651L111.688 36.6609ZM111.372 36.8865L109.973 37.4463L110.047 37.6315L110.166 37.791L111.372 36.8865ZM111.611 35.2688L110.128 34.9943L110.127 35.001L111.611 35.2688ZM111.907 33.8059L113.231 34.5278L113.244 34.5041L113.256 34.4801L111.907 33.8059ZM111.972 33.7092L111.196 32.4165L111.129 32.4565L111.067 32.5032L111.972 33.7092ZM112.21 33.7479L111.02 34.6734L111.05 34.7125L111.083 34.7494L112.21 33.7479ZM112.197 34.1152L110.754 33.678L110.751 33.6898L112.197 34.1152ZM111.894 35.3913L110.41 35.1284L110.408 35.1394L111.894 35.3913ZM111.83 35.7715L110.343 35.5196L113.193 36.4152L111.83 35.7715ZM111.991 35.4106L110.606 34.8142L110.599 34.8324L110.591 34.8507L111.991 35.4106ZM112.32 34.6759L110.966 34.0128L110.96 34.024L110.955 34.0353L112.32 34.6759ZM112.661 34.0894L111.425 33.2262L111.421 33.2329L112.661 34.0894ZM113.583 34.7597L112.096 34.5119L112.096 34.5119L113.583 34.7597ZM113.499 35.2366L114.98 35.5206L114.982 35.5097L113.499 35.2366ZM113.383 35.8811L114.873 36.1079L114.874 36.102L113.383 35.8811ZM113.338 36.1775L111.847 35.9507L111.846 35.961L113.338 36.1775ZM113.235 36.764L114.7 37.1177L114.7 37.1177L113.235 36.764ZM113.106 36.9509V35.4434C113.159 35.4434 113.264 35.4476 113.398 35.4825C113.533 35.5177 113.737 35.595 113.939 35.7676L112.958 36.9122L111.977 38.0568C112.419 38.4363 112.918 38.4584 113.106 38.4584V36.9509ZM112.958 36.9122L113.939 35.7676C114.496 36.245 114.434 36.8667 114.42 36.9761L112.925 36.7769L111.431 36.5777C111.399 36.8159 111.359 37.5279 111.977 38.0568L112.958 36.9122ZM112.925 36.7769L114.412 37.0264L114.728 35.1445L113.241 34.895L111.754 34.6455L111.439 36.5274L112.925 36.7769ZM113.241 34.895L114.728 35.1429C114.771 34.8873 114.807 34.6112 114.807 34.3601H113.299H111.792C111.792 34.3503 111.792 34.3684 111.786 34.4248C111.78 34.4782 111.77 34.5514 111.754 34.6472L113.241 34.895ZM113.299 34.3601H114.807C114.807 34.1651 114.788 33.7771 114.57 33.389C114.28 32.8745 113.741 32.5432 113.125 32.5432V34.0508V35.5583C112.924 35.5583 112.676 35.5113 112.433 35.367C112.191 35.2237 112.035 35.0325 111.942 34.8672C111.854 34.7109 111.82 34.5757 111.807 34.5026C111.792 34.4265 111.792 34.3749 111.792 34.3601H113.299ZM113.125 34.0508V32.5432C112.65 32.5432 112.302 32.7464 112.118 32.8809C111.926 33.0213 111.785 33.1805 111.69 33.3006C111.499 33.542 111.334 33.8323 111.193 34.113L112.539 34.7919L113.885 35.4708C113.935 35.3716 113.976 35.297 114.008 35.2433C114.042 35.1874 114.057 35.1677 114.054 35.1715C114.052 35.1744 114.04 35.1893 114.018 35.2116C113.997 35.2332 113.958 35.2707 113.9 35.3133C113.8 35.386 113.53 35.5583 113.125 35.5583V34.0508ZM112.539 34.7919L111.19 34.1177C110.929 34.6413 110.662 35.2251 110.39 35.8666L111.778 36.4547L113.166 37.0427C113.419 36.4469 113.659 35.9221 113.887 35.4661L112.539 34.7919ZM111.778 36.4547L110.397 35.8504L110.307 36.0566L111.688 36.6609L113.069 37.2651L113.159 37.0589L111.778 36.4547ZM111.688 36.6609L110.319 36.0291C110.32 36.0286 110.322 36.0241 110.326 36.0165C110.33 36.0089 110.336 35.9966 110.346 35.9808C110.364 35.952 110.402 35.8948 110.464 35.8269C110.575 35.7073 110.908 35.4047 111.456 35.4047V36.9122V38.4198C112.081 38.4198 112.492 38.0752 112.68 37.8719C112.871 37.6651 112.988 37.4426 113.057 37.2926L111.688 36.6609ZM111.456 36.9122V35.4047C111.521 35.4047 111.666 35.4095 111.846 35.4649C112.029 35.5212 112.335 35.6582 112.578 35.9819L111.372 36.8865L110.166 37.791C110.422 38.1319 110.749 38.2818 110.96 38.3467C111.167 38.4106 111.348 38.4198 111.456 38.4198V36.9122ZM111.372 36.8865L112.772 36.3266C112.815 36.434 112.835 36.5227 112.845 36.5707C112.855 36.623 112.86 36.6642 112.863 36.6881C112.865 36.7134 112.866 36.732 112.866 36.7416C112.867 36.7517 112.867 36.7574 112.867 36.7576H111.359H109.852C109.852 36.8181 109.854 36.899 109.863 36.9881C109.869 37.051 109.888 37.2361 109.973 37.4463L111.372 36.8865ZM111.359 36.7576H112.867C112.867 36.8203 112.863 36.8666 112.862 36.8732C112.861 36.8811 112.861 36.8869 112.86 36.89C112.86 36.8932 112.86 36.8949 112.86 36.895C112.86 36.8951 112.86 36.8941 112.86 36.892C112.86 36.8899 112.861 36.8869 112.861 36.883C112.863 36.8751 112.864 36.8646 112.866 36.8511C112.874 36.7949 112.888 36.7087 112.909 36.588C112.949 36.3484 113.011 35.999 113.094 35.5367L111.611 35.2688L110.127 35.001C110.043 35.4667 109.979 35.8294 109.936 36.0861C109.914 36.2135 109.897 36.3215 109.884 36.4055C109.881 36.4269 109.852 36.6023 109.852 36.7576H111.359ZM111.611 35.2688L113.093 35.5433C113.179 35.0817 113.244 34.7377 113.291 34.5065C113.315 34.3894 113.332 34.3116 113.342 34.2659C113.348 34.2417 113.349 34.2394 113.346 34.2505C113.344 34.2556 113.338 34.2768 113.328 34.3067C113.325 34.3177 113.293 34.4132 113.231 34.5278L111.907 33.8059L110.584 33.084C110.518 33.2044 110.483 33.3093 110.475 33.3331C110.46 33.3758 110.449 33.4132 110.442 33.4379C110.428 33.4884 110.416 33.5392 110.406 33.5819C110.385 33.6699 110.362 33.7809 110.336 33.9077C110.284 34.1641 110.215 34.5279 110.128 34.9943L111.611 35.2688ZM111.907 33.8059L113.256 34.4801C113.253 34.486 113.233 34.5249 113.197 34.5793C113.178 34.6075 113.147 34.6518 113.103 34.7036C113.061 34.7522 112.986 34.8328 112.876 34.9152L111.972 33.7092L111.067 32.5032C110.853 32.6635 110.73 32.8435 110.688 32.9068C110.631 32.9934 110.588 33.0742 110.559 33.1317L111.907 33.8059ZM111.972 33.7092L112.747 35.0019C112.531 35.1319 112.338 35.1695 112.265 35.1817C112.176 35.1965 112.111 35.1974 112.088 35.1974V33.6899V32.1823C112.019 32.1823 111.604 32.1719 111.196 32.4165L111.972 33.7092ZM112.088 33.6899V35.1974C111.922 35.1974 111.72 35.1654 111.512 35.0668C111.301 34.9671 111.137 34.8242 111.02 34.6734L112.21 33.7479L113.4 32.8223C113.067 32.3946 112.576 32.1823 112.088 32.1823V33.6899ZM112.21 33.7479L111.083 34.7494C110.956 34.6067 110.754 34.3039 110.754 33.8639H112.262H113.769C113.769 33.3465 113.532 32.9664 113.337 32.7463L112.21 33.7479ZM112.262 33.8639H110.754C110.754 33.8152 110.757 33.775 110.759 33.7472C110.761 33.7186 110.764 33.6946 110.766 33.677C110.771 33.6428 110.776 33.617 110.778 33.604C110.783 33.5785 110.787 33.5653 110.785 33.5716C110.782 33.5828 110.773 33.6156 110.754 33.678L112.197 34.1152L113.64 34.5524C113.664 34.4731 113.687 34.393 113.706 34.3205C113.715 34.2849 113.727 34.237 113.737 34.1842C113.742 34.1588 113.769 34.0266 113.769 33.8639H112.262ZM112.197 34.1152L110.751 33.6898C110.608 34.1768 110.493 34.6565 110.41 35.1284L111.894 35.3913L113.379 35.6541C113.441 35.3012 113.529 34.9302 113.643 34.5406L112.197 34.1152ZM111.894 35.3913L110.408 35.1394L110.343 35.5196L111.83 35.7715L113.316 36.0234L113.381 35.6432L111.894 35.3913ZM111.83 35.7715L113.193 36.4152C113.27 36.2519 113.339 36.0991 113.391 35.9705L111.991 35.4106L110.591 34.8507C110.574 34.894 110.536 34.9818 110.467 35.1278L111.83 35.7715ZM111.991 35.4106L113.375 36.007C113.491 35.7384 113.594 35.5088 113.684 35.3165L112.32 34.6759L110.955 34.0353C110.848 34.2641 110.731 34.5243 110.606 34.8142L111.991 35.4106ZM112.32 34.6759L113.673 35.339C113.746 35.1911 113.822 35.0608 113.902 34.946L112.661 34.0894L111.421 33.2329C111.251 33.479 111.1 33.7396 110.966 34.0128L112.32 34.6759ZM112.661 34.0894L113.897 34.9526C113.942 34.8884 113.932 34.9205 113.854 34.9804C113.772 35.0429 113.542 35.191 113.19 35.191V33.6834V32.1759C112.674 32.1759 112.274 32.3916 112.017 32.5895C111.762 32.7847 111.569 33.0198 111.425 33.2262L112.661 34.0894ZM113.19 33.6834V35.191C113.056 35.191 112.866 35.1628 112.665 35.0549C112.461 34.9451 112.319 34.7924 112.232 34.6522C112.086 34.4156 112.114 34.2544 112.114 34.3795H113.621H115.129C115.129 34.0405 115.085 33.5312 114.795 33.0627C114.43 32.4751 113.821 32.1759 113.19 32.1759V33.6834ZM113.621 34.3795H112.114C112.114 34.3658 112.115 34.3698 112.112 34.3961C112.109 34.4213 112.105 34.4593 112.096 34.5119L113.583 34.7597L115.07 35.0075C115.102 34.8125 115.129 34.5949 115.129 34.3795H113.621ZM113.583 34.7597L112.096 34.5119C112.071 34.6576 112.045 34.8082 112.016 34.9635L113.499 35.2366L114.982 35.5097C115.013 35.3385 115.043 35.1711 115.07 35.0075L113.583 34.7597ZM113.499 35.2366L112.018 34.9527C111.959 35.2634 111.914 35.5081 111.892 35.6601L113.383 35.8811L114.874 36.102C114.886 36.0221 114.919 35.8371 114.98 35.5205L113.499 35.2366ZM113.383 35.8811L111.893 35.6543L111.848 35.9507L113.338 36.1775L114.828 36.4043L114.873 36.1079L113.383 35.8811ZM113.338 36.1775L111.846 35.961C111.808 36.2198 111.782 36.3574 111.769 36.4103L113.235 36.764L114.7 37.1177C114.748 36.9214 114.79 36.668 114.83 36.3941L113.338 36.1775ZM113.235 36.764L111.769 36.4103C111.772 36.3999 111.807 36.2393 111.939 36.0483C112.09 35.83 112.473 35.4434 113.106 35.4434V36.9509V38.4584C113.795 38.4584 114.227 38.0407 114.421 37.7601C114.596 37.5067 114.668 37.2527 114.7 37.1177L113.235 36.764Z" fill="white" mask="url(#path-13-outside-2_59346_17302)"/>
<path fill-rule="evenodd" clip-rule="evenodd" d="M117.274 34.8535C117.469 35.0095 117.613 35.2208 117.685 35.4613C117.721 35.5799 117.751 35.709 117.777 35.8483C117.777 35.8496 117.777 35.8508 117.777 35.8521C117.806 36.013 117.821 36.1778 117.821 36.3471C117.821 36.4136 117.818 36.4764 117.814 36.5352C117.81 36.5874 117.805 36.6427 117.797 36.702C117.742 37.1492 117.443 37.531 117.017 37.6984C116.873 37.7547 116.688 37.8059 116.456 37.8392C116.289 37.8632 116.104 37.8763 115.902 37.8763C115.229 37.8763 114.714 37.6719 114.331 37.3481C113.905 36.99 113.617 36.4546 113.617 35.6835C113.617 35.5681 113.625 35.447 113.641 35.3234C113.653 35.2324 113.668 35.137 113.686 35.0372C113.687 35.032 113.688 35.0268 113.689 35.0216L114.154 32.6585C114.155 32.6531 114.156 32.6474 114.158 32.6417C114.2 32.4398 114.231 32.2638 114.249 32.1128C114.263 31.9865 114.272 31.8799 114.272 31.7932C114.272 31.7739 114.272 31.7576 114.271 31.745C114.27 31.7287 114.269 31.7104 114.266 31.6909C114.191 31.0438 114.642 30.4513 115.296 30.3381C115.414 30.3176 115.55 30.3013 115.704 30.2909C115.84 30.2818 115.958 30.2778 116.057 30.2778C116.257 30.2778 116.479 30.2964 116.721 30.3372C117.177 30.414 117.554 30.7316 117.7 31.1632C117.758 31.3352 117.799 31.5505 117.799 31.8139C117.799 31.9632 117.787 32.1335 117.758 32.3246C117.737 32.464 117.711 32.6162 117.679 32.7811L117.274 34.8535ZM115.388 32.8921C115.439 32.6479 115.476 32.4348 115.497 32.2526C115.518 32.071 115.529 31.9177 115.529 31.7932C115.529 31.7428 115.527 31.7 115.525 31.6654C115.523 31.631 115.519 31.5927 115.514 31.5515C115.594 31.5376 115.686 31.5272 115.789 31.5203C115.892 31.5134 115.982 31.5099 116.057 31.5099C116.193 31.5099 116.344 31.5238 116.508 31.5515C116.531 31.6207 116.543 31.7079 116.543 31.8139C116.543 31.9108 116.534 32.0213 116.515 32.1456C116.496 32.2702 116.473 32.4061 116.444 32.5534L115.902 35.3313C115.888 35.4094 115.881 35.4739 115.881 35.5246C115.881 35.5985 115.891 35.6561 115.912 35.6976C115.934 35.7389 115.961 35.7712 115.994 35.7942C116.027 35.8172 116.064 35.8323 116.106 35.839C116.149 35.8461 116.191 35.8493 116.233 35.8493C116.252 35.8493 116.287 35.8461 116.339 35.839C116.39 35.8323 116.437 35.8219 116.48 35.8081C116.503 35.8864 116.523 35.9717 116.54 36.0636C116.556 36.1558 116.564 36.2502 116.564 36.3471C116.564 36.3837 116.563 36.4183 116.561 36.4507C116.559 36.4831 116.555 36.5174 116.55 36.5542C116.48 36.5819 116.388 36.6037 116.275 36.62C116.163 36.6361 116.038 36.6442 115.902 36.6442C115.583 36.6442 115.331 36.5671 115.148 36.4126C114.965 36.2584 114.873 36.0154 114.873 35.6835C114.873 35.619 114.878 35.5513 114.888 35.4798C114.897 35.4084 114.908 35.3335 114.923 35.2552L115.388 32.8921Z" fill="white"/>
<path d="M118.118 32.4289C118.113 32.2678 118.124 32.1145 118.15 31.9692C118.175 31.8241 118.216 31.6711 118.273 31.5097C118.357 31.4915 118.447 31.4788 118.541 31.4719C118.634 31.4648 118.719 31.4615 118.794 31.4615C118.869 31.4615 118.953 31.4648 119.044 31.4719C119.136 31.4788 119.222 31.4915 119.302 31.5097C119.302 31.6711 119.287 31.8254 119.259 31.9729C119.231 32.1202 119.189 32.2722 119.132 32.4289C119.048 32.4428 118.96 32.4519 118.868 32.4566C118.777 32.4611 118.693 32.4633 118.618 32.4633C118.548 32.4633 118.465 32.4611 118.372 32.4566C118.278 32.4519 118.193 32.4428 118.118 32.4289ZM117.914 33.7765H117.47C117.47 33.7624 117.468 33.7488 117.466 33.7349C117.464 33.7211 117.463 33.705 117.463 33.6865C117.463 33.5669 117.474 33.4549 117.498 33.3513C117.521 33.2475 117.556 33.1405 117.604 33.03H119.027L118.386 36.6025C118.207 36.6302 118.038 36.644 117.878 36.644C117.733 36.644 117.575 36.6302 117.406 36.6025L117.914 33.7765Z" stroke="white" stroke-width="1.25747" stroke-miterlimit="1.5" stroke-linecap="square" stroke-linejoin="round"/>
<path fill-rule="evenodd" clip-rule="evenodd" d="M123.356 31.9316C123.678 31.7915 124.02 31.722 124.38 31.722C125.052 31.722 125.54 31.9415 125.887 32.2646C126.23 32.5849 126.496 33.0881 126.496 33.8387C126.496 34.0651 126.474 34.3054 126.428 34.5506L126.019 36.817C125.926 37.3348 125.508 37.7375 124.978 37.8195C124.732 37.8578 124.495 37.8761 124.268 37.8761C124.029 37.8761 123.794 37.8558 123.563 37.8158C123.458 37.7978 123.359 37.7674 123.267 37.7266C123.167 37.7706 123.061 37.8022 122.949 37.8195C122.703 37.8578 122.466 37.8761 122.239 37.8761C122.001 37.8761 121.766 37.8561 121.534 37.8158C121.428 37.7975 121.326 37.7661 121.231 37.7229C121.128 37.7698 121.017 37.8027 120.901 37.8203C120.65 37.8583 120.415 37.8761 120.196 37.8761C119.957 37.8761 119.723 37.8561 119.491 37.8158C119.161 37.7587 118.869 37.5751 118.678 37.3057C118.487 37.0363 118.413 36.7033 118.474 36.3805L118.853 34.3494C118.899 34.0879 118.935 33.857 118.958 33.6544C118.977 33.4905 118.989 33.3632 118.989 33.272V33.1603C118.919 32.5196 119.365 31.9349 120.011 31.8184C120.241 31.7769 120.472 31.7566 120.703 31.7566C120.816 31.7566 120.93 31.7618 121.035 31.7727C121.138 31.7824 121.247 31.7972 121.363 31.8177C121.416 31.8271 121.469 31.8399 121.52 31.8565C121.782 31.7668 122.06 31.722 122.351 31.722C122.749 31.722 123.081 31.8011 123.356 31.9316ZM120.09 34.5642C120.142 34.2737 120.18 34.0172 120.206 33.7938C120.232 33.5701 120.245 33.3963 120.245 33.272V33.1442C120.245 33.1096 120.242 33.0715 120.238 33.0303C120.393 33.0023 120.548 32.9887 120.703 32.9887C120.773 32.9887 120.844 32.992 120.914 32.9991C120.985 33.0058 121.06 33.0162 121.14 33.0303C121.149 33.0668 121.158 33.1106 121.168 33.1613C121.177 33.2119 121.182 33.2881 121.182 33.3894C121.182 33.4309 121.181 33.4724 121.178 33.5137C121.176 33.5552 121.17 33.6059 121.161 33.6657C121.269 33.4677 121.43 33.2997 121.643 33.1613C121.857 33.0231 122.093 32.9541 122.351 32.9541C122.6 32.9541 122.794 33.0083 122.933 33.1165C123.071 33.2248 123.155 33.4032 123.183 33.6519C123.295 33.4586 123.46 33.2937 123.676 33.1581C123.892 33.0221 124.127 32.9541 124.38 32.9541C124.662 32.9541 124.876 33.0221 125.022 33.1581C125.167 33.2937 125.24 33.5206 125.24 33.8387C125.24 33.9952 125.223 34.161 125.191 34.336L124.782 36.6025C124.604 36.6302 124.432 36.644 124.268 36.644C124.103 36.644 123.941 36.6302 123.782 36.6025L124.176 34.4121C124.195 34.3061 124.204 34.207 124.204 34.1148C124.204 33.9905 124.179 33.903 124.127 33.8523C124.075 33.8017 123.995 33.7764 123.887 33.7764C123.822 33.7764 123.75 33.7925 123.672 33.8246C123.595 33.857 123.516 33.9193 123.436 34.0113C123.357 34.1034 123.282 34.23 123.211 34.3914C123.141 34.5525 123.082 34.7621 123.035 35.0202L122.753 36.6025C122.575 36.6302 122.403 36.644 122.239 36.644C122.074 36.644 121.912 36.6302 121.753 36.6025L122.147 34.4121C122.166 34.3061 122.175 34.207 122.175 34.1148C122.175 33.9905 122.15 33.903 122.098 33.8523C122.046 33.8017 121.966 33.7764 121.858 33.7764C121.792 33.7764 121.72 33.7925 121.64 33.8246C121.56 33.857 121.48 33.925 121.4 34.0286C121.32 34.1324 121.243 34.2787 121.168 34.4675C121.093 34.6563 121.027 34.905 120.971 35.2137L120.71 36.6025C120.527 36.6302 120.355 36.644 120.196 36.644C120.031 36.644 119.869 36.6302 119.709 36.6025L120.09 34.5642Z" fill="white"/>
<path d="M126.954 32.4289C126.949 32.2678 126.96 32.1145 126.986 31.9692C127.011 31.8241 127.053 31.6711 127.109 31.5097C127.193 31.4915 127.283 31.4788 127.376 31.4719C127.47 31.4648 127.555 31.4615 127.63 31.4615C127.705 31.4615 127.789 31.4648 127.88 31.4719C127.972 31.4788 128.058 31.4915 128.137 31.5097C128.137 31.6711 128.123 31.8254 128.095 31.9729C128.067 32.1202 128.025 32.2722 127.968 32.4289C127.884 32.4428 127.796 32.4519 127.704 32.4566C127.613 32.4611 127.529 32.4633 127.454 32.4633C127.384 32.4633 127.301 32.4611 127.208 32.4566C127.114 32.4519 127.029 32.4428 126.954 32.4289ZM126.75 33.7765H126.306C126.306 33.7624 126.304 33.7488 126.302 33.7349C126.3 33.7211 126.299 33.705 126.299 33.6865C126.299 33.5669 126.31 33.4549 126.334 33.3513C126.357 33.2475 126.393 33.1405 126.44 33.03H127.863L127.222 36.6025C127.043 36.6302 126.874 36.644 126.714 36.644C126.569 36.644 126.411 36.6302 126.242 36.6025L126.75 33.7765Z" stroke="white" stroke-width="1.25747" stroke-miterlimit="1.5" stroke-linecap="square" stroke-linejoin="round"/>
<path fill-rule="evenodd" clip-rule="evenodd" d="M128.141 31.941C128.215 31.6414 128.404 31.3762 128.674 31.2037C128.92 31.0455 129.225 30.9224 129.597 30.8567C129.86 30.8104 130.103 30.7892 130.325 30.7892C130.866 30.7892 131.346 31.1285 131.517 31.6318C131.543 31.7062 131.565 31.7892 131.581 31.8809C132.051 32.0586 132.385 32.5062 132.385 33.0302C132.385 33.2561 132.364 33.463 132.325 33.6513C132.293 33.8092 132.249 33.9768 132.191 34.1538C132.076 34.503 131.813 34.7749 131.483 34.9116C131.6 35.0196 131.698 35.1511 131.767 35.3023C131.888 35.5653 131.969 35.9064 131.969 36.333V36.4435C131.969 36.53 131.964 36.616 131.953 36.702C131.893 37.1877 131.546 37.5925 131.069 37.7339C130.765 37.8236 130.403 37.876 129.98 37.876C129.234 37.876 128.698 37.6781 128.34 37.4087C127.881 37.0644 127.561 36.5233 127.561 35.7112C127.561 35.593 127.569 35.4709 127.585 35.3451C127.596 35.2591 127.61 35.1649 127.626 35.0626C127.627 35.0549 127.629 35.0473 127.63 35.0399L127.702 34.6454C127.476 34.4225 127.336 34.1155 127.336 33.7764C127.336 33.5878 127.35 33.4032 127.379 33.2215C127.41 33.023 127.466 32.8122 127.552 32.591C127.664 32.305 127.876 32.0771 128.141 31.941ZM129.135 33.7764H128.592C128.592 33.6518 128.601 33.53 128.62 33.4101C128.639 33.2905 128.674 33.1637 128.726 33.0302H129.269L129.311 32.8228C129.334 32.7076 129.348 32.5982 129.353 32.4946C129.358 32.3908 129.36 32.3045 129.36 32.2353C129.482 32.1572 129.635 32.1019 129.818 32.0695C130.001 32.0373 130.17 32.0213 130.325 32.0213C130.349 32.0902 130.361 32.178 130.361 32.2838C130.361 32.3577 130.355 32.4368 130.343 32.522C130.331 32.6075 130.316 32.7007 130.297 32.8021L130.255 33.0302H131.129C131.129 33.1684 131.117 33.2949 131.093 33.4101C131.07 33.5253 131.037 33.6474 130.995 33.7764H130.121L129.874 35.1377C129.865 35.202 129.857 35.2621 129.85 35.3172C129.843 35.3725 129.839 35.4254 129.839 35.4761C129.839 35.596 129.868 35.6904 129.924 35.7593C129.98 35.8286 130.086 35.8632 130.241 35.8632C130.321 35.8632 130.391 35.8575 130.452 35.8459C130.513 35.8342 130.57 35.8216 130.621 35.808C130.682 35.9415 130.713 36.1165 130.713 36.333V36.4435C130.713 36.4806 130.71 36.5174 130.706 36.5542C130.504 36.614 130.262 36.6439 129.98 36.6439C129.586 36.6439 129.293 36.5728 129.103 36.4296C128.913 36.287 128.818 36.0475 128.818 35.7112C128.818 35.6419 128.822 35.5705 128.832 35.4969C128.841 35.4232 128.853 35.3426 128.867 35.2551L129.135 33.7764Z" fill="white"/>
<path fill-rule="evenodd" clip-rule="evenodd" d="M135.469 35.3061C135.541 35.4541 135.595 35.6163 135.63 35.7932C135.67 35.9974 135.691 36.2142 135.691 36.4435C135.691 36.9198 135.411 37.3536 134.972 37.5572C134.838 37.6198 134.682 37.6776 134.505 37.7278C134.362 37.7681 134.214 37.8024 134.06 37.8308C133.914 37.8578 133.768 37.8785 133.622 37.8936C133.46 37.9102 133.315 37.9176 133.188 37.9176C132.741 37.9176 132.359 37.8541 132.043 37.7468C131.65 37.6141 131.329 37.4181 131.072 37.1751C130.796 36.9136 130.59 36.5978 130.46 36.2243C130.354 35.922 130.297 35.5881 130.297 35.2206C130.297 34.7997 130.37 34.3852 130.518 33.9778C130.667 33.5668 130.879 33.2003 131.153 32.8765C131.441 32.5347 131.793 32.2574 132.208 32.0485C132.64 31.8305 133.123 31.7151 133.66 31.7151C133.936 31.7151 134.194 31.7502 134.434 31.8164C134.736 31.9 134.995 32.0315 135.218 32.2027C135.465 32.3931 135.658 32.6259 135.797 32.8997C135.935 33.1684 136.015 33.4798 136.015 33.8387C136.015 34.3014 135.891 34.6991 135.67 35.0399C135.61 35.1331 135.543 35.2221 135.469 35.3061ZM132.532 35.248C132.561 35.4692 132.636 35.6341 132.758 35.7421C132.88 35.8506 133.059 35.9047 133.293 35.9047C133.481 35.9047 133.647 35.8849 133.79 35.8459C133.933 35.8068 134.085 35.7549 134.244 35.6904C134.32 35.7824 134.37 35.8943 134.396 36.0256C134.422 36.1568 134.435 36.2962 134.435 36.4435C134.355 36.4806 134.262 36.514 134.156 36.5439C134.051 36.5738 133.941 36.599 133.829 36.6198C133.716 36.6405 133.603 36.6566 133.49 36.6682C133.378 36.6798 133.277 36.6855 133.188 36.6855C132.901 36.6855 132.656 36.6509 132.451 36.5817C132.247 36.5127 132.078 36.4149 131.944 36.2881C131.81 36.1613 131.712 36.007 131.648 35.8251C131.585 35.6432 131.553 35.4418 131.553 35.2206C131.553 34.9396 131.602 34.663 131.701 34.3913C131.8 34.1195 131.939 33.8765 132.12 33.6622C132.301 33.4482 132.522 33.2754 132.783 33.1442C133.043 33.0127 133.336 32.9472 133.66 32.9472C133.815 32.9472 133.959 32.9655 134.093 33.0023C134.227 33.0394 134.343 33.0957 134.441 33.1716C134.54 33.2477 134.618 33.3409 134.674 33.4516C134.731 33.5621 134.759 33.6911 134.759 33.8387C134.759 34.0458 134.709 34.2255 134.611 34.3775C134.512 34.5295 134.381 34.6585 134.216 34.7646C134.052 34.8703 133.865 34.9569 133.656 35.0236C133.447 35.0903 133.23 35.14 133.005 35.1721L132.532 35.248ZM132.934 34.5434C133.112 34.5157 133.258 34.4801 133.371 34.4363C133.484 34.3926 133.573 34.3441 133.638 34.2912C133.704 34.2381 133.749 34.184 133.772 34.1286C133.796 34.0735 133.808 34.0181 133.808 33.963C133.808 33.8753 133.778 33.8038 133.72 33.7487C133.661 33.6934 133.582 33.6657 133.484 33.6657C133.361 33.6657 133.25 33.6924 133.149 33.7453C133.048 33.7982 132.96 33.8686 132.885 33.9561C132.81 34.0433 132.745 34.1437 132.691 34.2566C132.637 34.3694 132.596 34.4833 132.568 34.5985L132.934 34.5434Z" fill="white"/>
<path fill-rule="evenodd" clip-rule="evenodd" d="M136.936 31.8199L136.936 31.7531C136.934 31.7321 136.932 31.7086 136.929 31.6834C136.858 31.0393 137.309 30.4513 137.959 30.3381C138.078 30.3176 138.214 30.3013 138.367 30.2909C138.504 30.2818 138.622 30.2778 138.721 30.2778C138.922 30.2778 139.143 30.2961 139.386 30.3374C139.842 30.4148 140.217 30.7314 140.363 31.1619C140.422 31.3335 140.463 31.5497 140.463 31.8139C140.463 32.0796 140.43 32.4029 140.359 32.7709L139.902 35.2685C139.856 35.5261 139.822 35.7542 139.801 35.9512C139.784 36.1207 139.773 36.2525 139.773 36.3469V36.4576C139.843 37.098 139.398 37.684 138.751 37.8004C138.519 37.8422 138.291 37.8622 138.066 37.8622C137.868 37.8622 137.648 37.8437 137.408 37.8017C137.344 37.7903 137.281 37.7742 137.221 37.7535C137.185 37.7673 137.148 37.7799 137.111 37.792C136.859 37.8746 136.592 37.9176 136.311 37.9176C135.553 37.9176 135.006 37.6301 134.626 37.1563C134.315 36.7683 134.125 36.2661 134.125 35.6284C134.125 35.1526 134.198 34.6924 134.344 34.2497C134.5 33.7734 134.734 33.3525 135.043 32.986C135.363 32.6046 135.759 32.2966 136.236 32.066C136.453 31.9612 136.686 31.8784 136.936 31.8199ZM138.665 35.0547C138.613 35.3449 138.575 35.6017 138.552 35.8251C138.528 36.0486 138.516 36.2226 138.516 36.3469V36.4747C138.516 36.5093 138.519 36.5473 138.524 36.5886C138.369 36.6165 138.216 36.6301 138.066 36.6301C137.934 36.6301 137.788 36.6165 137.629 36.5886C137.619 36.552 137.61 36.5083 137.601 36.4576C137.591 36.4067 137.586 36.3308 137.586 36.2295C137.586 36.1879 137.588 36.1395 137.59 36.0844C137.592 36.029 137.598 35.9714 137.608 35.9116C137.542 36.0177 137.463 36.1178 137.371 36.2122C137.28 36.3066 137.179 36.3884 137.069 36.4576C136.958 36.5266 136.84 36.5819 136.713 36.6232C136.586 36.6647 136.452 36.6855 136.311 36.6855C136.001 36.6855 135.769 36.5886 135.614 36.3953C135.459 36.2018 135.381 35.9462 135.381 35.6284C135.381 35.2828 135.434 34.9487 135.54 34.6264C135.646 34.3038 135.803 34.0181 136.012 33.7695C136.221 33.5208 136.48 33.3216 136.79 33.1716C137.1 33.0221 137.462 32.9472 137.875 32.9472C137.908 32.9472 137.94 32.9484 137.97 32.9506C138.001 32.9529 138.028 32.9541 138.052 32.9541C138.103 32.6825 138.14 32.4521 138.161 32.263C138.182 32.0742 138.193 31.9177 138.193 31.7932C138.193 31.7425 138.191 31.7 138.189 31.6654C138.186 31.6308 138.183 31.5927 138.178 31.5515C138.258 31.5376 138.35 31.5272 138.453 31.5203C138.556 31.5134 138.646 31.5099 138.721 31.5099C138.857 31.5099 139.007 31.5235 139.172 31.5515C139.195 31.6204 139.207 31.7079 139.207 31.8139C139.207 32.0166 139.179 32.263 139.122 32.5532L138.665 35.0547ZM137.911 33.7695C137.868 33.7603 137.827 33.7544 137.787 33.7522C137.747 33.75 137.709 33.7487 137.671 33.7487C137.446 33.7487 137.254 33.8041 137.097 33.9146C136.94 34.0253 136.809 34.1635 136.706 34.3293C136.602 34.4951 136.527 34.6736 136.48 34.8646C136.433 35.056 136.41 35.2297 136.41 35.3864C136.41 35.7272 136.525 35.8978 136.755 35.8978C136.981 35.8978 137.19 35.7631 137.382 35.4937C137.575 35.224 137.716 34.8451 137.805 34.3567L137.911 33.7695Z" fill="white"/>
<mask id="path-22-outside-3_59346_17302" maskUnits="userSpaceOnUse" x="105.281" y="30.2819" width="6" height="8" fill="black">
<rect fill="white" x="105.281" y="30.2819" width="6" height="8"/>
<path d="M107.776 37.3463C107.549 37.3463 107.345 37.2905 107.164 37.1787C106.984 37.067 106.844 36.9167 106.745 36.7276C106.646 36.5386 106.597 36.3323 106.597 36.1089C106.597 36.023 106.653 35.6556 106.765 35.0069C106.876 34.3581 107.005 33.6685 107.151 32.9381C107.302 32.2034 107.437 31.6191 107.557 31.1852C107.566 31.1551 107.583 31.1314 107.609 31.1143C107.639 31.0971 107.669 31.0885 107.699 31.0885C107.789 31.0885 107.834 31.125 107.834 31.198C107.684 31.7781 107.484 32.6975 107.235 33.9564C106.99 35.2153 106.868 35.9542 106.868 36.1734C106.868 36.4269 106.949 36.6374 107.113 36.805C107.276 36.9682 107.499 37.0499 107.783 37.0499C108.131 37.0499 108.41 36.9704 108.621 36.8114C108.831 36.6481 108.984 36.429 109.078 36.154C109.233 35.69 109.362 35.2432 109.465 34.8135C109.572 34.3839 109.693 33.8619 109.826 33.2475C109.843 33.1787 109.897 32.936 109.987 32.5192C110.081 32.0982 110.182 31.705 110.29 31.3398C110.311 31.2668 110.344 31.2066 110.387 31.1594C110.434 31.1121 110.477 31.0885 110.515 31.0885C110.593 31.0885 110.631 31.125 110.631 31.198C110.631 31.2023 110.612 31.2711 110.573 31.4043C110.475 31.6921 110.391 31.98 110.322 32.2679C110.279 32.4397 110.202 32.7877 110.09 33.3119C109.923 34.1025 109.77 34.7641 109.633 35.2969C109.495 35.8296 109.349 36.2378 109.194 36.5214C108.902 37.0713 108.429 37.3463 107.776 37.3463Z"/>
</mask>
<path d="M107.776 37.3463C107.549 37.3463 107.345 37.2905 107.164 37.1787C106.984 37.067 106.844 36.9167 106.745 36.7276C106.646 36.5386 106.597 36.3323 106.597 36.1089C106.597 36.023 106.653 35.6556 106.765 35.0069C106.876 34.3581 107.005 33.6685 107.151 32.9381C107.302 32.2034 107.437 31.6191 107.557 31.1852C107.566 31.1551 107.583 31.1314 107.609 31.1143C107.639 31.0971 107.669 31.0885 107.699 31.0885C107.789 31.0885 107.834 31.125 107.834 31.198C107.684 31.7781 107.484 32.6975 107.235 33.9564C106.99 35.2153 106.868 35.9542 106.868 36.1734C106.868 36.4269 106.949 36.6374 107.113 36.805C107.276 36.9682 107.499 37.0499 107.783 37.0499C108.131 37.0499 108.41 36.9704 108.621 36.8114C108.831 36.6481 108.984 36.429 109.078 36.154C109.233 35.69 109.362 35.2432 109.465 34.8135C109.572 34.3839 109.693 33.8619 109.826 33.2475C109.843 33.1787 109.897 32.936 109.987 32.5192C110.081 32.0982 110.182 31.705 110.29 31.3398C110.311 31.2668 110.344 31.2066 110.387 31.1594C110.434 31.1121 110.477 31.0885 110.515 31.0885C110.593 31.0885 110.631 31.125 110.631 31.198C110.631 31.2023 110.612 31.2711 110.573 31.4043C110.475 31.6921 110.391 31.98 110.322 32.2679C110.279 32.4397 110.202 32.7877 110.09 33.3119C109.923 34.1025 109.77 34.7641 109.633 35.2969C109.495 35.8296 109.349 36.2378 109.194 36.5214C108.902 37.0713 108.429 37.3463 107.776 37.3463Z" fill="#797B79"/>
<path d="M107.164 37.1787L107.375 36.8386L107.375 36.8386L107.164 37.1787ZM106.745 36.7276L106.391 36.9129L106.391 36.9129L106.745 36.7276ZM106.765 35.0069L106.37 34.939L106.37 34.939L106.765 35.0069ZM107.151 32.9381L106.759 32.8579L106.759 32.8597L107.151 32.9381ZM107.557 31.1852L107.173 31.0753L107.172 31.0783L107.557 31.1852ZM107.609 31.1143L107.41 30.767L107.398 30.7738L107.387 30.7814L107.609 31.1143ZM107.834 31.198L108.222 31.2984L108.234 31.249V31.198H107.834ZM107.235 33.9564L106.843 33.8787L106.842 33.88L107.235 33.9564ZM107.113 36.805L106.826 37.0841L106.83 37.0878L107.113 36.805ZM108.621 36.8114L108.862 37.1306L108.866 37.1275L108.621 36.8114ZM109.078 36.154L109.457 36.2841L109.458 36.2805L109.078 36.154ZM109.465 34.8135L109.077 34.7165L109.076 34.7202L109.465 34.8135ZM109.826 33.2475L109.438 33.1504L109.435 33.1627L109.826 33.2475ZM109.987 32.5192L109.597 32.4316L109.596 32.4346L109.987 32.5192ZM110.29 31.3398L110.674 31.4527L110.674 31.4527L110.29 31.3398ZM110.387 31.1594L110.104 30.8765L110.097 30.8833L110.091 30.8903L110.387 31.1594ZM110.573 31.4043L110.952 31.5341L110.955 31.525L110.958 31.5158L110.573 31.4043ZM110.322 32.2679L110.71 32.3649L110.711 32.3608L110.322 32.2679ZM110.09 33.3119L109.699 33.2285L109.699 33.229L110.09 33.3119ZM109.633 35.2969L109.245 35.1969L109.245 35.1969L109.633 35.2969ZM109.194 36.5214L108.843 36.3298L108.841 36.3337L109.194 36.5214ZM107.776 37.3463V36.9463C107.617 36.9463 107.487 36.9083 107.375 36.8386L107.164 37.1787L106.954 37.5189C107.202 37.6726 107.48 37.7463 107.776 37.7463V37.3463ZM107.164 37.1787L107.375 36.8386C107.256 36.7649 107.166 36.6681 107.1 36.5423L106.745 36.7276L106.391 36.9129C106.523 37.1652 106.712 37.3692 106.954 37.5189L107.164 37.1787ZM106.745 36.7276L107.1 36.5423C107.032 36.4132 106.997 36.271 106.997 36.1089H106.597H106.197C106.197 36.3937 106.261 36.6639 106.391 36.9129L106.745 36.7276ZM106.597 36.1089H106.997C106.997 36.1153 106.997 36.0991 107.005 36.0406C107.011 35.9893 107.021 35.9192 107.034 35.8291C107.062 35.6492 107.103 35.3982 107.159 35.0747L106.765 35.0069L106.37 34.939C106.314 35.2643 106.272 35.5213 106.243 35.7088C106.217 35.8797 106.197 36.0285 106.197 36.1089H106.597ZM106.765 35.0069L107.159 35.0747C107.27 34.4299 107.398 33.7439 107.544 33.0166L107.151 32.9381L106.759 32.8597C106.612 33.5931 106.483 34.2863 106.37 34.939L106.765 35.0069ZM107.151 32.9381L107.543 33.0183C107.693 32.2875 107.826 31.7133 107.943 31.292L107.557 31.1852L107.172 31.0783C107.048 31.5249 106.911 32.1193 106.759 32.8579L107.151 32.9381ZM107.557 31.1852L107.942 31.295C107.934 31.3219 107.921 31.3515 107.9 31.3801C107.879 31.4089 107.855 31.431 107.831 31.4471L107.609 31.1143L107.387 30.7814C107.281 30.8518 107.207 30.9549 107.173 31.0753L107.557 31.1852ZM107.609 31.1143L107.807 31.4616C107.786 31.4736 107.749 31.4885 107.699 31.4885V31.0885V30.6885C107.589 30.6885 107.492 30.7205 107.41 30.767L107.609 31.1143ZM107.699 31.0885V31.4885C107.696 31.4885 107.679 31.4883 107.654 31.4815C107.628 31.4745 107.589 31.4592 107.549 31.4268C107.454 31.35 107.434 31.2482 107.434 31.198H107.834H108.234C108.234 31.0749 108.192 30.9183 108.052 30.805C107.928 30.7047 107.788 30.6885 107.699 30.6885V31.0885ZM107.834 31.198L107.447 31.0977C107.294 31.6897 107.092 32.6188 106.843 33.8787L107.235 33.9564L107.627 34.0341C107.876 32.7763 108.074 31.8665 108.222 31.2984L107.834 31.198ZM107.235 33.9564L106.842 33.88C106.72 34.5109 106.627 35.0145 106.565 35.3894C106.505 35.7503 106.468 36.0244 106.468 36.1734H106.868H107.268C107.268 36.1032 107.292 35.8983 107.354 35.5202C107.415 35.156 107.506 34.6607 107.628 34.0328L107.235 33.9564ZM106.868 36.1734H106.468C106.468 36.5216 106.584 36.8353 106.826 37.0841L107.113 36.805L107.399 36.5258C107.315 36.4395 107.268 36.3321 107.268 36.1734H106.868ZM107.113 36.805L106.83 37.0878C107.084 37.3425 107.419 37.4499 107.783 37.4499V37.0499V36.6499C107.58 36.6499 107.467 36.5939 107.395 36.5221L107.113 36.805ZM107.783 37.0499V37.4499C108.19 37.4499 108.563 37.3565 108.862 37.1306L108.621 36.8114L108.38 36.4922C108.258 36.5842 108.072 36.6499 107.783 36.6499V37.0499ZM108.621 36.8114L108.866 37.1275C109.144 36.9121 109.339 36.6257 109.457 36.2841L109.078 36.154L108.7 36.024C108.628 36.2323 108.519 36.3841 108.376 36.4953L108.621 36.8114ZM109.078 36.154L109.458 36.2805C109.616 35.8067 109.748 35.3488 109.854 34.9069L109.465 34.8135L109.076 34.7202C108.976 35.1375 108.85 35.5733 108.699 36.0275L109.078 36.154ZM109.465 34.8135L109.853 34.9105C109.962 34.4755 110.083 33.9492 110.217 33.3322L109.826 33.2475L109.435 33.1627C109.302 33.7746 109.183 34.2922 109.077 34.7165L109.465 34.8135ZM109.826 33.2475L110.214 33.3445C110.233 33.2678 110.289 33.0167 110.378 32.6038L109.987 32.5192L109.596 32.4346C109.505 32.8552 109.453 33.0896 109.438 33.1504L109.826 33.2475ZM109.987 32.5192L110.377 32.6068C110.47 32.1932 110.569 31.8085 110.674 31.4527L110.29 31.3398L109.906 31.227C109.796 31.6015 109.693 32.0032 109.597 32.4316L109.987 32.5192ZM110.29 31.3398L110.674 31.4527C110.681 31.4267 110.687 31.4232 110.683 31.4284L110.387 31.1594L110.091 30.8903C110 30.9901 109.941 31.1069 109.906 31.227L110.29 31.3398ZM110.387 31.1594L110.669 31.4422C110.675 31.4363 110.668 31.4451 110.647 31.4567C110.625 31.4688 110.579 31.4885 110.515 31.4885V31.0885V30.6885C110.316 30.6885 110.175 30.8051 110.104 30.8765L110.387 31.1594ZM110.515 31.0885V31.4885C110.498 31.4885 110.41 31.4848 110.328 31.4067C110.241 31.3245 110.231 31.2292 110.231 31.198H110.631H111.031C111.031 31.0938 111.003 30.9437 110.877 30.8251C110.756 30.7104 110.61 30.6885 110.515 30.6885V31.0885ZM110.631 31.198H110.231C110.231 31.181 110.233 31.1674 110.233 31.1602C110.234 31.1521 110.235 31.1455 110.236 31.1412C110.237 31.1326 110.238 31.126 110.239 31.1228C110.24 31.1162 110.241 31.1114 110.241 31.1105C110.242 31.108 110.242 31.1076 110.241 31.111C110.24 31.1171 110.237 31.1279 110.232 31.1445C110.223 31.1772 110.209 31.2264 110.189 31.2927L110.573 31.4043L110.958 31.5158C110.977 31.4489 110.992 31.3971 111.002 31.3611C111.007 31.3434 111.011 31.3279 111.014 31.3157C111.016 31.31 111.018 31.3025 111.02 31.2949C111.021 31.2913 111.022 31.2846 111.024 31.2764C111.025 31.2724 111.026 31.2651 111.027 31.2561C111.028 31.2512 111.031 31.2279 111.031 31.198H110.631ZM110.573 31.4043L110.195 31.2744C110.092 31.5741 110.005 31.8743 109.933 32.175L110.322 32.2679L110.711 32.3608C110.777 32.0857 110.857 31.8102 110.952 31.5341L110.573 31.4043ZM110.322 32.2679L109.934 32.1709C109.889 32.3506 109.81 32.7056 109.699 33.2285L110.09 33.3119L110.481 33.3953C110.593 32.8699 110.669 32.5288 110.71 32.3649L110.322 32.2679ZM110.09 33.3119L109.699 33.229C109.532 34.0162 109.381 34.6718 109.245 35.1969L109.633 35.2969L110.02 35.3968C110.159 34.8565 110.313 34.1887 110.481 33.3949L110.09 33.3119ZM109.633 35.2969L109.245 35.1969C109.111 35.7168 108.975 36.0884 108.843 36.3298L109.194 36.5214L109.545 36.7129C109.723 36.3872 109.879 35.9425 110.02 35.3968L109.633 35.2969ZM109.194 36.5214L108.841 36.3337C108.725 36.5522 108.583 36.6993 108.42 36.7943C108.255 36.8899 108.046 36.9463 107.776 36.9463V37.3463V37.7463C108.16 37.7463 108.514 37.6652 108.822 37.4858C109.131 37.3058 109.371 37.0405 109.548 36.709L109.194 36.5214Z" fill="#797B79" mask="url(#path-22-outside-3_59346_17302)"/>
<mask id="path-24-outside-4_59346_17302" maskUnits="userSpaceOnUse" x="110.102" y="32.9122" width="4" height="5" fill="black">
<rect fill="white" x="110.102" y="32.9122" width="4" height="5"/>
<path d="M113.106 36.9509C113.037 36.9509 112.988 36.938 112.958 36.9122C112.928 36.8865 112.917 36.8413 112.925 36.7769L113.241 34.895C113.28 34.663 113.299 34.4847 113.299 34.3601C113.299 34.1539 113.241 34.0508 113.125 34.0508C112.983 34.0508 112.788 34.2978 112.539 34.7919C112.294 35.2817 112.04 35.836 111.778 36.4547L111.688 36.6609C111.611 36.8285 111.533 36.9122 111.456 36.9122C111.413 36.9122 111.385 36.9036 111.372 36.8865C111.364 36.865 111.359 36.822 111.359 36.7576C111.359 36.6931 111.443 36.1969 111.611 35.2688C111.783 34.3408 111.881 33.8531 111.907 33.8059C111.933 33.7543 111.954 33.7221 111.972 33.7092C111.993 33.6963 112.032 33.6899 112.088 33.6899C112.139 33.6899 112.18 33.7092 112.21 33.7479C112.244 33.7865 112.262 33.8252 112.262 33.8639C112.262 33.8897 112.24 33.9734 112.197 34.1152C112.068 34.5535 111.967 34.9788 111.894 35.3913L111.83 35.7715C111.903 35.6168 111.957 35.4965 111.991 35.4106C112.111 35.1313 112.221 34.8864 112.32 34.6759C112.423 34.4654 112.537 34.2699 112.661 34.0894C112.85 33.8188 113.026 33.6834 113.19 33.6834C113.478 33.6834 113.621 33.9154 113.621 34.3795C113.621 34.4783 113.609 34.605 113.583 34.7597C113.557 34.9144 113.529 35.0733 113.499 35.2366C113.439 35.5502 113.4 35.7651 113.383 35.8811L113.338 36.1775C113.299 36.4439 113.265 36.6394 113.235 36.764C113.205 36.8886 113.162 36.9509 113.106 36.9509Z"/>
</mask>
<path d="M113.106 36.9509C113.037 36.9509 112.988 36.938 112.958 36.9122C112.928 36.8865 112.917 36.8413 112.925 36.7769L113.241 34.895C113.28 34.663 113.299 34.4847 113.299 34.3601C113.299 34.1539 113.241 34.0508 113.125 34.0508C112.983 34.0508 112.788 34.2978 112.539 34.7919C112.294 35.2817 112.04 35.836 111.778 36.4547L111.688 36.6609C111.611 36.8285 111.533 36.9122 111.456 36.9122C111.413 36.9122 111.385 36.9036 111.372 36.8865C111.364 36.865 111.359 36.822 111.359 36.7576C111.359 36.6931 111.443 36.1969 111.611 35.2688C111.783 34.3408 111.881 33.8531 111.907 33.8059C111.933 33.7543 111.954 33.7221 111.972 33.7092C111.993 33.6963 112.032 33.6899 112.088 33.6899C112.139 33.6899 112.18 33.7092 112.21 33.7479C112.244 33.7865 112.262 33.8252 112.262 33.8639C112.262 33.8897 112.24 33.9734 112.197 34.1152C112.068 34.5535 111.967 34.9788 111.894 35.3913L111.83 35.7715C111.903 35.6168 111.957 35.4965 111.991 35.4106C112.111 35.1313 112.221 34.8864 112.32 34.6759C112.423 34.4654 112.537 34.2699 112.661 34.0894C112.85 33.8188 113.026 33.6834 113.19 33.6834C113.478 33.6834 113.621 33.9154 113.621 34.3795C113.621 34.4783 113.609 34.605 113.583 34.7597C113.557 34.9144 113.529 35.0733 113.499 35.2366C113.439 35.5502 113.4 35.7651 113.383 35.8811L113.338 36.1775C113.299 36.4439 113.265 36.6394 113.235 36.764C113.205 36.8886 113.162 36.9509 113.106 36.9509Z" fill="#797B79"/>
<path d="M112.925 36.7769L112.629 36.7272L112.628 36.7372L112.925 36.7769ZM113.241 34.895L113.537 34.9447L113.537 34.9444L113.241 34.895ZM112.539 34.7919L112.271 34.6568L112.27 34.6578L112.539 34.7919ZM111.778 36.4547L112.053 36.5749L112.054 36.5717L111.778 36.4547ZM111.688 36.6609L111.96 36.7866L111.963 36.7811L111.688 36.6609ZM111.372 36.8865L111.094 36.9979L111.108 37.0347L111.132 37.0665L111.372 36.8865ZM111.611 35.2688L111.316 35.2142L111.315 35.2155L111.611 35.2688ZM111.907 33.8059L112.171 33.9496L112.175 33.94L111.907 33.8059ZM111.972 33.7092L111.817 33.452L111.804 33.4599L111.792 33.4692L111.972 33.7092ZM112.21 33.7479L111.973 33.9321L111.979 33.9398L111.986 33.9472L112.21 33.7479ZM112.197 34.1152L111.91 34.0282L111.909 34.0306L112.197 34.1152ZM111.894 35.3913L111.599 35.339L111.598 35.3411L111.894 35.3913ZM111.83 35.7715L111.534 35.7214L112.101 35.8996L111.83 35.7715ZM111.991 35.4106L111.715 35.2919L111.712 35.2992L111.991 35.4106ZM112.32 34.6759L112.05 34.5439L112.048 34.5484L112.32 34.6759ZM112.661 34.0894L112.415 33.9177L112.414 33.919L112.661 34.0894ZM113.583 34.7597L113.287 34.7104L113.287 34.7104L113.583 34.7597ZM113.499 35.2366L113.794 35.2931L113.794 35.291L113.499 35.2366ZM113.383 35.8811L113.68 35.9262L113.68 35.925L113.383 35.8811ZM113.338 36.1775L113.041 36.1324L113.041 36.1344L113.338 36.1775ZM113.235 36.764L113.526 36.8344L113.526 36.8344L113.235 36.764ZM113.106 36.9509V36.6509C113.089 36.6509 113.086 36.6492 113.093 36.6509C113.1 36.6528 113.125 36.6604 113.153 36.6845L112.958 36.9122L112.762 37.14C112.875 37.2362 113.013 37.2509 113.106 37.2509V36.9509ZM112.958 36.9122L113.153 36.6845C113.194 36.7195 113.212 36.7614 113.219 36.7896C113.225 36.814 113.222 36.8259 113.223 36.8165L112.925 36.7769L112.628 36.7372C112.615 36.8363 112.616 37.0141 112.762 37.14L112.958 36.9122ZM112.925 36.7769L113.221 36.8265L113.537 34.9447L113.241 34.895L112.945 34.8454L112.63 36.7272L112.925 36.7769ZM113.241 34.895L113.537 34.9444C113.577 34.7077 113.599 34.5099 113.599 34.3601H113.299H112.999C112.999 34.4596 112.983 34.6184 112.945 34.8457L113.241 34.895ZM113.299 34.3601H113.599C113.599 34.2387 113.584 34.0996 113.517 33.981C113.436 33.8373 113.294 33.7508 113.125 33.7508V34.0508V34.3508C113.108 34.3508 113.079 34.3466 113.048 34.3282C113.018 34.31 113.001 34.2874 112.994 34.2752C112.988 34.2647 112.99 34.2636 112.993 34.2801C112.996 34.2959 112.999 34.3218 112.999 34.3601H113.299ZM113.125 34.0508V33.7508C113.002 33.7508 112.902 33.8036 112.832 33.8551C112.76 33.9078 112.695 33.9765 112.637 34.0499C112.521 34.1969 112.399 34.4031 112.271 34.6568L112.539 34.7919L112.807 34.927C112.928 34.6867 113.028 34.5223 113.108 34.4222C113.147 34.3721 113.174 34.3482 113.186 34.3391C113.2 34.3289 113.177 34.3508 113.125 34.3508V34.0508ZM112.539 34.7919L112.27 34.6578C112.022 35.1543 111.766 35.7144 111.502 36.3376L111.778 36.4547L112.054 36.5717C112.315 35.9575 112.566 35.4092 112.807 34.9261L112.539 34.7919ZM111.778 36.4547L111.503 36.3344L111.413 36.5406L111.688 36.6609L111.963 36.7811L112.053 36.5749L111.778 36.4547ZM111.688 36.6609L111.416 36.5352C111.4 36.5688 111.386 36.5945 111.375 36.6136C111.363 36.6331 111.355 36.6427 111.352 36.6459C111.348 36.6494 111.354 36.6418 111.371 36.6327C111.39 36.6227 111.419 36.6122 111.456 36.6122V36.9122V37.2122C111.611 37.2122 111.724 37.1269 111.792 37.0529C111.861 36.9782 111.916 36.8836 111.96 36.7866L111.688 36.6609ZM111.456 36.9122V36.6122C111.452 36.6122 111.466 36.6115 111.491 36.6191C111.516 36.6268 111.569 36.6489 111.612 36.7065L111.372 36.8865L111.132 37.0665C111.188 37.1412 111.262 37.1762 111.315 37.1925C111.367 37.2087 111.417 37.2122 111.456 37.2122V36.9122ZM111.372 36.8865L111.651 36.775C111.654 36.7841 111.657 36.7915 111.658 36.7965C111.66 36.8016 111.66 36.8054 111.661 36.8075C111.662 36.8114 111.661 36.8121 111.661 36.8083C111.661 36.8047 111.66 36.7987 111.66 36.7899C111.66 36.7811 111.659 36.7704 111.659 36.7576H111.359H111.059C111.059 36.7954 111.061 36.833 111.064 36.868C111.067 36.8977 111.074 36.9474 111.094 36.9979L111.372 36.8865ZM111.359 36.7576H111.659C111.659 36.7691 111.66 36.7524 111.672 36.6726C111.682 36.6053 111.697 36.5104 111.718 36.387C111.76 36.1406 111.822 35.7858 111.906 35.3221L111.611 35.2688L111.315 35.2155C111.232 35.6799 111.169 36.0373 111.126 36.2871C111.105 36.4118 111.089 36.5111 111.078 36.5839C111.069 36.6443 111.059 36.7138 111.059 36.7576H111.359ZM111.611 35.2688L111.906 35.3235C111.992 34.8599 112.059 34.508 112.108 34.2666C112.132 34.1457 112.152 34.0546 112.166 33.992C112.174 33.9604 112.179 33.9386 112.183 33.9251C112.19 33.8995 112.186 33.9204 112.171 33.9495L111.907 33.8059L111.644 33.6622C111.621 33.7032 111.609 33.7497 111.605 33.7634C111.598 33.7892 111.59 33.8206 111.582 33.8558C111.565 33.9269 111.545 34.0246 111.52 34.1475C111.47 34.3938 111.402 34.7497 111.316 35.2142L111.611 35.2688ZM111.907 33.8059L112.175 33.94C112.18 33.9308 112.184 33.9236 112.187 33.9182C112.19 33.9128 112.192 33.91 112.192 33.9094C112.193 33.9086 112.191 33.9119 112.186 33.9177C112.183 33.9208 112.179 33.9251 112.174 33.9302C112.169 33.9353 112.161 33.942 112.152 33.9492L111.972 33.7092L111.792 33.4692C111.742 33.5063 111.71 33.5511 111.693 33.5766C111.673 33.6068 111.655 33.6396 111.639 33.6717L111.907 33.8059ZM111.972 33.7092L112.126 33.9665C112.107 33.9776 112.092 33.9835 112.083 33.9864C112.074 33.9893 112.067 33.9904 112.066 33.9906C112.064 33.991 112.07 33.9899 112.088 33.9899V33.6899V33.3899C112.029 33.3899 111.916 33.3929 111.817 33.452L111.972 33.7092ZM112.088 33.6899V33.9899C112.075 33.9899 112.054 33.9874 112.028 33.9755C112.003 33.9634 111.985 33.9466 111.973 33.9321L112.21 33.7479L112.447 33.5637C112.357 33.4476 112.226 33.3899 112.088 33.3899V33.6899ZM112.21 33.7479L111.986 33.9472C111.988 33.9498 111.962 33.9205 111.962 33.8639H112.262H112.562C112.562 33.7299 112.501 33.6233 112.434 33.5486L112.21 33.7479ZM112.262 33.8639H111.962C111.962 33.8486 111.963 33.8382 111.963 33.8366C111.964 33.8338 111.964 33.8335 111.963 33.8364C111.962 33.8423 111.96 33.8535 111.955 33.8715C111.946 33.9073 111.931 33.959 111.91 34.0282L112.197 34.1152L112.484 34.2022C112.506 34.1297 112.524 34.0686 112.536 34.0206C112.544 33.9881 112.562 33.9219 112.562 33.8639H112.262ZM112.197 34.1152L111.909 34.0306C111.778 34.4785 111.674 34.9147 111.599 35.339L111.894 35.3913L112.19 35.4436C112.261 35.043 112.359 34.6284 112.485 34.1999L112.197 34.1152ZM111.894 35.3913L111.598 35.3411L111.534 35.7214L111.83 35.7715L112.126 35.8216L112.19 35.4414L111.894 35.3913ZM111.83 35.7715L112.101 35.8996C112.175 35.7432 112.232 35.6164 112.269 35.522L111.991 35.4106L111.712 35.2992C111.681 35.3766 111.631 35.4905 111.559 35.6434L111.83 35.7715ZM111.991 35.4106L112.266 35.5293C112.386 35.2521 112.494 35.0103 112.591 34.8034L112.32 34.6759L112.048 34.5484C111.948 34.7626 111.837 35.0105 111.715 35.2919L111.991 35.4106ZM112.32 34.6759L112.589 34.8079C112.686 34.6098 112.792 34.4273 112.908 34.2599L112.661 34.0894L112.414 33.919C112.281 34.1125 112.159 34.321 112.05 34.544L112.32 34.6759ZM112.661 34.0894L112.907 34.2612C112.992 34.14 113.063 34.0651 113.118 34.0228C113.172 33.9811 113.194 33.9834 113.19 33.9834V33.6834V33.3834C113.022 33.3834 112.874 33.4535 112.752 33.547C112.631 33.6401 112.52 33.7682 112.415 33.9177L112.661 34.0894ZM113.19 33.6834V33.9834C113.221 33.9834 113.233 33.9894 113.237 33.9912C113.239 33.9926 113.247 33.997 113.259 34.0156C113.287 34.0614 113.321 34.1687 113.321 34.3795H113.621H113.921C113.921 34.1262 113.884 33.8854 113.768 33.6993C113.638 33.4894 113.431 33.3834 113.19 33.3834V33.6834ZM113.621 34.3795H113.321C113.321 34.4551 113.311 34.5637 113.287 34.7104L113.583 34.7597L113.879 34.809C113.906 34.6463 113.921 34.5015 113.921 34.3795H113.621ZM113.583 34.7597L113.287 34.7104C113.261 34.8633 113.234 35.0206 113.204 35.1823L113.499 35.2366L113.794 35.291C113.824 35.1261 113.853 34.9655 113.879 34.809L113.583 34.7597ZM113.499 35.2366L113.204 35.1801C113.144 35.4932 113.104 35.7139 113.086 35.8371L113.383 35.8811L113.68 35.925C113.696 35.8162 113.733 35.6073 113.794 35.2931L113.499 35.2366ZM113.383 35.8811L113.086 35.8359L113.041 36.1324L113.338 36.1775L113.634 36.2227L113.68 35.9262L113.383 35.8811ZM113.338 36.1775L113.041 36.1344C113.003 36.3993 112.97 36.5833 112.943 36.6936L113.235 36.764L113.526 36.8344C113.56 36.6955 113.596 36.4885 113.635 36.2206L113.338 36.1775ZM113.235 36.764L112.943 36.6936C112.938 36.715 112.933 36.7288 112.93 36.7366C112.927 36.7449 112.927 36.7423 112.933 36.7339C112.939 36.7255 112.955 36.7047 112.985 36.6854C113.019 36.6645 113.061 36.6509 113.106 36.6509V36.9509V37.2509C113.265 37.2509 113.371 37.1553 113.427 37.0745C113.479 36.9991 113.508 36.9112 113.526 36.8344L113.235 36.764Z" fill="#797B79" mask="url(#path-24-outside-4_59346_17302)"/>
<path d="M115.389 32.8921C115.441 32.6479 115.477 32.4349 115.498 32.2527C115.52 32.0711 115.53 31.9178 115.53 31.7933C115.53 31.7428 115.529 31.7001 115.527 31.6655C115.524 31.6311 115.521 31.5928 115.516 31.5515C115.596 31.5377 115.687 31.5273 115.791 31.5204C115.894 31.5135 115.984 31.51 116.059 31.51C116.195 31.51 116.345 31.5239 116.509 31.5515C116.533 31.6207 116.545 31.708 116.545 31.814C116.545 31.9109 116.535 32.0214 116.517 32.1457C116.498 32.2703 116.474 32.4062 116.446 32.5535L115.903 35.3314C115.89 35.4095 115.882 35.474 115.882 35.5246C115.882 35.5985 115.893 35.6561 115.914 35.6977C115.935 35.7389 115.962 35.7713 115.995 35.7943C116.028 35.8173 116.066 35.8324 116.108 35.839C116.15 35.8462 116.192 35.8494 116.235 35.8494C116.253 35.8494 116.289 35.8462 116.34 35.839C116.392 35.8324 116.439 35.822 116.481 35.8081C116.505 35.8865 116.525 35.9718 116.541 36.0637C116.558 36.1559 116.566 36.2503 116.566 36.3472C116.566 36.3838 116.565 36.4184 116.562 36.4508C116.56 36.4831 116.556 36.5175 116.552 36.5543C116.481 36.582 116.39 36.6038 116.277 36.6201C116.164 36.6361 116.04 36.6443 115.903 36.6443C115.584 36.6443 115.333 36.5672 115.15 36.4127C114.966 36.2585 114.875 36.0155 114.875 35.6836C114.875 35.6191 114.88 35.5513 114.889 35.4799C114.898 35.4085 114.91 35.3336 114.924 35.2552L115.389 32.8921Z" fill="#797B79"/>
<path d="M118.118 32.4289C118.113 32.2678 118.124 32.1145 118.15 31.9692C118.175 31.8241 118.216 31.6711 118.273 31.5097C118.357 31.4915 118.447 31.4788 118.541 31.4719C118.634 31.4648 118.719 31.4615 118.794 31.4615C118.869 31.4615 118.953 31.4648 119.044 31.4719C119.136 31.4788 119.222 31.4915 119.302 31.5097C119.302 31.6711 119.287 31.8254 119.259 31.9729C119.231 32.1202 119.189 32.2722 119.132 32.4289C119.048 32.4428 118.96 32.4519 118.868 32.4566C118.777 32.4611 118.693 32.4633 118.618 32.4633C118.548 32.4633 118.465 32.4611 118.372 32.4566C118.278 32.4519 118.193 32.4428 118.118 32.4289ZM117.914 33.7765H117.47C117.47 33.7624 117.468 33.7488 117.466 33.7349C117.464 33.7211 117.463 33.705 117.463 33.6865C117.463 33.5669 117.474 33.4549 117.498 33.3513C117.521 33.2475 117.556 33.1405 117.604 33.03H119.027L118.386 36.6025C118.207 36.6302 118.038 36.644 117.878 36.644C117.733 36.644 117.575 36.6302 117.406 36.6025L117.914 33.7765Z" fill="#797B79"/>
<path d="M120.091 34.5642C120.143 34.2738 120.182 34.0173 120.208 33.7938C120.234 33.5701 120.246 33.3964 120.246 33.2721V33.1443C120.246 33.1097 120.244 33.0716 120.239 33.0303C120.394 33.0024 120.549 32.9888 120.704 32.9888C120.775 32.9888 120.845 32.992 120.916 32.9992C120.986 33.0059 121.061 33.0163 121.141 33.0303C121.151 33.0669 121.16 33.1107 121.169 33.1613C121.179 33.212 121.183 33.2881 121.183 33.3895C121.183 33.431 121.182 33.4725 121.18 33.5138C121.178 33.5553 121.172 33.606 121.162 33.6658C121.27 33.4678 121.431 33.2998 121.645 33.1613C121.858 33.0232 122.095 32.9542 122.353 32.9542C122.602 32.9542 122.796 33.0084 122.934 33.1166C123.073 33.2249 123.156 33.4033 123.184 33.652C123.297 33.4587 123.461 33.2938 123.677 33.1581C123.894 33.0222 124.128 32.9542 124.382 32.9542C124.664 32.9542 124.877 33.0222 125.023 33.1581C125.169 33.2938 125.242 33.5207 125.242 33.8388C125.242 33.9953 125.225 34.1611 125.192 34.3361L124.783 36.6026C124.605 36.6303 124.434 36.6441 124.269 36.6441C124.105 36.6441 123.943 36.6303 123.783 36.6026L124.178 34.4122C124.197 34.3062 124.206 34.2071 124.206 34.1149C124.206 33.9906 124.18 33.9031 124.128 33.8524C124.077 33.8017 123.997 33.7765 123.889 33.7765C123.823 33.7765 123.751 33.7926 123.674 33.8247C123.597 33.8571 123.518 33.9194 123.438 34.0113C123.358 34.1035 123.283 34.2301 123.212 34.3915C123.142 34.5526 123.083 34.7622 123.036 35.0202L122.754 36.6026C122.576 36.6303 122.405 36.6441 122.24 36.6441C122.076 36.6441 121.914 36.6303 121.754 36.6026L122.149 34.4122C122.167 34.3062 122.177 34.2071 122.177 34.1149C122.177 33.9906 122.151 33.9031 122.099 33.8524C122.048 33.8017 121.968 33.7765 121.86 33.7765C121.794 33.7765 121.721 33.7926 121.641 33.8247C121.562 33.8571 121.482 33.9251 121.402 34.0286C121.322 34.1324 121.245 34.2788 121.169 34.4676C121.094 34.6564 121.028 34.9051 120.972 35.2138L120.711 36.6026C120.528 36.6303 120.357 36.6441 120.197 36.6441C120.033 36.6441 119.871 36.6303 119.711 36.6026L120.091 34.5642Z" fill="#797B79"/>
<path d="M126.954 32.4289C126.949 32.2678 126.96 32.1145 126.986 31.9692C127.011 31.8241 127.053 31.6711 127.109 31.5097C127.193 31.4915 127.283 31.4788 127.376 31.4719C127.47 31.4648 127.555 31.4615 127.63 31.4615C127.705 31.4615 127.789 31.4648 127.88 31.4719C127.972 31.4788 128.058 31.4915 128.137 31.5097C128.137 31.6711 128.123 31.8254 128.095 31.9729C128.067 32.1202 128.025 32.2722 127.968 32.4289C127.884 32.4428 127.796 32.4519 127.704 32.4566C127.613 32.4611 127.529 32.4633 127.454 32.4633C127.384 32.4633 127.301 32.4611 127.208 32.4566C127.114 32.4519 127.029 32.4428 126.954 32.4289ZM126.75 33.7765H126.306C126.306 33.7624 126.304 33.7488 126.302 33.7349C126.3 33.7211 126.299 33.705 126.299 33.6865C126.299 33.5669 126.31 33.4549 126.334 33.3513C126.357 33.2475 126.393 33.1405 126.44 33.03H127.863L127.222 36.6025C127.043 36.6302 126.874 36.644 126.714 36.644C126.569 36.644 126.411 36.6302 126.242 36.6025L126.75 33.7765Z" fill="#797B79"/>
<path d="M129.144 33.7765H128.602C128.602 33.6519 128.611 33.53 128.63 33.4102C128.649 33.2905 128.684 33.1637 128.736 33.0303H129.278L129.32 32.8229C129.344 32.7077 129.358 32.5982 129.363 32.4947C129.367 32.3909 129.37 32.3046 129.37 32.2354C129.492 32.1573 129.644 32.1019 129.828 32.0696C130.011 32.0374 130.18 32.0214 130.335 32.0214C130.358 32.0903 130.37 32.1781 130.37 32.2838C130.37 32.3577 130.364 32.4368 130.352 32.5221C130.341 32.6076 130.325 32.7008 130.307 32.8021L130.264 33.0303H131.138C131.138 33.1684 131.126 33.295 131.103 33.4102C131.079 33.5253 131.046 33.6474 131.004 33.7765H130.13L129.884 35.1378C129.874 35.2021 129.866 35.2621 129.859 35.3173C129.852 35.3726 129.849 35.4255 129.849 35.4762C129.849 35.5961 129.877 35.6905 129.933 35.7594C129.99 35.8286 130.095 35.8632 130.25 35.8632C130.33 35.8632 130.401 35.8576 130.462 35.8459C130.523 35.8343 130.579 35.8217 130.631 35.8081C130.692 35.9416 130.722 36.1166 130.722 36.3331V36.4436C130.722 36.4806 130.72 36.5175 130.715 36.5543C130.513 36.6141 130.271 36.644 129.99 36.644C129.595 36.644 129.303 36.5728 129.112 36.4297C128.922 36.2871 128.827 36.0476 128.827 35.7112C128.827 35.642 128.832 35.5706 128.841 35.4969C128.851 35.4233 128.862 35.3427 128.876 35.2552L129.144 33.7765Z" fill="#797B79"/>
<path d="M132.928 34.5434C133.106 34.5158 133.252 34.4802 133.365 34.4364C133.477 34.3927 133.567 34.3442 133.632 34.2913C133.698 34.2382 133.743 34.1841 133.766 34.1287C133.79 34.0736 133.802 34.0182 133.802 33.9631C133.802 33.8754 133.772 33.8039 133.713 33.7488C133.655 33.6934 133.576 33.6658 133.477 33.6658C133.355 33.6658 133.244 33.6925 133.143 33.7453C133.042 33.7982 132.954 33.8687 132.878 33.9562C132.803 34.0434 132.739 34.1438 132.685 34.2567C132.631 34.3694 132.59 34.4834 132.561 34.5985L132.928 34.5434ZM132.526 35.2481C132.554 35.4693 132.629 35.6342 132.752 35.7422C132.874 35.8507 133.052 35.9048 133.287 35.9048C133.475 35.9048 133.64 35.885 133.784 35.846C133.927 35.8069 134.078 35.755 134.238 35.6905C134.313 35.7825 134.364 35.8944 134.39 36.0257C134.415 36.1569 134.428 36.2963 134.428 36.4436C134.349 36.4807 134.256 36.514 134.15 36.544C134.044 36.5739 133.935 36.5991 133.823 36.6198C133.71 36.6406 133.597 36.6567 133.484 36.6683C133.372 36.6799 133.271 36.6856 133.181 36.6856C132.895 36.6856 132.649 36.651 132.445 36.5818C132.241 36.5128 132.072 36.4149 131.938 36.2881C131.804 36.1613 131.705 36.0071 131.642 35.8252C131.579 35.6433 131.547 35.4419 131.547 35.2207C131.547 34.9396 131.596 34.6631 131.695 34.3914C131.794 34.1196 131.933 33.8766 132.114 33.6623C132.295 33.4483 132.516 33.2755 132.776 33.1443C133.037 33.0128 133.33 32.9473 133.653 32.9473C133.809 32.9473 133.953 32.9656 134.087 33.0024C134.221 33.0395 134.337 33.0958 134.435 33.1717C134.534 33.2478 134.612 33.341 134.668 33.4517C134.724 33.5622 134.753 33.6912 134.753 33.8388C134.753 34.0459 134.703 34.2256 134.605 34.3776C134.506 34.5296 134.374 34.6586 134.21 34.7646C134.046 34.8704 133.859 34.9569 133.65 35.0237C133.441 35.0904 133.224 35.1401 132.998 35.1722L132.526 35.2481Z" fill="#797B79"/>
<path d="M138.666 35.0548C138.614 35.345 138.577 35.6018 138.553 35.8252C138.53 36.0486 138.518 36.2226 138.518 36.347V36.4747C138.518 36.5093 138.52 36.5474 138.525 36.5887C138.37 36.6166 138.218 36.6302 138.067 36.6302C137.936 36.6302 137.79 36.6166 137.63 36.5887C137.621 36.5521 137.611 36.5083 137.602 36.4577C137.593 36.4068 137.588 36.3309 137.588 36.2296C137.588 36.188 137.589 36.1396 137.592 36.0845C137.594 36.0291 137.6 35.9715 137.609 35.9117C137.543 36.0177 137.465 36.1178 137.373 36.2123C137.282 36.3067 137.181 36.3885 137.07 36.4577C136.96 36.5266 136.841 36.582 136.715 36.6233C136.588 36.6648 136.454 36.6856 136.313 36.6856C136.003 36.6856 135.77 36.5887 135.615 36.3954C135.46 36.2019 135.383 35.9463 135.383 35.6285C135.383 35.2829 135.436 34.9488 135.542 34.6265C135.647 34.3039 135.804 34.0182 136.014 33.7696C136.222 33.5209 136.482 33.3217 136.792 33.1717C137.102 33.0221 137.464 32.9473 137.877 32.9473C137.91 32.9473 137.942 32.9485 137.972 32.9507C138.003 32.9529 138.03 32.9542 138.053 32.9542C138.105 32.6825 138.141 32.4522 138.162 32.2631C138.184 32.0743 138.194 31.9178 138.194 31.7933C138.194 31.7426 138.193 31.7001 138.191 31.6655C138.188 31.6309 138.185 31.5928 138.18 31.5515C138.26 31.5377 138.351 31.5273 138.455 31.5204C138.558 31.5135 138.647 31.51 138.722 31.51C138.859 31.51 139.009 31.5236 139.173 31.5515C139.197 31.6205 139.209 31.708 139.209 31.814C139.209 32.0167 139.18 32.2631 139.124 32.5533L138.666 35.0548ZM137.912 33.7696C137.87 33.7604 137.829 33.7545 137.789 33.7523C137.749 33.75 137.71 33.7488 137.673 33.7488C137.447 33.7488 137.256 33.8042 137.098 33.9146C136.941 34.0254 136.811 34.1635 136.708 34.3294C136.604 34.4952 136.529 34.6737 136.482 34.8647C136.435 35.056 136.411 35.2298 136.411 35.3865C136.411 35.7273 136.527 35.8979 136.757 35.8979C136.982 35.8979 137.191 35.7632 137.384 35.4938C137.576 35.2241 137.717 34.8452 137.807 34.3568L137.912 33.7696Z" fill="#797B79"/>
<path d="M46.9085 6.90515H45.9297V37.7902H46.9085V6.90515Z" fill="#7E8691"/>
<path fill-rule="evenodd" clip-rule="evenodd" d="M24.9155 21.618L20.0703 13.4132H29.7594L24.9155 21.618Z" fill="#2F76A6"/>
<path fill-rule="evenodd" clip-rule="evenodd" d="M24.9149 21.618H15.2578L20.0697 13.4132L24.9149 21.618Z" fill="#408BBE"/>
<path fill-rule="evenodd" clip-rule="evenodd" d="M20.0697 29.8253L15.2578 21.6183H24.9149L20.0697 29.8253Z" fill="#AE3A2F"/>
<path fill-rule="evenodd" clip-rule="evenodd" d="M20.0704 29.8253H10.4141L15.2585 21.6183L20.0704 29.8253Z" fill="#D4483C"/>
<path fill-rule="evenodd" clip-rule="evenodd" d="M14.401 20.5834L4.78125 20.5876L9.6113 12.3485L14.401 20.5834Z" fill="#7B4689"/>
<path fill-rule="evenodd" clip-rule="evenodd" d="M14.401 20.5834L9.57174 28.8237L4.78125 20.5876L14.401 20.5834Z" fill="#A172A3"/>
<path fill-rule="evenodd" clip-rule="evenodd" d="M9.61878 12.3504L0 12.3548L4.82905 4.11499L9.61878 12.3504Z" fill="#1B9579"/>
<path fill-rule="evenodd" clip-rule="evenodd" d="M9.61878 12.3505L4.79049 20.5908L0 12.3549L9.61878 12.3505Z" fill="#2AAE8D"/>
<path fill-rule="evenodd" clip-rule="evenodd" d="M15.2262 38.0285L10.4141 29.8252H20.0701L15.2262 38.0285Z" fill="#E6942F"/>
<path fill-rule="evenodd" clip-rule="evenodd" d="M15.2188 38.0285H5.5625L10.4067 29.8252L15.2188 38.0285Z" fill="#E7BE2A"/>
<path fill-rule="evenodd" clip-rule="evenodd" d="M29.758 13.4134L24.9141 5.20813H34.5989L29.758 13.4134Z" fill="#101829"/>
<path fill-rule="evenodd" clip-rule="evenodd" d="M29.7594 13.4134H20.0703L24.9155 5.20813L29.7594 13.4134Z" fill="#394255"/>
</g>
<defs>
<clipPath id="clip0_59346_17302">
<rect width="150" height="38" fill="white" transform="translate(0 0.128052)"/>
</clipPath>
</defs>
</svg>
