<svg width="995" height="257" viewBox="0 0 995 257" fill="none" xmlns="http://www.w3.org/2000/svg">
<g clip-path="url(#clip0_59346_17302)">
<path d="M394.547 60.6898C398.213 59.8925 401.439 59.4545 404.229 59.3743C407.019 59.2957 409.608 59.2539 411.998 59.2539C415.186 59.2539 418.454 59.3358 421.8 59.4946C425.149 59.6534 428.176 60.0529 430.886 60.6898L456.707 168.512L485.873 60.6898C491.133 59.7337 496.552 59.2539 502.13 59.2539C504.522 59.2539 507.072 59.2957 509.781 59.3743C512.491 59.4545 515.837 59.8925 519.823 60.6898L473.682 213.46C471.768 219.516 469.498 224.536 466.867 228.521C464.237 232.506 461.25 235.613 457.902 237.845C454.555 240.076 450.809 241.629 446.665 242.507C442.522 243.385 438.058 243.823 433.278 243.823C428.814 243.823 424.789 243.543 421.204 242.985C417.616 242.427 414.071 241.67 410.564 240.713C410.405 239.918 410.325 239.239 410.325 238.681V236.889C410.325 233.062 410.765 229.437 411.641 226.01C412.516 222.585 413.593 219.277 414.868 216.089C416.303 216.567 418.215 217.005 420.605 217.405C422.997 217.803 425.386 218.001 427.778 218.001C429.69 218.001 431.604 217.881 433.515 217.644C435.429 217.405 437.301 216.688 439.133 215.491C440.967 214.296 442.68 212.423 444.275 209.873C445.868 207.322 447.302 203.736 448.578 199.114L452.641 184.292C450.889 184.451 448.935 184.571 446.786 184.65C444.633 184.73 442.441 184.77 440.21 184.77H435.19C433.595 184.77 432.161 184.611 430.886 184.292L394.547 60.6898Z" fill="#101829"/>
<path d="M536.32 60.6898C542.059 59.7336 547.716 59.2539 553.295 59.2539C558.873 59.2539 564.532 59.7336 570.27 60.6898V126.196C570.27 132.73 570.788 138.109 571.823 142.334C572.86 146.558 574.453 149.904 576.606 152.375C578.757 154.845 581.426 156.599 584.614 157.635C587.802 158.67 591.548 159.188 595.851 159.188C601.748 159.188 606.689 158.632 610.674 157.515V60.6898C616.411 59.7336 621.989 59.2556 627.409 59.2556C632.987 59.2556 638.645 59.7336 644.382 60.6898V179.51C639.284 181.263 632.549 182.977 624.181 184.65C615.813 186.323 607.087 187.161 598.002 187.161C589.873 187.161 582.063 186.522 574.573 185.248C567.083 183.973 560.507 181.263 554.85 177.119C549.19 172.976 544.688 166.919 541.342 158.951C537.994 150.981 536.32 140.381 536.32 127.152V60.6898Z" fill="#101829"/>
<path d="M749.336 86.2719C746.148 85.4762 743.559 84.958 741.565 84.719C739.574 84.4782 737.063 84.3596 734.036 84.3596C728.776 84.3596 724.194 85.4344 720.289 87.5874C716.382 89.7387 713.156 92.6072 710.605 96.1927C708.056 99.78 706.182 104.004 704.987 108.865C703.792 113.726 703.194 118.786 703.194 124.046C703.194 130.581 703.991 136.12 705.584 140.662C707.179 145.204 709.37 148.831 712.16 151.541C714.95 154.249 718.256 156.203 722.081 157.396C725.907 158.593 730.051 159.19 734.512 159.19C737.224 159.19 739.693 159.071 741.924 158.832C744.156 158.593 746.626 158.075 749.336 157.278V86.2719ZM749.336 9.52917C752.205 9.0511 755.035 8.73182 757.823 8.57302C760.613 8.41255 763.362 8.33398 766.07 8.33398C768.782 8.33398 771.57 8.41255 774.438 8.57302C777.308 8.73182 780.177 9.0511 783.045 9.52917V180.229C775.555 182.46 767.944 184.174 760.215 185.369C752.484 186.564 743.119 187.162 732.122 187.162C723.676 187.162 715.587 186.007 707.856 183.695C700.126 181.385 693.313 177.72 687.415 172.698C681.518 167.678 676.856 161.182 673.429 153.214C670.002 145.246 668.289 135.522 668.289 124.046C668.289 114.961 669.763 106.394 672.712 98.3458C675.661 90.297 679.885 83.3232 685.383 77.4258C690.882 71.5284 697.537 66.8664 705.347 63.4413C713.156 60.0129 721.842 58.2995 731.405 58.2995C734.275 58.2995 737.262 58.4198 740.371 58.6589C743.479 58.8979 746.468 59.4161 749.336 60.2134V9.52917Z" fill="#101829"/>
<path d="M817.471 39.8903C816.515 34.471 816.036 29.1319 816.036 23.8731C816.036 18.7714 816.515 13.4324 817.471 7.85427C820.18 7.3762 823.089 7.01681 826.196 6.77777C829.306 6.53873 832.134 6.42004 834.685 6.42004C837.393 6.42004 840.341 6.53873 843.529 6.77777C846.718 7.01681 849.666 7.3762 852.375 7.85427C852.855 10.5639 853.172 13.2334 853.331 15.8629C853.492 18.4939 853.572 21.1618 853.572 23.8731C853.572 26.4223 853.492 29.0517 853.331 31.7614C853.172 34.471 852.855 37.1806 852.375 39.8903C849.666 40.3684 846.759 40.686 843.649 40.8464C840.542 41.0052 837.633 41.0855 834.924 41.0855C832.373 41.0855 829.504 41.0052 826.317 40.8464C823.129 40.686 820.18 40.3684 817.471 39.8903ZM822.492 86.5093H806.473C805.995 84.4382 805.636 82.2467 805.398 79.9349C805.159 77.6248 805.039 75.4333 805.039 73.3605C805.039 69.0579 805.517 64.8338 806.473 60.6899H855.723V184.292C849.985 185.248 844.407 185.726 838.987 185.726C833.729 185.726 828.229 185.248 822.492 184.292V86.5093Z" fill="#101829"/>
<path d="M878.914 181.424L934.618 86.7499H887.282C886.804 84.3595 886.485 82.0477 886.326 79.8162C886.165 77.5846 886.087 75.353 886.087 73.1214C886.087 71.0503 886.165 69.0177 886.326 67.0251C886.485 65.0343 886.804 62.9214 887.282 60.6898H984.585L985.78 63.5599L929.12 158.234H981.717C982.195 160.624 982.513 162.934 982.673 165.166C982.832 167.397 982.912 169.629 982.912 171.861C982.912 173.933 982.832 175.964 982.673 177.957C982.513 179.949 982.195 182.061 981.717 184.292H880.826L878.914 181.424Z" fill="#101829"/>
<path fill-rule="evenodd" clip-rule="evenodd" d="M457.203 134.781L477.834 58.5135C478.673 55.4094 481.224 53.0658 484.387 52.4908C490.13 51.4477 496.046 50.9211 502.136 50.9211C504.603 50.9211 507.232 50.9629 510.034 51.0448C513.116 51.1368 516.927 51.6115 521.462 52.5192C523.766 52.9789 525.767 54.3914 526.975 56.4056C528.182 58.4199 528.485 60.8504 527.804 63.0987C527.804 63.0987 481.664 215.869 481.633 215.971C479.452 222.871 476.824 228.571 473.827 233.111C470.526 238.114 466.733 241.977 462.531 244.779C458.32 247.587 453.611 249.555 448.397 250.659C443.718 251.651 438.68 252.156 433.283 252.156C428.345 252.156 423.893 251.836 419.927 251.219C416.034 250.613 412.184 249.792 408.378 248.754C405.33 247.923 403.015 245.441 402.397 242.345C402.111 240.912 401.997 239.685 401.997 238.681V236.889C401.997 232.337 402.53 228.024 403.572 223.946C404.54 220.165 405.728 216.512 407.136 212.993C408.776 208.898 413.324 206.789 417.508 208.184C418.626 208.555 420.122 208.875 421.978 209.184C423.913 209.507 425.847 209.669 427.783 209.669C429.353 209.669 430.924 209.568 432.487 209.374C433.207 209.284 433.891 208.965 434.588 208.51C435.558 207.877 436.37 206.804 437.213 205.458C438.475 203.435 439.538 200.564 440.546 196.911L441.592 193.098L440.215 193.103H435.195C432.85 193.103 430.744 192.846 428.866 192.376C426.001 191.659 423.73 189.478 422.895 186.643L386.557 63.0402C385.905 60.8203 386.204 58.4283 387.384 56.4391C388.564 54.4482 390.52 53.039 392.78 52.5476C397.026 51.6232 400.764 51.1368 404 51.0448C406.873 50.9629 409.541 50.9211 412.003 50.9211C415.32 50.9211 418.72 51.0047 422.2 51.1702C426.107 51.3558 429.637 51.8338 432.798 52.5777C435.864 53.2981 438.261 55.6868 438.995 58.7492L457.203 134.781ZM394.552 60.6899C398.218 59.8926 401.444 59.4546 404.234 59.3744C407.024 59.2958 409.613 59.254 412.003 59.254C415.191 59.254 418.459 59.3359 421.806 59.4947C425.154 59.6535 428.181 60.053 430.891 60.6899L456.712 168.512L485.878 60.6899C491.138 59.7338 496.557 59.254 502.136 59.254C504.528 59.254 507.077 59.2958 509.786 59.3744C512.496 59.4546 515.843 59.8926 519.828 60.6899L473.687 213.46C471.773 219.516 469.503 224.536 466.872 228.521C464.242 232.506 461.255 235.613 457.907 237.845C454.56 240.077 450.814 241.629 446.67 242.507C442.527 243.385 438.063 243.823 433.283 243.823C428.82 243.823 424.794 243.543 421.209 242.985C417.622 242.427 414.076 241.67 410.569 240.713C410.41 239.918 410.33 239.239 410.33 238.681V236.889C410.33 233.063 410.77 229.437 411.646 226.01C412.522 222.585 413.598 219.277 414.873 216.089C416.308 216.567 418.22 217.005 420.61 217.405C423.002 217.803 425.391 218.002 427.783 218.002C429.695 218.002 431.609 217.881 433.52 217.644C435.434 217.405 437.306 216.688 439.138 215.491C440.972 214.296 442.685 212.423 444.28 209.873C445.873 207.322 447.307 203.736 448.583 199.114L452.646 184.292C450.895 184.451 448.94 184.571 446.791 184.65C444.638 184.73 442.446 184.77 440.215 184.77H435.195C433.6 184.77 432.166 184.612 430.891 184.292L394.552 60.6899Z" fill="white"/>
<path fill-rule="evenodd" clip-rule="evenodd" d="M602.346 150.568V60.6899C602.346 56.6162 605.292 53.1393 609.308 52.4707C615.515 51.436 621.551 50.9228 627.413 50.9228C633.441 50.9228 639.557 51.436 645.757 52.4707C649.774 53.1393 652.72 56.6162 652.72 60.6899V179.51C652.72 183.067 650.461 186.233 647.096 187.39C641.725 189.237 634.635 191.059 625.82 192.822C616.929 194.599 607.658 195.494 598.007 195.494C589.393 195.494 581.119 194.813 573.179 193.464C564.344 191.96 556.601 188.73 549.932 183.843C543.159 178.885 537.667 171.714 533.664 162.179C529.973 153.395 527.992 141.734 527.992 127.152V60.6899C527.992 56.6162 530.938 53.1393 534.956 52.4707C541.158 51.436 547.271 50.9211 553.3 50.9211C559.328 50.9211 565.442 51.436 571.644 52.4707C575.663 53.1393 578.608 56.6162 578.608 60.6899V126.196C578.608 131.926 579.014 136.647 579.922 140.348C580.592 143.081 581.5 145.302 582.896 146.902C584.049 148.226 585.487 149.155 587.192 149.709C589.647 150.506 592.541 150.855 595.855 150.855C598.196 150.855 600.36 150.764 602.346 150.568ZM536.325 60.6899C542.064 59.7338 547.72 59.254 553.3 59.254C558.878 59.254 564.536 59.7338 570.275 60.6899V126.196C570.275 132.73 570.793 138.11 571.828 142.334C572.864 146.558 574.457 149.904 576.61 152.375C578.762 154.846 581.431 156.599 584.619 157.635C587.807 158.67 591.553 159.188 595.855 159.188C601.753 159.188 606.694 158.632 610.679 157.515V60.6899C616.416 59.7338 621.994 59.2557 627.413 59.2557C632.991 59.2557 638.65 59.7338 644.387 60.6899V179.51C639.288 181.263 632.553 182.977 624.186 184.65C615.818 186.323 607.092 187.161 598.007 187.161C589.878 187.161 582.068 186.522 574.578 185.248C567.087 183.973 560.511 181.263 554.855 177.119C549.195 172.976 544.693 166.919 541.347 158.951C537.998 150.981 536.325 140.381 536.325 127.152V60.6899Z" fill="white"/>
<path fill-rule="evenodd" clip-rule="evenodd" d="M741.008 50.3494V9.52917C741.008 5.4555 743.953 1.9786 747.97 1.30996C751.143 0.780068 754.27 0.429027 757.349 0.25351C760.301 0.0830082 763.21 0.00109863 766.075 0.00109863C768.937 0.00109863 771.881 0.0830091 774.903 0.25184C778.077 0.427357 781.248 0.780068 784.421 1.30996C788.438 1.9786 791.383 5.4555 791.383 9.52917V180.229C791.383 183.914 788.963 187.162 785.429 188.215C777.576 190.554 769.597 192.351 761.493 193.605C753.411 194.853 743.622 195.495 732.127 195.495C722.849 195.495 713.965 194.218 705.473 191.681C696.602 189.028 688.788 184.807 682.019 179.043C675.187 173.23 669.748 165.736 665.778 156.505C661.964 147.634 659.961 136.824 659.961 124.046C659.961 113.947 661.614 104.427 664.892 95.479C668.239 86.3437 673.051 78.4371 679.293 71.7424C685.553 65.0293 693.115 59.7086 702.001 55.8105C710.817 51.9407 720.615 49.9666 731.41 49.9666C734.482 49.9666 737.68 50.0936 741.008 50.3494ZM749.341 9.52917C752.209 9.05109 755.039 8.73182 757.828 8.57302C760.617 8.41254 763.367 8.33398 766.075 8.33398C768.786 8.33398 771.575 8.41254 774.443 8.57302C777.313 8.73182 780.182 9.05109 783.05 9.52917V180.229C775.56 182.46 767.949 184.174 760.22 185.369C752.488 186.564 743.124 187.162 732.127 187.162C723.68 187.162 715.591 186.007 707.86 183.695C700.131 181.385 693.318 177.72 687.42 172.698C681.523 167.678 676.861 161.182 673.434 153.214C670.007 145.246 668.294 135.522 668.294 124.046C668.294 114.961 669.768 106.394 672.717 98.3458C675.666 90.2971 679.89 83.3232 685.387 77.4258C690.887 71.5284 697.542 66.8664 705.351 63.4413C713.161 60.0129 721.847 58.2995 731.41 58.2995C734.28 58.2995 737.267 58.4198 740.376 58.6589C743.484 58.8979 746.472 59.4161 749.341 60.2134V9.52917ZM749.341 86.2719C746.153 85.4762 743.564 84.958 741.57 84.719C739.579 84.4782 737.068 84.3596 734.041 84.3596C728.78 84.3596 724.198 85.4344 720.294 87.5874C716.387 89.7387 713.161 92.6072 710.61 96.1927C708.061 99.78 706.187 104.004 704.992 108.865C703.797 113.726 703.198 118.786 703.198 124.046C703.198 130.581 703.996 136.12 705.589 140.662C707.183 145.204 709.375 148.831 712.165 151.541C714.955 154.249 718.261 156.203 722.086 157.396C725.912 158.593 730.056 159.19 734.517 159.19C737.229 159.19 739.697 159.071 741.929 158.832C744.161 158.593 746.631 158.075 749.341 157.278V86.2719ZM741.008 93.0502L740.57 92.9917C738.843 92.7827 736.665 92.6924 734.041 92.6924C730.328 92.6924 727.074 93.3644 724.314 94.8872C721.526 96.4218 719.22 98.4644 717.403 101.02C715.428 103.8 714.01 107.088 713.084 110.854C712.046 115.078 711.531 119.476 711.531 124.046C711.531 129.492 712.125 134.119 713.452 137.901C714.567 141.08 716.018 143.668 717.968 145.561C719.822 147.36 722.027 148.649 724.573 149.443C727.634 150.401 730.95 150.857 734.517 150.857C736.891 150.857 739.052 150.758 741.008 150.55V93.0502Z" fill="white"/>
<path d="M817.478 39.8903C816.522 34.471 816.044 29.1319 816.044 23.8731C816.044 18.7714 816.522 13.4324 817.478 7.85427C820.188 7.3762 823.097 7.01681 826.204 6.77777C829.313 6.53873 832.142 6.42004 834.693 6.42004C837.4 6.42004 840.349 6.53873 843.537 6.77777C846.726 7.01681 849.673 7.3762 852.383 7.85427C852.863 10.5639 853.18 13.2334 853.339 15.8629C853.5 18.4939 853.58 21.1618 853.58 23.8731C853.58 26.4223 853.5 29.0517 853.339 31.7614C853.18 34.471 852.863 37.1806 852.383 39.8903C849.673 40.3684 846.766 40.686 843.657 40.8464C840.55 41.0052 837.641 41.0855 834.932 41.0855C832.381 41.0855 829.512 41.0052 826.325 40.8464C823.137 40.686 820.188 40.3684 817.478 39.8903ZM822.5 86.5093H806.481C806.003 84.4382 805.644 82.2467 805.406 79.9349C805.167 77.6248 805.047 75.4333 805.047 73.3605C805.047 69.0579 805.525 64.8338 806.481 60.6899H855.731V184.292C849.993 185.248 844.414 185.726 838.995 185.726C833.736 185.726 828.237 185.248 822.5 184.292V86.5093Z" stroke="white" stroke-width="8.34123" stroke-miterlimit="1.5" stroke-linecap="square" stroke-linejoin="round"/>
<path fill-rule="evenodd" clip-rule="evenodd" d="M920.052 95.0828H887.287C883.316 95.0828 879.896 92.2795 879.117 88.3847C878.567 85.6349 878.202 82.9754 878.02 80.4146C877.845 77.9824 877.759 75.5519 877.759 73.1214C877.759 70.823 877.846 68.568 878.025 66.3632C878.211 64.0313 878.578 61.5574 879.138 58.9447C879.962 55.1017 883.357 52.3569 887.287 52.3569H984.591C987.956 52.3569 990.989 54.3796 992.283 57.487L993.478 60.3572C994.495 62.796 994.293 65.5725 992.937 67.8392L943.824 149.901H981.722C985.694 149.901 989.114 152.704 989.893 156.599C990.443 159.347 990.806 162.003 990.991 164.574C991.163 167.003 991.25 169.432 991.25 171.861C991.25 174.159 991.162 176.411 990.984 178.625C990.797 180.957 990.429 183.428 989.871 186.037C989.047 189.88 985.652 192.625 981.722 192.625H880.832C878.045 192.625 875.444 191.233 873.898 188.914L871.986 186.046C870.214 183.388 870.117 179.951 871.737 177.198L920.052 95.0828ZM878.919 181.424L934.623 86.7499H887.287C886.809 84.3595 886.49 82.0477 886.331 79.8161C886.171 77.5846 886.092 75.353 886.092 73.1214C886.092 71.0503 886.171 69.0177 886.331 67.0251C886.49 65.0343 886.809 62.9214 887.287 60.6898H984.591L985.786 63.5599L929.126 158.234H981.722C982.2 160.624 982.518 162.934 982.678 165.166C982.837 167.397 982.917 169.629 982.917 171.861C982.917 173.933 982.837 175.964 982.678 177.957C982.518 179.949 982.2 182.061 981.722 184.292H880.832L878.919 181.424Z" fill="white"/>
<mask id="path-11-outside-1_59346_17302" maskUnits="userSpaceOnUse" x="697" y="194.408" width="47" height="63" fill="black">
<rect fill="white" x="697" y="194.408" width="47" height="63"/>
<path d="M714.918 246.836C713.408 246.836 712.054 246.465 710.857 245.724C709.66 244.983 708.734 243.986 708.078 242.732C707.423 241.478 707.095 240.11 707.095 238.628C707.095 238.058 707.465 235.621 708.206 231.317C708.947 227.014 709.802 222.44 710.771 217.595C711.769 212.721 712.667 208.845 713.465 205.967C713.522 205.767 713.636 205.61 713.807 205.496C714.006 205.382 714.206 205.325 714.405 205.325C715.004 205.325 715.303 205.568 715.303 206.052C714.305 209.9 712.98 215.999 711.327 224.349C709.703 232.7 708.89 237.602 708.89 239.055C708.89 240.737 709.432 242.133 710.515 243.245C711.598 244.328 713.08 244.869 714.961 244.869C717.269 244.869 719.122 244.342 720.518 243.287C721.915 242.204 722.927 240.751 723.554 238.927C724.58 235.849 725.435 232.885 726.119 230.035C726.831 227.185 727.629 223.722 728.513 219.647C728.627 219.191 728.983 217.58 729.581 214.816C730.208 212.023 730.878 209.415 731.591 206.993C731.733 206.508 731.947 206.109 732.232 205.796C732.545 205.482 732.83 205.325 733.087 205.325C733.6 205.325 733.856 205.568 733.856 206.052C733.856 206.081 733.728 206.537 733.472 207.42C732.816 209.33 732.26 211.239 731.804 213.149C731.519 214.289 731.006 216.597 730.265 220.074C729.154 225.318 728.142 229.707 727.23 233.241C726.318 236.775 725.349 239.483 724.323 241.364C722.385 245.012 719.25 246.836 714.918 246.836Z"/>
</mask>
<path d="M714.918 246.836C713.408 246.836 712.054 246.465 710.857 245.724C709.66 244.983 708.734 243.986 708.078 242.732C707.423 241.478 707.095 240.11 707.095 238.628C707.095 238.058 707.465 235.621 708.206 231.317C708.947 227.014 709.802 222.44 710.771 217.595C711.769 212.721 712.667 208.845 713.465 205.967C713.522 205.767 713.636 205.61 713.807 205.496C714.006 205.382 714.206 205.325 714.405 205.325C715.004 205.325 715.303 205.568 715.303 206.052C714.305 209.9 712.98 215.999 711.327 224.349C709.703 232.7 708.89 237.602 708.89 239.055C708.89 240.737 709.432 242.133 710.515 243.245C711.598 244.328 713.08 244.869 714.961 244.869C717.269 244.869 719.122 244.342 720.518 243.287C721.915 242.204 722.927 240.751 723.554 238.927C724.58 235.849 725.435 232.885 726.119 230.035C726.831 227.185 727.629 223.722 728.513 219.647C728.627 219.191 728.983 217.58 729.581 214.816C730.208 212.023 730.878 209.415 731.591 206.993C731.733 206.508 731.947 206.109 732.232 205.796C732.545 205.482 732.83 205.325 733.087 205.325C733.6 205.325 733.856 205.568 733.856 206.052C733.856 206.081 733.728 206.537 733.472 207.42C732.816 209.33 732.26 211.239 731.804 213.149C731.519 214.289 731.006 216.597 730.265 220.074C729.154 225.318 728.142 229.707 727.23 233.241C726.318 236.775 725.349 239.483 724.323 241.364C722.385 245.012 719.25 246.836 714.918 246.836Z" fill="white"/>
<path d="M710.857 245.724L716.12 237.221L716.12 237.221L710.857 245.724ZM708.078 242.732L699.216 247.364L699.216 247.364L708.078 242.732ZM708.206 231.317L698.351 229.62L708.206 231.317ZM710.771 217.595L700.974 215.589L700.97 215.611L700.965 215.633L710.771 217.595ZM713.465 205.967L703.849 203.219L703.838 203.257L703.828 203.295L713.465 205.967ZM713.807 205.496L708.845 196.814L708.546 196.985L708.26 197.176L713.807 205.496ZM715.303 206.052L724.983 208.562L725.303 207.327V206.052H715.303ZM711.327 224.349L701.517 222.407L701.514 222.423L701.511 222.439L711.327 224.349ZM710.515 243.245L703.352 250.223L703.398 250.27L703.444 250.316L710.515 243.245ZM720.518 243.287L726.544 251.268L726.596 251.229L726.646 251.19L720.518 243.287ZM723.554 238.927L733.01 242.178L733.026 242.133L733.04 242.089L723.554 238.927ZM726.119 230.035L716.417 227.609L716.406 227.655L716.395 227.701L726.119 230.035ZM728.513 219.647L718.811 217.221L718.773 217.374L718.74 217.528L728.513 219.647ZM729.581 214.816L719.824 212.625L719.816 212.663L719.808 212.7L729.581 214.816ZM731.591 206.993L741.184 209.814L741.184 209.814L731.591 206.993ZM732.232 205.796L725.161 198.725L724.992 198.893L724.832 199.069L732.232 205.796ZM733.472 207.42L742.93 210.667L743.008 210.439L743.075 210.208L733.472 207.42ZM731.804 213.149L741.506 215.574L741.518 215.523L741.531 215.471L731.804 213.149ZM730.265 220.074L720.485 217.99L720.483 218.001L730.265 220.074ZM727.23 233.241L717.547 230.742L717.547 230.742L727.23 233.241ZM724.323 241.364L715.544 236.575L715.518 236.623L715.492 236.672L724.323 241.364ZM714.918 246.836V236.836C714.987 236.836 715.163 236.845 715.41 236.912C715.66 236.981 715.906 237.089 716.12 237.221L710.857 245.724L705.593 254.227C708.487 256.018 711.689 256.836 714.918 256.836V246.836ZM710.857 245.724L716.12 237.221C716.257 237.306 716.426 237.436 716.592 237.616C716.759 237.795 716.872 237.968 716.94 238.099L708.078 242.732L699.216 247.364C700.698 250.199 702.863 252.537 705.593 254.227L710.857 245.724ZM708.078 242.732L716.94 238.099C716.991 238.197 717.036 238.314 717.065 238.435C717.079 238.492 717.087 238.54 717.091 238.575C717.095 238.611 717.095 238.629 717.095 238.628H707.095H697.095C697.095 241.644 697.777 244.612 699.216 247.364L708.078 242.732ZM707.095 238.628H717.095C717.095 238.844 717.087 239.004 717.083 239.074C717.078 239.154 717.073 239.205 717.072 239.216C717.071 239.235 717.074 239.195 717.089 239.073C717.119 238.83 717.173 238.442 717.259 237.876C717.43 236.753 717.695 235.142 718.061 233.014L708.206 231.317L698.351 229.62C697.977 231.796 697.686 233.555 697.486 234.869C697.35 235.768 697.095 237.406 697.095 238.628H707.095ZM708.206 231.317L718.061 233.014C718.785 228.81 719.623 224.324 720.577 219.556L710.771 217.595L700.965 215.633C699.981 220.555 699.109 225.218 698.351 229.62L708.206 231.317ZM710.771 217.595L720.568 219.6C721.546 214.824 722.391 211.2 723.101 208.638L713.465 205.967L703.828 203.295C702.942 206.49 701.992 210.618 700.974 215.589L710.771 217.595ZM713.465 205.967L723.08 208.714C722.492 210.772 721.178 212.601 719.353 213.817L713.807 205.496L708.26 197.176C706.093 198.62 704.551 200.762 703.849 203.219L713.465 205.967ZM713.807 205.496L718.768 214.179C717.689 214.795 716.195 215.325 714.405 215.325V205.325V195.325C712.216 195.325 710.323 195.969 708.845 196.814L713.807 205.496ZM714.405 205.325V215.325C713.615 215.325 711.168 215.208 708.786 213.279C706.001 211.024 705.303 207.976 705.303 206.052H715.303H725.303C725.303 203.643 724.455 200.232 721.37 197.735C718.689 195.564 715.794 195.325 714.405 195.325V205.325ZM715.303 206.052L705.623 203.542C704.548 207.69 703.176 214.03 701.517 222.407L711.327 224.349L721.137 226.291C722.784 217.967 724.063 212.109 724.983 208.562L715.303 206.052ZM711.327 224.349L701.511 222.439C700.692 226.652 700.062 230.069 699.634 232.654C699.264 234.889 698.89 237.343 698.89 239.055H708.89H718.89C718.89 239.375 718.866 239.336 718.962 238.586C719.042 237.962 719.172 237.085 719.365 235.923C719.749 233.606 720.338 230.397 721.143 226.259L711.327 224.349ZM708.89 239.055H698.89C698.89 243.104 700.29 247.08 703.352 250.223L710.515 243.245L717.677 236.266C718.04 236.639 718.386 237.146 718.62 237.748C718.848 238.336 718.89 238.81 718.89 239.055H708.89ZM710.515 243.245L703.444 250.316C706.812 253.684 711.07 254.869 714.961 254.869V244.869V234.869C714.972 234.869 715.323 234.87 715.87 235.07C716.455 235.284 717.066 235.654 717.586 236.174L710.515 243.245ZM714.961 244.869V254.869C718.752 254.869 722.931 253.996 726.544 251.268L720.518 243.287L714.492 235.307C714.874 235.018 715.202 234.896 715.344 234.856C715.464 234.821 715.367 234.869 714.961 234.869V244.869ZM720.518 243.287L726.646 251.19C729.722 248.804 731.811 245.668 733.01 242.178L723.554 238.927L714.097 235.676C714.057 235.791 714.05 235.769 714.117 235.672C714.149 235.626 714.191 235.574 714.241 235.52C714.292 235.467 714.344 235.421 714.39 235.385L720.518 243.287ZM723.554 238.927L733.04 242.089C734.148 238.767 735.085 235.526 735.842 232.369L726.119 230.035L716.395 227.701C715.784 230.244 715.011 232.931 714.067 235.765L723.554 238.927ZM726.119 230.035L735.82 232.46C736.566 229.476 737.388 225.905 738.285 221.765L728.513 219.647L718.74 217.528C717.87 221.54 717.096 224.894 716.417 227.609L726.119 230.035ZM728.513 219.647L738.214 222.072C738.377 221.419 738.777 219.599 739.355 216.932L729.581 214.816L719.808 212.7C719.51 214.076 719.275 215.153 719.101 215.937C719.014 216.329 718.945 216.638 718.893 216.869C718.867 216.984 718.846 217.073 718.831 217.139C718.814 217.21 718.808 217.232 718.811 217.221L728.513 219.647ZM729.581 214.816L739.338 217.006C739.924 214.398 740.54 212.003 741.184 209.814L731.591 206.993L721.997 204.171C721.216 206.827 720.493 209.648 719.824 212.625L729.581 214.816ZM731.591 206.993L741.184 209.814C740.981 210.505 740.541 211.522 739.631 212.522L732.232 205.796L724.832 199.069C723.353 200.696 722.485 202.511 721.997 204.171L731.591 206.993ZM732.232 205.796L739.303 212.867C739.016 213.153 738.422 213.698 737.5 214.205C736.554 214.726 735.037 215.325 733.087 215.325V205.325V195.325C728.803 195.325 726.079 197.807 725.161 198.725L732.232 205.796ZM733.087 205.325V215.325C731.94 215.325 729.22 215.065 726.798 212.777C724.268 210.388 723.856 207.502 723.856 206.052H733.856H743.856C743.856 204.118 743.316 200.868 740.53 198.237C737.851 195.707 734.747 195.325 733.087 195.325V205.325ZM733.856 206.052H723.856C723.856 205.624 723.884 205.283 723.902 205.101C723.921 204.897 723.943 204.731 723.96 204.619C723.991 204.401 724.024 204.23 724.041 204.142C724.076 203.962 724.108 203.826 724.119 203.778C724.134 203.715 724.146 203.668 724.152 203.645C724.159 203.619 724.163 203.602 724.165 203.595C724.169 203.58 724.162 203.608 724.134 203.708C724.081 203.895 723.994 204.197 723.868 204.632L733.472 207.42L743.075 210.208C743.205 209.76 743.311 209.392 743.387 209.123C743.423 208.995 743.463 208.849 743.499 208.713C743.515 208.653 743.547 208.531 743.581 208.387C743.596 208.323 743.631 208.173 743.669 207.983C743.687 207.89 743.72 207.714 743.752 207.493C743.769 207.374 743.856 206.796 743.856 206.052H733.856ZM733.472 207.42L724.013 204.173C723.257 206.378 722.61 208.595 722.078 210.826L731.804 213.149L741.531 215.471C741.91 213.883 742.375 212.281 742.93 210.667L733.472 207.42ZM731.804 213.149L722.103 210.723C721.768 212.062 721.22 214.542 720.485 217.99L730.265 220.074L740.046 222.158C740.793 218.652 741.27 216.515 741.506 215.574L731.804 213.149ZM730.265 220.074L720.483 218.001C719.389 223.161 718.41 227.398 717.547 230.742L727.23 233.241L736.913 235.74C737.874 232.016 738.919 227.475 740.048 222.148L730.265 220.074ZM727.23 233.241L717.547 230.742C716.719 233.953 715.995 235.748 715.544 236.575L724.323 241.364L733.102 246.152C734.703 243.217 735.917 239.597 736.913 235.74L727.23 233.241ZM724.323 241.364L715.492 236.672C715.37 236.901 715.298 236.973 715.312 236.959C715.331 236.938 715.394 236.88 715.489 236.824C715.583 236.77 715.626 236.765 715.57 236.779C715.504 236.795 715.301 236.836 714.918 236.836V246.836V256.836C718.506 256.836 722.18 256.07 725.547 254.111C728.94 252.137 731.435 249.291 733.154 246.055L724.323 241.364Z" fill="white" mask="url(#path-11-outside-1_59346_17302)"/>
<mask id="path-13-outside-2_59346_17302" maskUnits="userSpaceOnUse" x="728" y="211.908" width="36" height="43" fill="black">
<rect fill="white" x="728" y="211.908" width="36" height="43"/>
<path d="M750.295 244.165C749.839 244.165 749.512 244.079 749.312 243.908C749.113 243.737 749.041 243.438 749.098 243.01L751.193 230.527C751.45 228.988 751.578 227.806 751.578 226.979C751.578 225.611 751.193 224.927 750.424 224.927C749.483 224.927 748.186 226.566 746.533 229.843C744.909 233.092 743.227 236.769 741.489 240.873L740.89 242.241C740.377 243.352 739.864 243.908 739.351 243.908C739.066 243.908 738.881 243.851 738.796 243.737C738.739 243.595 738.71 243.31 738.71 242.882C738.71 242.455 739.266 239.163 740.377 233.007C741.517 226.851 742.173 223.616 742.344 223.303C742.515 222.961 742.657 222.747 742.771 222.661C742.914 222.576 743.17 222.533 743.541 222.533C743.883 222.533 744.154 222.661 744.353 222.918C744.581 223.174 744.695 223.431 744.695 223.687C744.695 223.858 744.553 224.414 744.268 225.355C743.413 228.262 742.743 231.083 742.258 233.819L741.831 236.341C742.315 235.315 742.672 234.517 742.9 233.947C743.698 232.095 744.424 230.47 745.08 229.074C745.764 227.677 746.519 226.381 747.346 225.184C748.6 223.388 749.768 222.49 750.851 222.49C752.761 222.49 753.715 224.029 753.715 227.107C753.715 227.763 753.63 228.604 753.459 229.63C753.288 230.656 753.103 231.71 752.903 232.793C752.504 234.874 752.248 236.299 752.134 237.068L751.834 239.035C751.578 240.802 751.35 242.098 751.15 242.925C750.951 243.751 750.666 244.165 750.295 244.165Z"/>
</mask>
<path d="M750.295 244.165C749.839 244.165 749.512 244.079 749.312 243.908C749.113 243.737 749.041 243.438 749.098 243.01L751.193 230.527C751.45 228.988 751.578 227.806 751.578 226.979C751.578 225.611 751.193 224.927 750.424 224.927C749.483 224.927 748.186 226.566 746.533 229.843C744.909 233.092 743.227 236.769 741.489 240.873L740.89 242.241C740.377 243.352 739.864 243.908 739.351 243.908C739.066 243.908 738.881 243.851 738.796 243.737C738.739 243.595 738.71 243.31 738.71 242.882C738.71 242.455 739.266 239.163 740.377 233.007C741.517 226.851 742.173 223.616 742.344 223.303C742.515 222.961 742.657 222.747 742.771 222.661C742.914 222.576 743.17 222.533 743.541 222.533C743.883 222.533 744.154 222.661 744.353 222.918C744.581 223.174 744.695 223.431 744.695 223.687C744.695 223.858 744.553 224.414 744.268 225.355C743.413 228.262 742.743 231.083 742.258 233.819L741.831 236.341C742.315 235.315 742.672 234.517 742.9 233.947C743.698 232.095 744.424 230.47 745.08 229.074C745.764 227.677 746.519 226.381 747.346 225.184C748.6 223.388 749.768 222.49 750.851 222.49C752.761 222.49 753.715 224.029 753.715 227.107C753.715 227.763 753.63 228.604 753.459 229.63C753.288 230.656 753.103 231.71 752.903 232.793C752.504 234.874 752.248 236.299 752.134 237.068L751.834 239.035C751.578 240.802 751.35 242.098 751.15 242.925C750.951 243.751 750.666 244.165 750.295 244.165Z" fill="white"/>
<path d="M749.098 243.01L739.236 241.355L739.208 241.522L739.186 241.689L749.098 243.01ZM751.193 230.527L761.055 232.182L761.057 232.171L751.193 230.527ZM746.533 229.843L737.605 225.34L737.597 225.356L737.589 225.371L746.533 229.843ZM741.489 240.873L750.65 244.881L750.674 244.827L750.697 244.773L741.489 240.873ZM740.89 242.241L749.97 246.431L750.012 246.341L750.052 246.249L740.89 242.241ZM738.796 243.737L729.511 247.451L730.002 248.679L730.795 249.737L738.796 243.737ZM740.377 233.007L730.544 231.186L730.54 231.208L730.536 231.23L740.377 233.007ZM742.344 223.303L751.123 228.091L751.208 227.934L751.288 227.775L742.344 223.303ZM742.771 222.661L737.626 214.086L737.184 214.352L736.771 214.661L742.771 222.661ZM744.353 222.918L736.459 229.057L736.661 229.316L736.879 229.561L744.353 222.918ZM744.268 225.355L734.697 222.455L734.685 222.494L734.674 222.533L744.268 225.355ZM742.258 233.819L732.411 232.075L732.405 232.112L732.399 232.148L742.258 233.819ZM741.831 236.341L731.971 234.67L750.873 240.611L741.831 236.341ZM742.9 233.947L733.715 229.991L733.663 230.112L733.615 230.233L742.9 233.947ZM745.08 229.074L736.099 224.675L736.063 224.75L736.027 224.825L745.08 229.074ZM747.346 225.184L739.147 219.458L739.132 219.48L739.117 219.502L747.346 225.184ZM753.459 229.63L743.595 227.986L743.595 227.986L753.459 229.63ZM752.903 232.793L762.724 234.677L762.731 234.641L762.738 234.605L752.903 232.793ZM752.134 237.068L762.02 238.573L762.023 238.553L762.026 238.534L752.134 237.068ZM751.834 239.035L741.948 237.53L741.943 237.564L741.938 237.598L751.834 239.035ZM751.15 242.925L760.871 245.271L760.871 245.271L751.15 242.925ZM750.295 244.165V234.165C750.646 234.165 751.343 234.193 752.232 234.424C753.127 234.658 754.484 235.17 755.82 236.316L749.312 243.908L742.804 251.501C745.741 254.018 749.048 254.165 750.295 254.165V244.165ZM749.312 243.908L755.82 236.316C759.515 239.482 759.107 243.606 759.011 244.332L749.098 243.01L739.186 241.689C738.975 243.269 738.71 247.992 742.804 251.501L749.312 243.908ZM749.098 243.01L758.96 244.665L761.055 232.182L751.193 230.527L741.331 228.872L739.236 241.355L749.098 243.01ZM751.193 230.527L761.057 232.171C761.339 230.476 761.578 228.644 761.578 226.979H751.578H741.578C741.578 226.914 741.58 227.034 741.54 227.408C741.501 227.762 741.435 228.248 741.329 228.883L751.193 230.527ZM751.578 226.979H761.578C761.578 225.685 761.453 223.112 760.005 220.537C758.085 217.125 754.509 214.927 750.424 214.927V224.927V234.927C749.09 234.927 747.445 234.615 745.83 233.658C744.226 232.707 743.19 231.439 742.573 230.343C741.99 229.306 741.768 228.409 741.677 227.924C741.582 227.42 741.578 227.077 741.578 226.979H751.578ZM750.424 224.927V214.927C747.27 214.927 744.96 216.275 743.742 217.167C742.47 218.099 741.534 219.155 740.904 219.951C739.637 221.552 738.544 223.478 737.605 225.34L746.533 229.843L755.462 234.346C755.794 233.688 756.067 233.194 756.281 232.837C756.504 232.467 756.607 232.336 756.587 232.361C756.572 232.38 756.493 232.479 756.348 232.627C756.207 232.771 755.946 233.019 755.561 233.302C754.902 233.784 753.107 234.927 750.424 234.927V224.927ZM746.533 229.843L737.589 225.371C735.852 228.844 734.084 232.716 732.281 236.972L741.489 240.873L750.697 244.773C752.371 240.821 753.965 237.34 755.478 234.315L746.533 229.843ZM741.489 240.873L732.327 236.865L731.729 238.233L740.89 242.241L750.052 246.249L750.65 244.881L741.489 240.873ZM740.89 242.241L731.811 238.05C731.812 238.047 731.826 238.017 731.853 237.966C731.88 237.916 731.924 237.834 731.989 237.729C732.106 237.538 732.357 237.159 732.773 236.708C733.505 235.916 735.716 233.908 739.351 233.908V243.908V253.908C743.5 253.908 746.224 251.623 747.469 250.274C748.735 248.902 749.511 247.426 749.97 246.431L740.89 242.241ZM739.351 243.908V233.908C739.783 233.908 740.746 233.94 741.939 234.308C743.152 234.681 745.185 235.59 746.796 237.737L738.796 243.737L730.795 249.737C732.491 251.998 734.66 252.993 736.058 253.423C737.437 253.847 738.635 253.908 739.351 253.908V243.908ZM738.796 243.737L748.08 240.023C748.365 240.736 748.5 241.324 748.564 241.642C748.633 241.989 748.666 242.263 748.682 242.421C748.699 242.589 748.705 242.712 748.707 242.776C748.71 242.843 748.71 242.881 748.71 242.882H738.71H728.71C728.71 243.284 728.722 243.82 728.781 244.411C728.823 244.829 728.953 246.056 729.511 247.451L738.796 243.737ZM738.71 242.882H748.71C748.71 243.298 748.682 243.606 748.678 243.649C748.673 243.702 748.669 243.74 748.667 243.76C748.665 243.782 748.663 243.793 748.663 243.794C748.663 243.794 748.664 243.788 748.666 243.774C748.667 243.76 748.67 243.74 748.674 243.714C748.681 243.662 748.691 243.592 748.704 243.502C748.76 243.13 748.852 242.558 748.987 241.757C749.256 240.168 749.664 237.85 750.218 234.784L740.377 233.007L730.536 231.23C729.979 234.319 729.554 236.725 729.266 238.428C729.124 239.273 729.007 239.989 728.924 240.547C728.903 240.689 728.71 241.852 728.71 242.882H738.71ZM740.377 233.007L750.21 234.828C750.777 231.765 751.214 229.483 751.525 227.95C751.682 227.173 751.793 226.657 751.864 226.354C751.901 226.193 751.907 226.179 751.887 226.252C751.877 226.286 751.838 226.426 751.77 226.625C751.746 226.697 751.537 227.331 751.123 228.091L742.344 223.303L733.565 218.514C733.129 219.313 732.895 220.009 732.842 220.166C732.745 220.45 732.673 220.698 732.627 220.862C732.533 221.197 732.451 221.534 732.385 221.817C732.249 222.401 732.093 223.137 731.923 223.978C731.578 225.679 731.117 228.092 730.544 231.186L740.377 233.007ZM742.344 223.303L751.288 227.775C751.268 227.814 751.14 228.072 750.899 228.433C750.775 228.62 750.567 228.914 750.273 229.257C749.997 229.58 749.501 230.114 748.771 230.661L742.771 222.661L736.771 214.661C735.353 215.725 734.538 216.919 734.258 217.339C733.875 217.913 733.59 218.449 733.399 218.83L742.344 223.303ZM742.771 222.661L747.916 231.236C746.479 232.099 745.203 232.348 744.714 232.429C744.125 232.527 743.695 232.533 743.541 232.533V222.533V212.533C743.084 212.533 740.331 212.464 737.626 214.086L742.771 222.661ZM743.541 222.533V232.533C742.441 232.533 741.1 232.32 739.719 231.667C738.323 231.005 737.238 230.058 736.459 229.057L744.353 222.918L752.247 216.778C750.04 213.941 746.781 212.533 743.541 212.533V222.533ZM744.353 222.918L736.879 229.561C736.037 228.615 734.695 226.606 734.695 223.687H744.695H754.695C754.695 220.255 753.125 217.734 751.827 216.274L744.353 222.918ZM744.695 223.687H734.695C734.695 223.364 734.711 223.098 734.726 222.914C734.742 222.723 734.76 222.565 734.776 222.448C734.806 222.221 734.838 222.05 734.855 221.964C734.888 221.794 734.912 221.706 734.901 221.749C734.882 221.823 734.823 222.04 734.697 222.455L744.268 225.355L753.838 228.255C753.997 227.729 754.151 227.197 754.275 226.716C754.335 226.48 754.413 226.163 754.481 225.812C754.514 225.643 754.695 224.767 754.695 223.687H744.695ZM744.268 225.355L734.674 222.533C733.724 225.763 732.966 228.945 732.411 232.075L742.258 233.819L752.105 235.563C752.52 233.221 753.101 230.76 753.861 228.176L744.268 225.355ZM742.258 233.819L732.399 232.148L731.971 234.67L741.831 236.341L751.69 238.012L752.118 235.49L742.258 233.819ZM741.831 236.341L750.873 240.611C751.385 239.528 751.843 238.514 752.184 237.661L742.9 233.947L733.615 230.233C733.5 230.52 733.246 231.103 732.788 232.071L741.831 236.341ZM742.9 233.947L752.084 237.904C752.851 236.121 753.533 234.598 754.132 233.323L745.08 229.074L736.027 224.825C735.315 226.342 734.544 228.068 733.715 229.991L742.9 233.947ZM745.08 229.074L754.06 233.473C754.541 232.491 755.049 231.627 755.574 230.865L747.346 225.184L739.117 219.502C737.989 221.134 736.987 222.863 736.099 224.675L745.08 229.074ZM747.346 225.184L755.544 230.909C755.841 230.484 755.772 230.696 755.255 231.093C754.715 231.508 753.187 232.49 750.851 232.49V222.49V212.49C747.432 212.49 744.778 213.921 743.07 215.234C741.384 216.529 740.104 218.088 739.147 219.458L747.346 225.184ZM750.851 222.49V232.49C749.965 232.49 748.703 232.303 747.371 231.588C746.015 230.86 745.079 229.846 744.502 228.916C743.528 227.347 743.715 226.278 743.715 227.107H753.715H763.715C763.715 224.859 763.425 221.481 761.497 218.373C759.079 214.475 755.038 212.49 750.851 212.49V222.49ZM753.715 227.107H743.715C743.715 227.017 743.72 227.043 743.702 227.218C743.685 227.385 743.653 227.637 743.595 227.986L753.459 229.63L763.323 231.274C763.538 229.98 763.715 228.536 763.715 227.107H753.715ZM753.459 229.63L743.595 227.986C743.434 228.952 743.258 229.951 743.068 230.981L752.903 232.793L762.738 234.605C762.947 233.469 763.142 232.359 763.323 231.274L753.459 229.63ZM752.903 232.793L743.082 230.91C742.687 232.971 742.391 234.594 742.241 235.603L752.134 237.068L762.026 238.534C762.104 238.003 762.321 236.777 762.724 234.677L752.903 232.793ZM752.134 237.068L742.247 235.564L741.948 237.53L751.834 239.035L761.72 240.539L762.02 238.573L752.134 237.068ZM751.834 239.035L741.938 237.598C741.689 239.315 741.514 240.228 741.429 240.578L751.15 242.925L760.871 245.271C761.185 243.969 761.467 242.288 761.731 240.471L751.834 239.035ZM751.15 242.925L741.429 240.578C741.446 240.51 741.681 239.445 742.555 238.177C743.554 236.729 746.094 234.165 750.295 234.165V244.165V254.165C754.867 254.165 757.735 251.394 759.019 249.532C760.178 247.851 760.655 246.167 760.871 245.271L751.15 242.925Z" fill="white" mask="url(#path-13-outside-2_59346_17302)"/>
<mask id="path-15-outside-3_59346_17302" maskUnits="userSpaceOnUse" x="705" y="203.408" width="31" height="45" fill="black">
<rect fill="white" x="705" y="203.408" width="31" height="45"/>
<path d="M714.918 246.836C713.408 246.836 712.054 246.465 710.857 245.724C709.66 244.983 708.734 243.986 708.078 242.732C707.423 241.478 707.095 240.11 707.095 238.628C707.095 238.058 707.465 235.621 708.206 231.317C708.947 227.014 709.802 222.44 710.771 217.595C711.769 212.721 712.667 208.845 713.465 205.967C713.522 205.767 713.636 205.61 713.807 205.496C714.006 205.382 714.206 205.325 714.405 205.325C715.004 205.325 715.303 205.568 715.303 206.052C714.305 209.9 712.98 215.999 711.327 224.349C709.703 232.7 708.89 237.602 708.89 239.055C708.89 240.737 709.432 242.133 710.515 243.245C711.598 244.328 713.08 244.869 714.961 244.869C717.269 244.869 719.122 244.342 720.518 243.287C721.915 242.204 722.927 240.751 723.554 238.927C724.58 235.849 725.435 232.885 726.119 230.035C726.831 227.185 727.629 223.722 728.513 219.647C728.627 219.191 728.983 217.58 729.581 214.816C730.208 212.023 730.878 209.415 731.591 206.993C731.733 206.508 731.947 206.109 732.232 205.796C732.545 205.482 732.83 205.325 733.087 205.325C733.6 205.325 733.856 205.568 733.856 206.052C733.856 206.081 733.728 206.537 733.472 207.42C732.816 209.33 732.26 211.239 731.804 213.149C731.519 214.289 731.006 216.597 730.265 220.074C729.154 225.318 728.142 229.707 727.23 233.241C726.318 236.775 725.349 239.483 724.323 241.364C722.385 245.012 719.25 246.836 714.918 246.836Z"/>
</mask>
<path d="M714.918 246.836C713.408 246.836 712.054 246.465 710.857 245.724C709.66 244.983 708.734 243.986 708.078 242.732C707.423 241.478 707.095 240.11 707.095 238.628C707.095 238.058 707.465 235.621 708.206 231.317C708.947 227.014 709.802 222.44 710.771 217.595C711.769 212.721 712.667 208.845 713.465 205.967C713.522 205.767 713.636 205.61 713.807 205.496C714.006 205.382 714.206 205.325 714.405 205.325C715.004 205.325 715.303 205.568 715.303 206.052C714.305 209.9 712.98 215.999 711.327 224.349C709.703 232.7 708.89 237.602 708.89 239.055C708.89 240.737 709.432 242.133 710.515 243.245C711.598 244.328 713.08 244.869 714.961 244.869C717.269 244.869 719.122 244.342 720.518 243.287C721.915 242.204 722.927 240.751 723.554 238.927C724.58 235.849 725.435 232.885 726.119 230.035C726.831 227.185 727.629 223.722 728.513 219.647C728.627 219.191 728.983 217.58 729.581 214.816C730.208 212.023 730.878 209.415 731.591 206.993C731.733 206.508 731.947 206.109 732.232 205.796C732.545 205.482 732.83 205.325 733.087 205.325C733.6 205.325 733.856 205.568 733.856 206.052C733.856 206.081 733.728 206.537 733.472 207.42C732.816 209.33 732.26 211.239 731.804 213.149C731.519 214.289 731.006 216.597 730.265 220.074C729.154 225.318 728.142 229.707 727.23 233.241C726.318 236.775 725.349 239.483 724.323 241.364C722.385 245.012 719.25 246.836 714.918 246.836Z" fill="#797B79"/>
<path d="M710.857 245.724L711.646 244.449L711.646 244.449L710.857 245.724ZM708.078 242.732L706.749 243.426L706.749 243.426L708.078 242.732ZM708.206 231.317L706.728 231.063L708.206 231.317ZM710.771 217.595L709.302 217.294L709.3 217.3L710.771 217.595ZM713.465 205.967L712.022 205.554L712.019 205.566L713.465 205.967ZM713.807 205.496L713.062 204.194L713.017 204.22L712.974 204.248L713.807 205.496ZM715.303 206.052L716.755 206.429L716.803 206.243V206.052H715.303ZM711.327 224.349L709.856 224.058L709.855 224.063L711.327 224.349ZM710.515 243.245L709.44 244.291L709.447 244.298L709.454 244.305L710.515 243.245ZM720.518 243.287L721.422 244.484L721.43 244.479L721.437 244.473L720.518 243.287ZM723.554 238.927L724.972 239.414L724.977 239.401L723.554 238.927ZM726.119 230.035L724.663 229.671L724.662 229.678L724.66 229.685L726.119 230.035ZM728.513 219.647L727.057 219.283L727.052 219.306L727.047 219.329L728.513 219.647ZM729.581 214.816L728.118 214.487L728.115 214.498L729.581 214.816ZM731.591 206.993L733.03 207.416L733.03 207.416L731.591 206.993ZM732.232 205.796L731.171 204.735L731.146 204.76L731.122 204.787L732.232 205.796ZM733.472 207.42L734.89 207.907L734.902 207.873L734.912 207.838L733.472 207.42ZM731.804 213.149L733.259 213.512L733.261 213.505L733.263 213.497L731.804 213.149ZM730.265 220.074L728.798 219.761L728.798 219.763L730.265 220.074ZM727.23 233.241L725.778 232.866L725.778 232.866L727.23 233.241ZM724.323 241.364L723.006 240.645L723.002 240.653L722.998 240.66L724.323 241.364ZM714.918 246.836V245.336C713.665 245.336 712.589 245.032 711.646 244.449L710.857 245.724L710.067 246.999C711.519 247.898 713.15 248.336 714.918 248.336V246.836ZM710.857 245.724L711.646 244.449C710.679 243.85 709.939 243.054 709.407 242.037L708.078 242.732L706.749 243.426C707.528 244.918 708.64 246.116 710.067 246.999L710.857 245.724ZM708.078 242.732L709.407 242.037C708.869 241.007 708.595 239.879 708.595 238.628H707.095H705.595C705.595 240.34 705.976 241.948 706.749 243.426L708.078 242.732ZM707.095 238.628H708.595C708.595 238.63 708.595 238.617 708.597 238.585C708.598 238.554 708.601 238.513 708.606 238.46C708.616 238.353 708.631 238.212 708.653 238.034C708.697 237.678 708.764 237.201 708.856 236.598C709.039 235.394 709.315 233.72 709.684 231.572L708.206 231.317L706.728 231.063C706.357 233.218 706.077 234.914 705.89 236.147C705.712 237.317 705.595 238.202 705.595 238.628H707.095ZM708.206 231.317L709.684 231.572C710.423 227.283 711.275 222.722 712.242 217.889L710.771 217.595L709.3 217.3C708.329 222.157 707.472 226.744 706.728 231.063L708.206 231.317ZM710.771 217.595L712.241 217.895C713.235 213.037 714.125 209.198 714.91 206.367L713.465 205.967L712.019 205.566C711.208 208.492 710.302 212.406 709.302 217.294L710.771 217.595ZM713.465 205.967L714.907 206.379C714.89 206.436 714.859 206.508 714.806 206.582C714.752 206.655 714.692 206.709 714.639 206.744L713.807 205.496L712.974 204.248C712.504 204.562 712.176 205.016 712.022 205.555L713.465 205.967ZM713.807 205.496L714.551 206.799C714.557 206.795 714.546 206.802 714.518 206.81C714.489 206.819 714.45 206.825 714.405 206.825V205.325V203.825C713.907 203.825 713.454 203.97 713.062 204.194L713.807 205.496ZM714.405 205.325V206.825C714.541 206.825 714.365 206.859 714.135 206.673C714.01 206.572 713.916 206.442 713.86 206.305C713.807 206.178 713.803 206.083 713.803 206.052H715.303H716.803C716.803 205.485 716.612 204.819 716.022 204.341C715.493 203.913 714.868 203.825 714.405 203.825V205.325ZM715.303 206.052L713.851 205.676C712.842 209.568 711.509 215.703 709.856 224.058L711.327 224.349L712.798 224.64C714.451 216.294 715.769 210.231 716.755 206.429L715.303 206.052ZM711.327 224.349L709.855 224.063C709.041 228.243 708.429 231.572 708.02 234.043C707.619 236.462 707.39 238.181 707.39 239.055H708.89H710.39C710.39 238.476 710.568 237.017 710.979 234.534C711.382 232.103 711.988 228.805 712.799 224.636L711.327 224.349ZM708.89 239.055H707.39C707.39 241.092 708.06 242.875 709.44 244.291L710.515 243.245L711.589 242.198C710.803 241.391 710.39 240.381 710.39 239.055H708.89ZM710.515 243.245L709.454 244.305C710.88 245.731 712.778 246.369 714.961 246.369V244.869V243.369C713.381 243.369 712.316 242.924 711.575 242.184L710.515 243.245ZM714.961 244.869V246.369C717.492 246.369 719.693 245.79 721.422 244.484L720.518 243.287L719.614 242.09C718.55 242.894 717.047 243.369 714.961 243.369V244.869ZM720.518 243.287L721.437 244.473C723.086 243.194 724.259 241.488 724.972 239.414L723.554 238.927L722.135 238.439C721.594 240.013 720.744 241.214 719.599 242.102L720.518 243.287ZM723.554 238.927L724.977 239.401C726.015 236.287 726.882 233.281 727.577 230.385L726.119 230.035L724.66 229.685C723.987 232.489 723.144 235.411 722.13 238.452L723.554 238.927ZM726.119 230.035L727.574 230.399C728.291 227.529 729.093 224.049 729.978 219.964L728.513 219.647L727.047 219.329C726.165 223.395 725.371 226.841 724.663 229.671L726.119 230.035ZM728.513 219.647L729.968 220.01C730.089 219.525 730.452 217.883 731.047 215.133L729.581 214.816L728.115 214.498C727.514 217.278 727.164 218.856 727.057 219.283L728.513 219.647ZM729.581 214.816L731.045 215.144C731.666 212.379 732.327 209.803 733.03 207.416L731.591 206.993L730.151 206.569C729.429 209.027 728.751 211.667 728.118 214.487L729.581 214.816ZM731.591 206.993L733.03 207.416C733.12 207.108 733.236 206.921 733.342 206.805L732.232 205.796L731.122 204.787C730.658 205.297 730.346 205.909 730.151 206.569L731.591 206.993ZM732.232 205.796L733.292 206.856C733.383 206.766 733.421 206.748 733.404 206.757C733.383 206.769 733.27 206.825 733.087 206.825V205.325V203.825C732.226 203.825 731.575 204.331 731.171 204.735L732.232 205.796ZM733.087 205.325V206.825C733.133 206.825 732.888 206.838 732.634 206.598C732.363 206.342 732.356 206.064 732.356 206.052H733.856H735.356C735.356 205.556 735.221 204.914 734.694 204.416C734.183 203.934 733.554 203.825 733.087 203.825V205.325ZM733.856 206.052H732.356C732.356 205.942 732.369 205.856 732.371 205.841C732.376 205.809 732.381 205.785 732.383 205.774C732.385 205.762 732.387 205.752 732.388 205.747C732.389 205.742 732.39 205.738 732.391 205.737C732.391 205.735 732.389 205.744 732.382 205.77C732.369 205.819 732.348 205.897 732.316 206.009C732.254 206.231 732.159 206.561 732.031 207.002L733.472 207.42L734.912 207.838C735.041 207.396 735.138 207.056 735.204 206.822C735.237 206.705 735.263 206.609 735.282 206.537C735.291 206.503 735.301 206.464 735.31 206.429C735.314 206.412 735.32 206.383 735.327 206.35C735.33 206.334 735.335 206.306 735.34 206.271C735.343 206.252 735.356 206.164 735.356 206.052H733.856ZM733.472 207.42L732.053 206.933C731.382 208.887 730.813 210.843 730.345 212.8L731.804 213.149L733.263 213.497C733.708 211.636 734.25 209.772 734.89 207.907L733.472 207.42ZM731.804 213.149L730.349 212.785C730.057 213.955 729.538 216.289 728.798 219.761L730.265 220.074L731.732 220.387C732.474 216.905 732.982 214.623 733.259 213.512L731.804 213.149ZM730.265 220.074L728.798 219.763C727.689 224.995 726.682 229.361 725.778 232.866L727.23 233.241L728.682 233.616C729.602 230.053 730.619 225.642 731.733 220.385L730.265 220.074ZM727.23 233.241L725.778 232.866C724.878 236.352 723.946 238.922 723.006 240.645L724.323 241.364L725.64 242.082C726.752 240.043 727.758 237.198 728.682 233.616L727.23 233.241ZM724.323 241.364L722.998 240.66C722.142 242.272 721.058 243.418 719.764 244.171C718.466 244.926 716.871 245.336 714.918 245.336V246.836V248.336C717.297 248.336 719.435 247.833 721.273 246.764C723.114 245.693 724.566 244.103 725.648 242.067L724.323 241.364Z" fill="#797B79" mask="url(#path-15-outside-3_59346_17302)"/>
<mask id="path-17-outside-4_59346_17302" maskUnits="userSpaceOnUse" x="737" y="220.908" width="19" height="25" fill="black">
<rect fill="white" x="737" y="220.908" width="19" height="25"/>
<path d="M750.295 244.165C749.839 244.165 749.512 244.079 749.312 243.908C749.113 243.737 749.041 243.438 749.098 243.01L751.193 230.527C751.45 228.988 751.578 227.806 751.578 226.979C751.578 225.611 751.193 224.927 750.424 224.927C749.483 224.927 748.186 226.566 746.533 229.843C744.909 233.092 743.227 236.769 741.489 240.873L740.89 242.241C740.377 243.352 739.864 243.908 739.351 243.908C739.066 243.908 738.881 243.851 738.796 243.737C738.739 243.595 738.71 243.31 738.71 242.882C738.71 242.455 739.266 239.163 740.377 233.007C741.517 226.851 742.173 223.616 742.344 223.303C742.515 222.961 742.657 222.747 742.771 222.661C742.914 222.576 743.17 222.533 743.541 222.533C743.883 222.533 744.154 222.661 744.353 222.918C744.581 223.174 744.695 223.431 744.695 223.687C744.695 223.858 744.553 224.414 744.268 225.355C743.413 228.262 742.743 231.083 742.258 233.819L741.831 236.341C742.315 235.315 742.672 234.517 742.9 233.947C743.698 232.095 744.424 230.47 745.08 229.074C745.764 227.677 746.519 226.381 747.346 225.184C748.6 223.388 749.768 222.49 750.851 222.49C752.761 222.49 753.715 224.029 753.715 227.107C753.715 227.763 753.63 228.604 753.459 229.63C753.288 230.656 753.103 231.71 752.903 232.793C752.504 234.874 752.248 236.299 752.134 237.068L751.834 239.035C751.578 240.802 751.35 242.098 751.15 242.925C750.951 243.751 750.666 244.165 750.295 244.165Z"/>
</mask>
<path d="M750.295 244.165C749.839 244.165 749.512 244.079 749.312 243.908C749.113 243.737 749.041 243.438 749.098 243.01L751.193 230.527C751.45 228.988 751.578 227.806 751.578 226.979C751.578 225.611 751.193 224.927 750.424 224.927C749.483 224.927 748.186 226.566 746.533 229.843C744.909 233.092 743.227 236.769 741.489 240.873L740.89 242.241C740.377 243.352 739.864 243.908 739.351 243.908C739.066 243.908 738.881 243.851 738.796 243.737C738.739 243.595 738.71 243.31 738.71 242.882C738.71 242.455 739.266 239.163 740.377 233.007C741.517 226.851 742.173 223.616 742.344 223.303C742.515 222.961 742.657 222.747 742.771 222.661C742.914 222.576 743.17 222.533 743.541 222.533C743.883 222.533 744.154 222.661 744.353 222.918C744.581 223.174 744.695 223.431 744.695 223.687C744.695 223.858 744.553 224.414 744.268 225.355C743.413 228.262 742.743 231.083 742.258 233.819L741.831 236.341C742.315 235.315 742.672 234.517 742.9 233.947C743.698 232.095 744.424 230.47 745.08 229.074C745.764 227.677 746.519 226.381 747.346 225.184C748.6 223.388 749.768 222.49 750.851 222.49C752.761 222.49 753.715 224.029 753.715 227.107C753.715 227.763 753.63 228.604 753.459 229.63C753.288 230.656 753.103 231.71 752.903 232.793C752.504 234.874 752.248 236.299 752.134 237.068L751.834 239.035C751.578 240.802 751.35 242.098 751.15 242.925C750.951 243.751 750.666 244.165 750.295 244.165Z" fill="#797B79"/>
<path d="M749.098 243.01L747.619 242.762L747.615 242.787L747.611 242.812L749.098 243.01ZM751.193 230.527L752.672 230.776L752.673 230.774L751.193 230.527ZM746.533 229.843L745.194 229.168L745.192 229.173L746.533 229.843ZM741.489 240.873L742.863 241.474L742.867 241.466L742.87 241.458L741.489 240.873ZM740.89 242.241L742.252 242.869L742.258 242.856L742.264 242.842L740.89 242.241ZM738.796 243.737L737.403 244.294L737.476 244.478L737.595 244.637L738.796 243.737ZM740.377 233.007L738.902 232.734L738.901 232.74L740.377 233.007ZM742.344 223.303L743.661 224.021L743.673 223.997L743.685 223.973L742.344 223.303ZM742.771 222.661L742 221.375L741.933 221.415L741.871 221.461L742.771 222.661ZM744.353 222.918L743.169 223.839L743.199 223.878L743.232 223.914L744.353 222.918ZM744.268 225.355L742.832 224.92L742.828 224.931L744.268 225.355ZM742.258 233.819L740.781 233.558L740.779 233.568L742.258 233.819ZM741.831 236.341L740.352 236.091L743.187 236.982L741.831 236.341ZM742.9 233.947L741.522 233.354L741.514 233.372L741.507 233.39L742.9 233.947ZM745.08 229.074L743.733 228.414L743.727 228.425L743.722 228.436L745.08 229.074ZM747.346 225.184L746.116 224.325L746.111 224.331L747.346 225.184ZM753.459 229.63L751.979 229.383L751.979 229.383L753.459 229.63ZM752.903 232.793L754.376 233.076L754.378 233.065L752.903 232.793ZM752.134 237.068L753.616 237.294L753.617 237.288L752.134 237.068ZM751.834 239.035L750.351 238.809L750.35 238.819L751.834 239.035ZM751.15 242.925L752.608 243.277L752.608 243.277L751.15 242.925ZM750.295 244.165V242.665C750.227 242.665 750.176 242.661 750.14 242.657C750.122 242.655 750.109 242.653 750.1 242.652C750.09 242.65 750.086 242.649 750.086 242.649C750.086 242.649 750.091 242.65 750.1 242.654C750.11 242.657 750.124 242.663 750.142 242.671C750.178 242.689 750.23 242.72 750.288 242.769L749.312 243.908L748.336 245.047C748.946 245.57 749.721 245.665 750.295 245.665V244.165ZM749.312 243.908L750.288 242.769C750.468 242.923 750.543 243.104 750.568 243.208C750.588 243.293 750.572 243.308 750.585 243.209L749.098 243.01L747.611 242.812C747.531 243.413 747.552 244.375 748.336 245.047L749.312 243.908ZM749.098 243.01L750.578 243.259L752.672 230.776L751.193 230.527L749.714 230.279L747.619 242.762L749.098 243.01ZM751.193 230.527L752.673 230.774C752.933 229.212 753.078 227.931 753.078 226.979H751.578H750.078C750.078 227.68 749.966 228.765 749.713 230.281L751.193 230.527ZM751.578 226.979H753.078C753.078 226.204 752.977 225.382 752.597 224.705C752.145 223.902 751.363 223.427 750.424 223.427V224.927V226.427C750.387 226.427 750.283 226.417 750.164 226.346C750.046 226.276 749.993 226.195 749.982 226.175C749.976 226.165 750.004 226.212 750.031 226.358C750.058 226.5 750.078 226.703 750.078 226.979H751.578ZM750.424 224.927V223.427C749.751 223.427 749.185 223.716 748.765 224.024C748.336 224.338 747.939 224.758 747.569 225.225C746.828 226.162 746.037 227.496 745.194 229.168L746.533 229.843L747.873 230.519C748.682 228.914 749.366 227.789 749.922 227.087C750.2 226.735 750.407 226.54 750.538 226.444C750.677 226.343 750.626 226.427 750.424 226.427V224.927ZM746.533 229.843L745.192 229.173C743.55 232.455 741.856 236.161 740.108 240.288L741.489 240.873L742.87 241.458C744.599 237.377 746.267 233.73 747.875 230.514L746.533 229.843ZM741.489 240.873L740.115 240.272L739.516 241.64L740.89 242.241L742.264 242.842L742.863 241.474L741.489 240.873ZM740.89 242.241L739.528 241.612C739.302 242.102 739.124 242.36 739.019 242.474C738.91 242.591 739.024 242.408 739.351 242.408V243.908V245.408C740.192 245.408 740.818 244.947 741.223 244.509C741.631 244.067 741.965 243.491 742.252 242.869L740.89 242.241ZM739.351 243.908V242.408C739.295 242.408 739.339 242.401 739.44 242.432C739.543 242.463 739.79 242.563 739.996 242.837L738.796 243.737L737.595 244.637C737.886 245.025 738.269 245.21 738.557 245.299C738.843 245.387 739.123 245.408 739.351 245.408V243.908ZM738.796 243.737L740.188 243.18C740.219 243.257 740.229 243.307 740.229 243.309C740.23 243.316 740.228 243.304 740.224 243.267C740.216 243.192 740.21 243.068 740.21 242.882H738.71H737.21C737.21 243.124 737.218 243.356 737.239 243.566C737.257 243.749 737.295 244.024 737.403 244.294L738.796 243.737ZM738.71 242.882H740.21C740.21 242.914 740.221 242.759 740.298 242.246C740.365 241.795 740.468 241.162 740.606 240.342C740.882 238.705 741.298 236.35 741.853 233.273L740.377 233.007L738.901 232.74C738.345 235.82 737.927 238.189 737.648 239.843C737.508 240.669 737.402 241.324 737.331 241.803C737.268 242.219 737.21 242.637 737.21 242.882H738.71ZM740.377 233.007L741.852 233.28C742.422 230.204 742.869 227.866 743.194 226.262C743.357 225.458 743.487 224.848 743.586 224.426C743.635 224.213 743.673 224.061 743.701 223.961C743.746 223.801 743.735 223.885 743.661 224.021L742.344 223.303L741.027 222.584C740.91 222.799 740.841 223.052 740.812 223.153C740.767 223.314 740.718 223.514 740.664 223.745C740.556 224.21 740.419 224.852 740.254 225.666C739.923 227.296 739.473 229.653 738.902 232.734L740.377 233.007ZM742.344 223.303L743.685 223.973C743.719 223.906 743.748 223.851 743.773 223.807C743.798 223.763 743.816 223.734 743.827 223.718C743.839 223.7 743.836 223.706 743.819 223.726C743.81 223.736 743.795 223.754 743.772 223.776C743.749 223.798 743.716 223.828 743.671 223.861L742.771 222.661L741.871 221.461C741.61 221.657 741.433 221.9 741.331 222.054C741.213 222.231 741.103 222.429 741.002 222.632L742.344 223.303ZM742.771 222.661L743.543 223.948C743.5 223.974 743.462 223.992 743.431 224.006C743.401 224.019 743.376 224.028 743.359 224.033C743.325 224.044 743.309 224.046 743.317 224.045C743.325 224.043 743.347 224.04 743.386 224.038C743.425 224.035 743.476 224.033 743.541 224.033V222.533V221.033C743.157 221.033 742.526 221.059 742 221.375L742.771 222.661ZM743.541 222.533V224.033C743.521 224.033 743.45 224.028 743.358 223.985C743.264 223.94 743.201 223.88 743.169 223.839L744.353 222.918L745.537 221.997C745.036 221.353 744.317 221.033 743.541 221.033V222.533ZM744.353 222.918L743.232 223.914C743.265 223.952 743.257 223.952 743.239 223.912C743.219 223.867 743.195 223.788 743.195 223.687H744.695H746.195C746.195 222.955 745.863 222.358 745.474 221.921L744.353 222.918ZM744.695 223.687H743.195C743.195 223.575 743.212 223.52 743.196 223.599C743.186 223.651 743.167 223.735 743.135 223.86C743.072 224.107 742.972 224.458 742.832 224.92L744.268 225.355L745.703 225.79C745.848 225.311 745.962 224.913 746.041 224.605C746.1 224.374 746.195 223.999 746.195 223.687H744.695ZM744.268 225.355L742.828 224.931C741.959 227.887 741.276 230.762 740.781 233.558L742.258 233.819L743.735 234.081C744.209 231.404 744.866 228.636 745.707 225.778L744.268 225.355ZM742.258 233.819L740.779 233.568L740.352 236.091L741.831 236.341L743.31 236.592L743.737 234.07L742.258 233.819ZM741.831 236.341L743.187 236.982C743.676 235.947 744.047 235.117 744.292 234.504L742.9 233.947L741.507 233.39C741.296 233.918 740.955 234.683 740.474 235.701L741.831 236.341ZM742.9 233.947L744.277 234.541C745.071 232.699 745.791 231.09 746.438 229.711L745.08 229.074L743.722 228.436C743.058 229.851 742.324 231.491 741.522 233.354L742.9 233.947ZM745.08 229.074L746.427 229.734C747.08 228.399 747.798 227.168 748.58 226.036L747.346 225.184L746.111 224.331C745.24 225.594 744.447 226.955 743.733 228.414L745.08 229.074ZM747.346 225.184L748.575 226.042C749.153 225.215 749.657 224.675 750.076 224.353C750.492 224.034 750.741 223.99 750.851 223.99V222.49V220.99C749.878 220.99 749.001 221.396 748.249 221.974C747.499 222.55 746.792 223.356 746.116 224.325L747.346 225.184ZM750.851 222.49V223.99C751.321 223.99 751.538 224.135 751.725 224.435C751.984 224.854 752.215 225.675 752.215 227.107H753.715H755.215C755.215 225.462 754.969 223.974 754.274 222.854C753.505 221.615 752.291 220.99 750.851 220.99V222.49ZM753.715 227.107H752.215C752.215 227.647 752.143 228.397 751.979 229.383L753.459 229.63L754.938 229.876C755.116 228.81 755.215 227.879 755.215 227.107H753.715ZM753.459 229.63L751.979 229.383C751.81 230.4 751.626 231.446 751.428 232.521L752.903 232.793L754.378 233.065C754.579 231.974 754.766 230.911 754.938 229.876L753.459 229.63ZM752.903 232.793L751.43 232.511C751.031 234.588 750.769 236.043 750.65 236.848L752.134 237.068L753.617 237.288C753.726 236.554 753.977 235.159 754.376 233.076L752.903 232.793ZM752.134 237.068L750.651 236.842L750.351 238.809L751.834 239.035L753.317 239.26L753.616 237.294L752.134 237.068ZM751.834 239.035L750.35 238.819C750.094 240.579 749.874 241.818 749.692 242.573L751.15 242.925L752.608 243.277C752.825 242.379 753.061 241.025 753.319 239.25L751.834 239.035ZM751.15 242.925L749.692 242.573C749.654 242.731 749.618 242.844 749.587 242.921C749.556 243.001 749.54 243.02 749.552 243.003C749.563 242.987 749.625 242.902 749.757 242.818C749.903 242.726 750.091 242.665 750.295 242.665V244.165V245.665C751.138 245.665 751.708 245.161 752.022 244.706C752.317 244.279 752.491 243.762 752.608 243.277L751.15 242.925Z" fill="#797B79" mask="url(#path-17-outside-4_59346_17302)"/>
<path fill-rule="evenodd" clip-rule="evenodd" d="M777.93 234.854C779.222 235.909 780.178 237.338 780.656 238.965C780.892 239.767 781.096 240.64 781.263 241.582C781.265 241.591 781.265 241.599 781.266 241.607C781.457 242.696 781.554 243.811 781.554 244.956C781.554 245.405 781.539 245.83 781.512 246.228C781.487 246.58 781.449 246.955 781.4 247.356C781.036 250.38 779.05 252.963 776.222 254.094C775.269 254.475 774.044 254.821 772.502 255.047C771.394 255.209 770.169 255.298 768.827 255.298C764.365 255.298 760.948 253.915 758.406 251.726C755.579 249.303 753.672 245.683 753.672 240.467C753.672 239.687 753.722 238.868 753.832 238.032C753.911 237.417 754.01 236.772 754.13 236.096C754.137 236.061 754.143 236.026 754.15 235.991L757.234 220.009C757.241 219.972 757.249 219.934 757.257 219.895C757.54 218.529 757.744 217.339 757.861 216.318C757.958 215.464 758.018 214.743 758.018 214.157C758.018 214.026 758.016 213.916 758.011 213.831C758.005 213.72 757.993 213.597 757.978 213.465C757.48 209.088 760.472 205.082 764.808 204.316C765.594 204.177 766.495 204.067 767.513 203.997C768.415 203.935 769.198 203.908 769.856 203.908C771.185 203.908 772.654 204.033 774.258 204.309C777.288 204.829 779.785 206.977 780.755 209.896C781.141 211.059 781.414 212.515 781.414 214.297C781.414 215.307 781.328 216.458 781.138 217.751C781.001 218.693 780.825 219.723 780.616 220.838L777.93 234.854ZM765.416 221.588C765.759 219.937 766 218.496 766.14 217.264C766.281 216.035 766.351 214.999 766.351 214.157C766.351 213.816 766.343 213.526 766.327 213.292C766.312 213.06 766.289 212.801 766.257 212.522C766.787 212.428 767.394 212.358 768.081 212.311C768.765 212.264 769.358 212.241 769.856 212.241C770.759 212.241 771.757 212.335 772.847 212.522C773.002 212.99 773.081 213.58 773.081 214.297C773.081 214.952 773.017 215.699 772.893 216.54C772.77 217.383 772.613 218.302 772.425 219.298L768.827 238.085C768.735 238.614 768.688 239.05 768.688 239.393C768.688 239.892 768.758 240.282 768.897 240.563C769.037 240.842 769.218 241.061 769.435 241.216C769.654 241.372 769.903 241.474 770.182 241.519C770.463 241.567 770.744 241.589 771.025 241.589C771.148 241.589 771.382 241.567 771.725 241.519C772.068 241.474 772.379 241.404 772.659 241.31C772.815 241.84 772.947 242.416 773.057 243.038C773.166 243.662 773.221 244.3 773.221 244.956C773.221 245.203 773.213 245.437 773.198 245.656C773.183 245.875 773.158 246.107 773.128 246.356C772.659 246.544 772.053 246.691 771.304 246.801C770.557 246.91 769.731 246.965 768.827 246.965C766.709 246.965 765.042 246.443 763.828 245.399C762.612 244.356 762.005 242.712 762.005 240.467C762.005 240.031 762.035 239.573 762.098 239.09C762.16 238.607 762.237 238.1 762.332 237.571L765.416 221.588Z" fill="white"/>
<path d="M783.486 218.456C783.454 217.366 783.525 216.33 783.697 215.347C783.867 214.366 784.14 213.331 784.514 212.239C785.074 212.116 785.668 212.03 786.291 211.984C786.913 211.935 787.473 211.913 787.973 211.913C788.471 211.913 789.024 211.935 789.633 211.984C790.238 212.03 790.808 212.116 791.338 212.239C791.338 213.331 791.244 214.374 791.057 215.372C790.87 216.368 790.589 217.396 790.216 218.456C789.654 218.55 789.071 218.611 788.463 218.643C787.856 218.673 787.302 218.688 786.804 218.688C786.336 218.688 785.791 218.673 785.169 218.643C784.546 218.611 783.984 218.55 783.486 218.456ZM782.131 227.569H779.187C779.187 227.474 779.179 227.382 779.163 227.289C779.148 227.195 779.14 227.086 779.14 226.961C779.14 226.152 779.217 225.395 779.372 224.694C779.528 223.992 779.762 223.268 780.074 222.521H789.514L785.261 246.682C784.078 246.87 782.956 246.963 781.897 246.963C780.93 246.963 779.887 246.87 778.766 246.682L782.131 227.569Z" stroke="white" stroke-width="8.34123" stroke-miterlimit="1.5" stroke-linecap="square" stroke-linejoin="round"/>
<path fill-rule="evenodd" clip-rule="evenodd" d="M818.281 215.093C820.417 214.145 822.684 213.675 825.076 213.675C829.529 213.675 832.77 215.159 835.067 217.344C837.347 219.511 839.111 222.914 839.111 227.991C839.111 229.522 838.96 231.147 838.656 232.805L835.945 248.133C835.326 251.635 832.553 254.358 829.041 254.913C827.406 255.172 825.835 255.296 824.329 255.296C822.746 255.296 821.186 255.159 819.652 254.888C818.96 254.766 818.303 254.56 817.689 254.285C817.029 254.582 816.324 254.796 815.583 254.913C813.95 255.172 812.375 255.296 810.869 255.296C809.29 255.296 807.732 255.161 806.195 254.888C805.493 254.764 804.816 254.552 804.181 254.26C803.499 254.577 802.765 254.8 801.996 254.918C800.33 255.176 798.77 255.296 797.316 255.296C795.736 255.296 794.178 255.161 792.642 254.888C790.456 254.502 788.515 253.26 787.248 251.438C785.983 249.616 785.494 247.364 785.894 245.181L788.41 231.444C788.717 229.676 788.951 228.114 789.107 226.744C789.232 225.635 789.311 224.774 789.311 224.158V223.402C788.851 219.069 791.805 215.114 796.091 214.327C797.62 214.046 799.151 213.909 800.681 213.909C801.435 213.909 802.187 213.944 802.884 214.018C803.564 214.083 804.288 214.183 805.057 214.322C805.413 214.385 805.761 214.472 806.098 214.584C807.842 213.978 809.681 213.675 811.616 213.675C814.256 213.675 816.457 214.21 818.281 215.093ZM796.616 232.897C796.958 230.933 797.216 229.197 797.386 227.686C797.558 226.174 797.644 224.998 797.644 224.158V223.293C797.644 223.059 797.627 222.802 797.597 222.523C798.625 222.334 799.653 222.242 800.681 222.242C801.149 222.242 801.615 222.264 802.083 222.312C802.551 222.357 803.049 222.427 803.578 222.523C803.641 222.77 803.703 223.066 803.765 223.409C803.828 223.751 803.859 224.266 803.859 224.952C803.859 225.232 803.85 225.513 803.835 225.792C803.82 226.073 803.78 226.416 803.718 226.82C804.435 225.481 805.502 224.345 806.919 223.409C808.337 222.474 809.903 222.008 811.616 222.008C813.268 222.008 814.553 222.374 815.473 223.106C816.39 223.838 816.945 225.045 817.131 226.727C817.878 225.42 818.968 224.305 820.402 223.387C821.836 222.468 823.394 222.008 825.076 222.008C826.945 222.008 828.362 222.468 829.329 223.387C830.295 224.305 830.778 225.839 830.778 227.991C830.778 229.049 830.667 230.17 830.45 231.354L827.739 246.682C826.555 246.869 825.419 246.963 824.329 246.963C823.237 246.963 822.162 246.869 821.104 246.682L823.72 231.869C823.846 231.152 823.908 230.481 823.908 229.858C823.908 229.017 823.737 228.425 823.394 228.082C823.052 227.74 822.52 227.569 821.805 227.569C821.368 227.569 820.894 227.678 820.379 227.895C819.866 228.114 819.344 228.535 818.813 229.157C818.284 229.781 817.786 230.637 817.318 231.728C816.852 232.818 816.461 234.236 816.15 235.981L814.279 246.682C813.097 246.869 811.959 246.963 810.869 246.963C809.779 246.963 808.704 246.869 807.645 246.682L810.262 231.869C810.386 231.152 810.448 230.481 810.448 229.858C810.448 229.017 810.277 228.425 809.935 228.082C809.592 227.74 809.062 227.569 808.345 227.569C807.909 227.569 807.426 227.678 806.896 227.895C806.368 228.114 805.838 228.574 805.308 229.274C804.778 229.976 804.265 230.966 803.765 232.243C803.267 233.52 802.831 235.202 802.458 237.29L800.728 246.682C799.512 246.869 798.376 246.963 797.316 246.963C796.226 246.963 795.151 246.869 794.091 246.682L796.616 232.897Z" fill="white"/>
<path d="M842.135 218.456C842.103 217.366 842.173 216.33 842.345 215.347C842.516 214.366 842.79 213.331 843.163 212.239C843.724 212.116 844.316 212.03 844.938 211.984C845.561 211.935 846.123 211.913 846.621 211.913C847.119 211.913 847.673 211.935 848.281 211.984C848.888 212.03 849.456 212.116 849.986 212.239C849.986 213.331 849.892 214.374 849.705 215.372C849.52 216.368 849.239 217.396 848.864 218.456C848.304 218.55 847.719 218.611 847.113 218.643C846.504 218.673 845.953 218.688 845.453 218.688C844.986 218.688 844.44 218.673 843.818 218.643C843.194 218.611 842.634 218.55 842.135 218.456ZM840.781 227.569H837.835C837.835 227.474 837.827 227.382 837.812 227.289C837.797 227.195 837.788 227.086 837.788 226.961C837.788 226.152 837.867 225.395 838.023 224.694C838.178 223.992 838.412 223.268 838.723 222.521H848.164L843.912 246.682C842.726 246.87 841.605 246.963 840.545 246.963C839.58 246.963 838.536 246.87 837.414 246.682L840.781 227.569Z" stroke="white" stroke-width="8.34123" stroke-miterlimit="1.5" stroke-linecap="square" stroke-linejoin="round"/>
<path fill-rule="evenodd" clip-rule="evenodd" d="M850.025 215.156C850.521 213.13 851.772 211.336 853.56 210.17C855.197 209.1 857.216 208.267 859.685 207.823C861.43 207.51 863.042 207.366 864.518 207.366C868.105 207.366 871.289 209.662 872.423 213.065C872.591 213.568 872.738 214.13 872.847 214.75C875.966 215.952 878.178 218.979 878.178 222.523C878.178 224.051 878.037 225.45 877.783 226.723C877.569 227.792 877.275 228.925 876.891 230.122C876.13 232.484 874.385 234.323 872.197 235.247C872.974 235.977 873.619 236.867 874.079 237.89C874.88 239.668 875.421 241.975 875.421 244.86V245.607C875.421 246.192 875.385 246.774 875.314 247.356C874.918 250.641 872.616 253.379 869.449 254.335C867.436 254.942 865.034 255.296 862.227 255.296C857.276 255.296 853.724 253.957 851.349 252.135C848.301 249.806 846.184 246.147 846.184 240.654C846.184 239.855 846.235 239.03 846.341 238.179C846.413 237.597 846.505 236.96 846.613 236.268C846.622 236.216 846.63 236.165 846.638 236.114L847.113 233.447C845.614 231.939 844.688 229.863 844.688 227.569C844.688 226.294 844.783 225.045 844.973 223.817C845.181 222.474 845.553 221.048 846.123 219.552C846.862 217.618 848.27 216.077 850.025 215.156ZM856.619 227.569H853.02C853.02 226.727 853.082 225.903 853.208 225.092C853.333 224.283 853.565 223.425 853.91 222.523H857.507L857.788 221.12C857.943 220.341 858.037 219.601 858.069 218.9C858.099 218.198 858.115 217.615 858.115 217.147C858.924 216.619 859.937 216.244 861.153 216.025C862.368 215.808 863.49 215.699 864.518 215.699C864.673 216.166 864.752 216.759 864.752 217.475C864.752 217.974 864.711 218.509 864.635 219.086C864.556 219.664 864.456 220.295 864.33 220.98L864.05 222.523H869.845C869.845 223.457 869.766 224.313 869.611 225.092C869.455 225.871 869.238 226.697 868.957 227.569H863.162L861.525 236.776C861.464 237.211 861.41 237.617 861.363 237.99C861.315 238.364 861.293 238.722 861.293 239.065C861.293 239.876 861.48 240.514 861.853 240.98C862.227 241.449 862.928 241.683 863.956 241.683C864.486 241.683 864.954 241.644 865.358 241.566C865.763 241.487 866.137 241.402 866.48 241.31C866.886 242.212 867.088 243.396 867.088 244.86V245.607C867.088 245.858 867.072 246.107 867.042 246.356C865.701 246.761 864.096 246.963 862.227 246.963C859.61 246.963 857.671 246.482 856.409 245.514C855.147 244.549 854.516 242.93 854.516 240.654C854.516 240.186 854.548 239.703 854.61 239.205C854.672 238.707 854.75 238.162 854.844 237.57L856.619 227.569Z" fill="white"/>
<path fill-rule="evenodd" clip-rule="evenodd" d="M898.584 237.915C899.058 238.916 899.415 240.013 899.648 241.21C899.913 242.59 900.054 244.056 900.054 245.608C900.054 248.829 898.197 251.762 895.285 253.14C894.394 253.563 893.362 253.954 892.186 254.293C891.238 254.566 890.255 254.798 889.239 254.99C888.267 255.172 887.298 255.313 886.328 255.415C885.259 255.527 884.296 255.577 883.448 255.577C880.485 255.577 877.954 255.147 875.854 254.422C873.247 253.524 871.119 252.199 869.417 250.556C867.583 248.787 866.216 246.651 865.355 244.125C864.655 242.081 864.273 239.822 864.273 237.337C864.273 234.49 864.757 231.687 865.738 228.932C866.729 226.152 868.136 223.673 869.95 221.483C871.864 219.171 874.196 217.296 876.949 215.883C879.814 214.409 883.019 213.628 886.579 213.628C888.416 213.628 890.123 213.866 891.719 214.314C893.718 214.879 895.44 215.768 896.915 216.926C898.553 218.214 899.838 219.788 900.759 221.64C901.67 223.457 902.203 225.564 902.203 227.991C902.203 231.12 901.381 233.81 899.917 236.115C899.516 236.745 899.073 237.347 898.584 237.915ZM879.102 237.522C879.289 239.018 879.787 240.133 880.598 240.864C881.407 241.597 882.592 241.964 884.15 241.964C885.396 241.964 886.494 241.83 887.443 241.566C888.394 241.302 889.399 240.951 890.459 240.514C890.957 241.136 891.291 241.893 891.464 242.781C891.634 243.669 891.721 244.611 891.721 245.608C891.191 245.858 890.576 246.084 889.874 246.286C889.173 246.489 888.448 246.659 887.702 246.799C886.954 246.94 886.206 247.049 885.457 247.127C884.71 247.206 884.04 247.244 883.448 247.244C881.548 247.244 879.92 247.01 878.566 246.542C877.21 246.076 876.088 245.414 875.201 244.556C874.311 243.699 873.658 242.656 873.238 241.425C872.817 240.195 872.606 238.833 872.606 237.337C872.606 235.436 872.934 233.565 873.588 231.728C874.243 229.89 875.169 228.246 876.369 226.797C877.568 225.35 879.032 224.181 880.762 223.294C882.49 222.404 884.431 221.961 886.579 221.961C887.609 221.961 888.567 222.085 889.454 222.334C890.342 222.585 891.112 222.966 891.766 223.479C892.421 223.994 892.936 224.624 893.309 225.373C893.683 226.12 893.871 226.993 893.871 227.991C893.871 229.392 893.543 230.607 892.889 231.635C892.234 232.663 891.362 233.535 890.272 234.252C889.182 234.968 887.943 235.553 886.557 236.004C885.17 236.456 883.729 236.792 882.235 237.009L879.102 237.522ZM881.767 232.756C882.95 232.569 883.916 232.328 884.663 232.033C885.412 231.737 886.004 231.409 886.439 231.051C886.875 230.692 887.171 230.326 887.328 229.951C887.483 229.579 887.562 229.204 887.562 228.832C887.562 228.238 887.366 227.755 886.977 227.382C886.587 227.008 886.066 226.821 885.412 226.821C884.602 226.821 883.861 227.001 883.191 227.359C882.522 227.717 881.937 228.193 881.439 228.785C880.941 229.375 880.513 230.053 880.154 230.817C879.796 231.58 879.523 232.35 879.336 233.129L881.767 232.756Z" fill="white"/>
<path fill-rule="evenodd" clip-rule="evenodd" d="M908.339 214.337L908.34 213.886C908.33 213.744 908.315 213.585 908.297 213.414C907.827 209.058 910.814 205.082 915.129 204.316C915.914 204.177 916.819 204.067 917.837 203.997C918.741 203.935 919.523 203.908 920.18 203.908C921.514 203.908 922.983 204.032 924.593 204.311C927.617 204.834 930.108 206.975 931.077 209.887C931.465 211.047 931.739 212.51 931.739 214.297C931.739 216.094 931.52 218.28 931.047 220.769L928.015 237.661C927.709 239.403 927.487 240.946 927.348 242.278C927.231 243.424 927.157 244.315 927.157 244.954V245.703C927.624 250.034 924.67 253.997 920.379 254.785C918.841 255.067 917.327 255.202 915.834 255.202C914.523 255.202 913.066 255.077 911.473 254.793C911.045 254.716 910.63 254.607 910.229 254.467C909.99 254.561 909.748 254.646 909.502 254.728C907.829 255.286 906.059 255.577 904.198 255.577C899.165 255.577 895.538 253.633 893.017 250.428C890.956 247.804 889.695 244.407 889.695 240.095C889.695 236.877 890.182 233.764 891.146 230.771C892.181 227.549 893.736 224.703 895.782 222.224C897.906 219.644 900.534 217.562 903.698 216.002C905.136 215.293 906.682 214.733 908.339 214.337ZM919.807 236.215C919.463 238.177 919.216 239.914 919.058 241.425C918.903 242.936 918.824 244.113 918.824 244.954V245.818C918.824 246.052 918.841 246.31 918.873 246.589C917.845 246.778 916.832 246.87 915.834 246.87C914.963 246.87 913.995 246.778 912.937 246.589C912.874 246.341 912.812 246.046 912.75 245.703C912.688 245.358 912.656 244.845 912.656 244.16C912.656 243.879 912.665 243.552 912.68 243.179C912.696 242.804 912.735 242.415 912.797 242.01C912.36 242.727 911.839 243.404 911.23 244.043C910.624 244.682 909.953 245.235 909.221 245.703C908.489 246.169 907.703 246.544 906.863 246.823C906.022 247.104 905.132 247.244 904.198 247.244C902.142 247.244 900.599 246.589 899.571 245.282C898.543 243.973 898.028 242.244 898.028 240.095C898.028 237.758 898.379 235.498 899.081 233.318C899.782 231.137 900.825 229.204 902.212 227.523C903.598 225.841 905.32 224.494 907.376 223.479C909.432 222.468 911.832 221.961 914.572 221.961C914.791 221.961 915.002 221.97 915.204 221.985C915.406 222 915.585 222.008 915.742 222.008C916.085 220.171 916.325 218.613 916.466 217.334C916.606 216.057 916.676 214.999 916.676 214.157C916.676 213.814 916.668 213.526 916.653 213.292C916.636 213.058 916.613 212.801 916.583 212.522C917.111 212.428 917.72 212.358 918.405 212.311C919.09 212.264 919.682 212.241 920.18 212.241C921.084 212.241 922.081 212.333 923.172 212.522C923.328 212.988 923.406 213.58 923.406 214.297C923.406 215.668 923.217 217.334 922.845 219.297L919.807 236.215ZM914.806 227.523C914.527 227.461 914.254 227.421 913.989 227.406C913.723 227.391 913.467 227.382 913.218 227.382C911.722 227.382 910.451 227.757 909.408 228.504C908.365 229.253 907.501 230.187 906.816 231.309C906.129 232.43 905.631 233.637 905.32 234.929C905.007 236.223 904.852 237.398 904.852 238.458C904.852 240.763 905.616 241.917 907.142 241.917C908.638 241.917 910.024 241.006 911.301 239.184C912.578 237.36 913.514 234.797 914.106 231.494L914.806 227.523Z" fill="white"/>
<path d="M765.42 221.588C765.762 219.937 766.003 218.496 766.143 217.264C766.284 216.035 766.354 214.999 766.354 214.157C766.354 213.816 766.346 213.526 766.331 213.292C766.315 213.06 766.292 212.801 766.26 212.522C766.79 212.428 767.397 212.358 768.084 212.311C768.768 212.264 769.361 212.241 769.859 212.241C770.762 212.241 771.76 212.335 772.85 212.522C773.005 212.99 773.084 213.58 773.084 214.297C773.084 214.952 773.02 215.699 772.897 216.54C772.773 217.383 772.616 218.302 772.429 219.298L768.83 238.085C768.738 238.614 768.691 239.05 768.691 239.393C768.691 239.892 768.761 240.282 768.9 240.563C769.04 240.842 769.221 241.061 769.438 241.216C769.657 241.372 769.906 241.474 770.185 241.519C770.466 241.567 770.747 241.589 771.028 241.589C771.151 241.589 771.385 241.567 771.728 241.519C772.071 241.474 772.382 241.404 772.663 241.31C772.818 241.84 772.95 242.417 773.06 243.038C773.169 243.662 773.224 244.3 773.224 244.956C773.224 245.203 773.216 245.437 773.201 245.656C773.186 245.875 773.161 246.107 773.131 246.356C772.663 246.544 772.056 246.691 771.307 246.801C770.56 246.91 769.734 246.965 768.83 246.965C766.712 246.965 765.045 246.443 763.832 245.399C762.615 244.356 762.008 242.712 762.008 240.467C762.008 240.031 762.038 239.573 762.101 239.09C762.163 238.607 762.24 238.1 762.335 237.571L765.42 221.588Z" fill="#797B79"/>
<path d="M783.486 218.456C783.454 217.366 783.525 216.33 783.697 215.347C783.867 214.366 784.14 213.331 784.514 212.239C785.074 212.116 785.668 212.03 786.291 211.984C786.913 211.935 787.473 211.913 787.973 211.913C788.471 211.913 789.024 211.935 789.633 211.984C790.238 212.03 790.808 212.116 791.338 212.239C791.338 213.331 791.244 214.374 791.057 215.372C790.87 216.368 790.589 217.396 790.216 218.456C789.654 218.55 789.071 218.612 788.463 218.643C787.856 218.673 787.302 218.688 786.804 218.688C786.336 218.688 785.791 218.673 785.169 218.643C784.546 218.612 783.984 218.55 783.486 218.456ZM782.131 227.57H779.187C779.187 227.474 779.179 227.382 779.163 227.289C779.148 227.195 779.14 227.086 779.14 226.961C779.14 226.152 779.217 225.395 779.372 224.694C779.528 223.992 779.762 223.269 780.074 222.521H789.514L785.261 246.683C784.078 246.87 782.956 246.963 781.897 246.963C780.93 246.963 779.887 246.87 778.766 246.683L782.131 227.57Z" fill="#797B79"/>
<path d="M796.618 232.897C796.961 230.933 797.218 229.198 797.388 227.686C797.561 226.174 797.646 224.999 797.646 224.158V223.294C797.646 223.059 797.629 222.802 797.599 222.523C798.627 222.334 799.655 222.242 800.683 222.242C801.151 222.242 801.618 222.264 802.086 222.312C802.554 222.357 803.052 222.428 803.58 222.523C803.644 222.77 803.705 223.066 803.767 223.409C803.831 223.752 803.861 224.266 803.861 224.952C803.861 225.233 803.852 225.513 803.837 225.793C803.822 226.073 803.782 226.416 803.72 226.821C804.438 225.482 805.504 224.345 806.922 223.409C808.339 222.474 809.905 222.008 811.619 222.008C813.27 222.008 814.556 222.374 815.475 223.106C816.393 223.838 816.948 225.045 817.133 226.727C817.88 225.42 818.97 224.305 820.405 223.387C821.839 222.468 823.397 222.008 825.078 222.008C826.947 222.008 828.365 222.468 829.331 223.387C830.297 224.305 830.78 225.839 830.78 227.991C830.78 229.049 830.67 230.17 830.453 231.354L827.741 246.682C826.558 246.87 825.421 246.963 824.331 246.963C823.24 246.963 822.165 246.87 821.107 246.682L823.723 231.869C823.848 231.152 823.91 230.481 823.91 229.858C823.91 229.017 823.739 228.425 823.397 228.083C823.054 227.74 822.522 227.569 821.807 227.569C821.371 227.569 820.896 227.678 820.381 227.895C819.868 228.114 819.346 228.536 818.815 229.157C818.287 229.781 817.789 230.637 817.32 231.728C816.854 232.818 816.463 234.236 816.152 235.981L814.282 246.682C813.1 246.87 811.961 246.963 810.871 246.963C809.782 246.963 808.707 246.87 807.647 246.682L810.265 231.869C810.388 231.152 810.45 230.481 810.45 229.858C810.45 229.017 810.28 228.425 809.937 228.083C809.594 227.74 809.065 227.569 808.347 227.569C807.911 227.569 807.428 227.678 806.898 227.895C806.37 228.114 805.84 228.574 805.31 229.274C804.78 229.977 804.267 230.966 803.767 232.243C803.269 233.52 802.833 235.202 802.46 237.29L800.73 246.682C799.515 246.87 798.378 246.963 797.318 246.963C796.228 246.963 795.154 246.87 794.094 246.682L796.618 232.897Z" fill="#797B79"/>
<path d="M842.135 218.456C842.103 217.366 842.173 216.33 842.345 215.347C842.516 214.366 842.79 213.331 843.163 212.239C843.724 212.116 844.316 212.03 844.938 211.984C845.561 211.935 846.123 211.913 846.621 211.913C847.119 211.913 847.673 211.935 848.281 211.984C848.888 212.03 849.456 212.116 849.986 212.239C849.986 213.331 849.892 214.374 849.705 215.372C849.52 216.368 849.239 217.396 848.864 218.456C848.304 218.55 847.719 218.612 847.113 218.643C846.504 218.673 845.953 218.688 845.453 218.688C844.986 218.688 844.44 218.673 843.818 218.643C843.194 218.612 842.634 218.55 842.135 218.456ZM840.781 227.57H837.835C837.835 227.474 837.827 227.382 837.812 227.289C837.797 227.195 837.788 227.086 837.788 226.961C837.788 226.152 837.867 225.395 838.023 224.694C838.178 223.992 838.412 223.269 838.723 222.521H848.164L843.912 246.683C842.726 246.87 841.605 246.963 840.545 246.963C839.58 246.963 838.536 246.87 837.414 246.683L840.781 227.57Z" fill="#797B79"/>
<path d="M856.622 227.569H853.023C853.023 226.727 853.085 225.903 853.211 225.092C853.336 224.283 853.568 223.426 853.913 222.523H857.51L857.791 221.12C857.946 220.341 858.04 219.601 858.072 218.901C858.102 218.198 858.118 217.615 858.118 217.147C858.927 216.619 859.94 216.244 861.156 216.025C862.371 215.808 863.493 215.699 864.521 215.699C864.676 216.166 864.755 216.759 864.755 217.475C864.755 217.974 864.715 218.509 864.638 219.086C864.559 219.664 864.459 220.295 864.333 220.98L864.053 222.523H869.848C869.848 223.457 869.769 224.313 869.614 225.092C869.459 225.871 869.241 226.697 868.96 227.569H863.165L861.528 236.777C861.467 237.211 861.413 237.617 861.366 237.99C861.318 238.365 861.296 238.722 861.296 239.065C861.296 239.876 861.483 240.514 861.856 240.981C862.231 241.449 862.931 241.683 863.959 241.683C864.489 241.683 864.957 241.644 865.361 241.566C865.766 241.487 866.14 241.402 866.483 241.31C866.889 242.213 867.092 243.396 867.092 244.86V245.608C867.092 245.858 867.075 246.107 867.045 246.356C865.704 246.761 864.099 246.963 862.231 246.963C859.613 246.963 857.674 246.482 856.412 245.514C855.15 244.549 854.52 242.93 854.52 240.655C854.52 240.187 854.551 239.703 854.613 239.205C854.675 238.707 854.754 238.162 854.847 237.571L856.622 227.569Z" fill="#797B79"/>
<path d="M881.77 232.756C882.953 232.569 883.919 232.329 884.667 232.033C885.415 231.737 886.007 231.409 886.442 231.051C886.878 230.692 887.174 230.326 887.331 229.952C887.487 229.579 887.565 229.204 887.565 228.832C887.565 228.238 887.37 227.755 886.98 227.382C886.591 227.008 886.069 226.821 885.415 226.821C884.605 226.821 883.864 227.001 883.194 227.359C882.525 227.717 881.94 228.193 881.442 228.785C880.944 229.375 880.516 230.053 880.157 230.817C879.799 231.58 879.526 232.35 879.339 233.129L881.77 232.756ZM879.105 237.522C879.292 239.018 879.791 240.133 880.601 240.864C881.41 241.597 882.595 241.964 884.153 241.964C885.399 241.964 886.497 241.83 887.446 241.566C888.398 241.302 889.402 240.951 890.462 240.514C890.96 241.136 891.294 241.893 891.467 242.781C891.637 243.669 891.724 244.611 891.724 245.608C891.194 245.858 890.579 246.084 889.877 246.286C889.177 246.489 888.451 246.659 887.706 246.799C886.957 246.94 886.209 247.049 885.461 247.127C884.713 247.206 884.043 247.244 883.451 247.244C881.551 247.244 879.923 247.01 878.569 246.542C877.213 246.076 876.091 245.414 875.204 244.556C874.314 243.699 873.661 242.656 873.241 241.425C872.82 240.195 872.609 238.833 872.609 237.337C872.609 235.436 872.937 233.565 873.591 231.728C874.246 229.89 875.172 228.246 876.372 226.797C877.571 225.35 879.035 224.181 880.765 223.294C882.493 222.404 884.434 221.961 886.582 221.961C887.612 221.961 888.57 222.085 889.457 222.334C890.345 222.585 891.116 222.966 891.769 223.479C892.424 223.994 892.939 224.624 893.312 225.373C893.686 226.12 893.874 226.993 893.874 227.991C893.874 229.392 893.546 230.607 892.892 231.635C892.237 232.663 891.365 233.535 890.275 234.253C889.185 234.968 887.946 235.553 886.56 236.004C885.173 236.456 883.732 236.792 882.238 237.009L879.105 237.522Z" fill="#797B79"/>
<path d="M919.81 236.215C919.466 238.177 919.219 239.914 919.062 241.425C918.906 242.936 918.828 244.113 918.828 244.954V245.818C918.828 246.052 918.844 246.31 918.876 246.589C917.848 246.778 916.835 246.87 915.837 246.87C914.966 246.87 913.998 246.778 912.94 246.589C912.877 246.341 912.815 246.046 912.753 245.703C912.691 245.359 912.659 244.845 912.659 244.16C912.659 243.879 912.668 243.552 912.683 243.179C912.699 242.804 912.738 242.415 912.8 242.01C912.363 242.727 911.842 243.404 911.233 244.043C910.627 244.682 909.956 245.235 909.224 245.703C908.492 246.169 907.706 246.544 906.866 246.823C906.025 247.104 905.136 247.244 904.201 247.244C902.145 247.244 900.602 246.589 899.574 245.282C898.546 243.973 898.031 242.244 898.031 240.095C898.031 237.758 898.382 235.498 899.084 233.318C899.785 231.137 900.828 229.204 902.215 227.523C903.601 225.841 905.323 224.494 907.379 223.479C909.435 222.468 911.835 221.961 914.575 221.961C914.794 221.961 915.005 221.97 915.207 221.985C915.409 222 915.588 222.008 915.745 222.008C916.088 220.171 916.328 218.613 916.469 217.334C916.609 216.057 916.68 214.999 916.68 214.157C916.68 213.814 916.671 213.526 916.656 213.292C916.639 213.058 916.616 212.801 916.586 212.522C917.114 212.428 917.723 212.358 918.408 212.311C919.093 212.264 919.685 212.241 920.183 212.241C921.087 212.241 922.084 212.333 923.175 212.522C923.331 212.988 923.409 213.58 923.409 214.297C923.409 215.668 923.22 217.334 922.848 219.297L919.81 236.215ZM914.809 227.523C914.53 227.461 914.257 227.421 913.992 227.406C913.726 227.391 913.47 227.382 913.221 227.382C911.725 227.382 910.455 227.757 909.411 228.504C908.368 229.253 907.504 230.187 906.819 231.309C906.132 232.43 905.634 233.637 905.323 234.929C905.01 236.223 904.855 237.398 904.855 238.458C904.855 240.763 905.619 241.917 907.145 241.917C908.641 241.917 910.027 241.006 911.304 239.184C912.581 237.36 913.517 234.797 914.109 231.494L914.809 227.523Z" fill="#797B79"/>
<path d="M311.164 45.8345H304.672V254.715H311.164V45.8345Z" fill="#7E8691"/>
<path fill-rule="evenodd" clip-rule="evenodd" d="M165.265 145.339L133.125 89.8491H197.396L165.265 145.339Z" fill="#2F76A6"/>
<path fill-rule="evenodd" clip-rule="evenodd" d="M165.262 145.339H101.203L133.122 89.8491L165.262 145.339Z" fill="#408BBE"/>
<path fill-rule="evenodd" clip-rule="evenodd" d="M133.122 200.846L101.203 145.341H165.262L133.122 200.846Z" fill="#AE3A2F"/>
<path fill-rule="evenodd" clip-rule="evenodd" d="M133.124 200.846H69.0703L101.205 145.341L133.124 200.846Z" fill="#D4483C"/>
<path fill-rule="evenodd" clip-rule="evenodd" d="M95.5535 138.342L31.7422 138.37L63.7815 82.6479L95.5535 138.342Z" fill="#7B4689"/>
<path fill-rule="evenodd" clip-rule="evenodd" d="M95.5535 138.342L63.5191 194.073L31.7422 138.37L95.5535 138.342Z" fill="#A172A3"/>
<path fill-rule="evenodd" clip-rule="evenodd" d="M63.7968 82.6612L-0.0078125 82.6913L32.0249 26.9639L63.7968 82.6612Z" fill="#1B9579"/>
<path fill-rule="evenodd" clip-rule="evenodd" d="M63.7968 82.6611L31.7691 138.392L-0.0078125 82.6912L63.7968 82.6611Z" fill="#2AAE8D"/>
<path fill-rule="evenodd" clip-rule="evenodd" d="M100.991 256.326L69.0703 200.846H133.122L100.991 256.326Z" fill="#E6942F"/>
<path fill-rule="evenodd" clip-rule="evenodd" d="M100.991 256.326H36.9375L69.0705 200.846L100.991 256.326Z" fill="#E7BE2A"/>
<path fill-rule="evenodd" clip-rule="evenodd" d="M197.397 89.8507L165.266 34.3573H229.508L197.397 89.8507Z" fill="#101829"/>
<path fill-rule="evenodd" clip-rule="evenodd" d="M197.396 89.8507H133.125L165.265 34.3573L197.396 89.8507Z" fill="#394255"/>
</g>
<defs>
<clipPath id="clip0_59346_17302">
<rect width="995" height="257" fill="white"/>
</clipPath>
</defs>
</svg>
